solid OpenSCAD_Model
  facet normal -0.809016 -0.587787 0
    outer loop
      vertex 23.5 32 -0.5
      vertex 22.4635 33.4266 0.5
      vertex 22.4635 33.4266 -0.5
    endloop
  endfacet
  facet normal -0.809016 -0.587787 0
    outer loop
      vertex 22.4635 33.4266 0.5
      vertex 23.5 32 -0.5
      vertex 23.5 32 0.5
    endloop
  endfacet
  facet normal 1 -0 0
    outer loop
      vertex 20.7865 31.1183 0.5
      vertex 20.7865 32.8817 -0.5
      vertex 20.7865 32.8817 0.5
    endloop
  endfacet
  facet normal 1 0 0
    outer loop
      vertex 20.7865 32.8817 -0.5
      vertex 20.7865 31.1183 0.5
      vertex 20.7865 31.1183 -0.5
    endloop
  endfacet
  facet normal 0.309017 -0.951056 0
    outer loop
      vertex 20.7865 32.8817 -0.5
      vertex 22.4635 33.4266 0.5
      vertex 20.7865 32.8817 0.5
    endloop
  endfacet
  facet normal 0.309017 -0.951056 0
    outer loop
      vertex 22.4635 33.4266 0.5
      vertex 20.7865 32.8817 -0.5
      vertex 22.4635 33.4266 -0.5
    endloop
  endfacet
  facet normal 0.309017 0.951056 -0
    outer loop
      vertex 22.4635 30.5734 -0.5
      vertex 20.7865 31.1183 0.5
      vertex 22.4635 30.5734 0.5
    endloop
  endfacet
  facet normal 0.309017 0.951056 0
    outer loop
      vertex 20.7865 31.1183 0.5
      vertex 22.4635 30.5734 -0.5
      vertex 20.7865 31.1183 -0.5
    endloop
  endfacet
  facet normal -0.809017 0.587785 0
    outer loop
      vertex 22.4635 30.5734 -0.5
      vertex 23.5 32 0.5
      vertex 23.5 32 -0.5
    endloop
  endfacet
  facet normal -0.809017 0.587785 0
    outer loop
      vertex 23.5 32 0.5
      vertex 22.4635 30.5734 -0.5
      vertex 22.4635 30.5734 0.5
    endloop
  endfacet
  facet normal -0.809017 -0.587785 0
    outer loop
      vertex 23.5 -32 -0.5
      vertex 22.4635 -30.5734 0.5
      vertex 22.4635 -30.5734 -0.5
    endloop
  endfacet
  facet normal -0.809017 -0.587785 0
    outer loop
      vertex 22.4635 -30.5734 0.5
      vertex 23.5 -32 -0.5
      vertex 23.5 -32 0.5
    endloop
  endfacet
  facet normal 1 -0 0
    outer loop
      vertex 20.7865 -32.8817 0.5
      vertex 20.7865 -31.1183 -0.5
      vertex 20.7865 -31.1183 0.5
    endloop
  endfacet
  facet normal 1 0 0
    outer loop
      vertex 20.7865 -31.1183 -0.5
      vertex 20.7865 -32.8817 0.5
      vertex 20.7865 -32.8817 -0.5
    endloop
  endfacet
  facet normal 0.309017 -0.951056 0
    outer loop
      vertex 20.7865 -31.1183 -0.5
      vertex 22.4635 -30.5734 0.5
      vertex 20.7865 -31.1183 0.5
    endloop
  endfacet
  facet normal 0.309017 -0.951056 0
    outer loop
      vertex 22.4635 -30.5734 0.5
      vertex 20.7865 -31.1183 -0.5
      vertex 22.4635 -30.5734 -0.5
    endloop
  endfacet
  facet normal -0.809016 0.587787 0
    outer loop
      vertex 22.4635 -33.4266 -0.5
      vertex 23.5 -32 0.5
      vertex 23.5 -32 -0.5
    endloop
  endfacet
  facet normal -0.809016 0.587787 0
    outer loop
      vertex 23.5 -32 0.5
      vertex 22.4635 -33.4266 -0.5
      vertex 22.4635 -33.4266 0.5
    endloop
  endfacet
  facet normal 0.309017 0.951056 -0
    outer loop
      vertex 22.4635 -33.4266 -0.5
      vertex 20.7865 -32.8817 0.5
      vertex 22.4635 -33.4266 0.5
    endloop
  endfacet
  facet normal 0.309017 0.951056 0
    outer loop
      vertex 20.7865 -32.8817 0.5
      vertex 22.4635 -33.4266 -0.5
      vertex 20.7865 -32.8817 -0.5
    endloop
  endfacet
  facet normal -0.809017 -0.587786 0
    outer loop
      vertex -20.5 32 -0.5
      vertex -21.5365 33.4266 0.5
      vertex -21.5365 33.4266 -0.5
    endloop
  endfacet
  facet normal -0.809017 -0.587786 0
    outer loop
      vertex -21.5365 33.4266 0.5
      vertex -20.5 32 -0.5
      vertex -20.5 32 0.5
    endloop
  endfacet
  facet normal 1 -0 0
    outer loop
      vertex -23.2135 31.1183 0.5
      vertex -23.2135 32.8817 -0.5
      vertex -23.2135 32.8817 0.5
    endloop
  endfacet
  facet normal 1 0 0
    outer loop
      vertex -23.2135 32.8817 -0.5
      vertex -23.2135 31.1183 0.5
      vertex -23.2135 31.1183 -0.5
    endloop
  endfacet
  facet normal 0.309017 -0.951056 0
    outer loop
      vertex -23.2135 32.8817 -0.5
      vertex -21.5365 33.4266 0.5
      vertex -23.2135 32.8817 0.5
    endloop
  endfacet
  facet normal 0.309017 -0.951056 0
    outer loop
      vertex -21.5365 33.4266 0.5
      vertex -23.2135 32.8817 -0.5
      vertex -21.5365 33.4266 -0.5
    endloop
  endfacet
  facet normal 0.309017 0.951056 -0
    outer loop
      vertex -21.5365 30.5734 -0.5
      vertex -23.2135 31.1183 0.5
      vertex -21.5365 30.5734 0.5
    endloop
  endfacet
  facet normal 0.309017 0.951056 0
    outer loop
      vertex -23.2135 31.1183 0.5
      vertex -21.5365 30.5734 -0.5
      vertex -23.2135 31.1183 -0.5
    endloop
  endfacet
  facet normal -0.809017 0.587785 0
    outer loop
      vertex -21.5365 30.5734 -0.5
      vertex -20.5 32 0.5
      vertex -20.5 32 -0.5
    endloop
  endfacet
  facet normal -0.809017 0.587785 0
    outer loop
      vertex -20.5 32 0.5
      vertex -21.5365 30.5734 -0.5
      vertex -21.5365 30.5734 0.5
    endloop
  endfacet
  facet normal -0.809017 -0.587785 0
    outer loop
      vertex -20.5 -32 -0.5
      vertex -21.5365 -30.5734 0.5
      vertex -21.5365 -30.5734 -0.5
    endloop
  endfacet
  facet normal -0.809017 -0.587785 0
    outer loop
      vertex -21.5365 -30.5734 0.5
      vertex -20.5 -32 -0.5
      vertex -20.5 -32 0.5
    endloop
  endfacet
  facet normal 1 -0 0
    outer loop
      vertex -23.2135 -32.8817 0.5
      vertex -23.2135 -31.1183 -0.5
      vertex -23.2135 -31.1183 0.5
    endloop
  endfacet
  facet normal 1 0 0
    outer loop
      vertex -23.2135 -31.1183 -0.5
      vertex -23.2135 -32.8817 0.5
      vertex -23.2135 -32.8817 -0.5
    endloop
  endfacet
  facet normal 0.309017 -0.951056 0
    outer loop
      vertex -23.2135 -31.1183 -0.5
      vertex -21.5365 -30.5734 0.5
      vertex -23.2135 -31.1183 0.5
    endloop
  endfacet
  facet normal 0.309017 -0.951056 0
    outer loop
      vertex -21.5365 -30.5734 0.5
      vertex -23.2135 -31.1183 -0.5
      vertex -21.5365 -30.5734 -0.5
    endloop
  endfacet
  facet normal -0.809017 0.587786 0
    outer loop
      vertex -21.5365 -33.4266 -0.5
      vertex -20.5 -32 0.5
      vertex -20.5 -32 -0.5
    endloop
  endfacet
  facet normal -0.809017 0.587786 0
    outer loop
      vertex -20.5 -32 0.5
      vertex -21.5365 -33.4266 -0.5
      vertex -21.5365 -33.4266 0.5
    endloop
  endfacet
  facet normal 0.309017 0.951056 -0
    outer loop
      vertex -21.5365 -33.4266 -0.5
      vertex -23.2135 -32.8817 0.5
      vertex -21.5365 -33.4266 0.5
    endloop
  endfacet
  facet normal 0.309017 0.951056 0
    outer loop
      vertex -23.2135 -32.8817 0.5
      vertex -21.5365 -33.4266 -0.5
      vertex -23.2135 -32.8817 -0.5
    endloop
  endfacet
  facet normal 1 -0 0
    outer loop
      vertex 17.25 21.75 0.5
      vertex 17.25 24.25 -0.5
      vertex 17.25 24.25 0.5
    endloop
  endfacet
  facet normal 1 0 0
    outer loop
      vertex 17.25 24.25 -0.5
      vertex 17.25 21.75 0.5
      vertex 17.25 21.75 -0.5
    endloop
  endfacet
  facet normal -1 0 0
    outer loop
      vertex 22.75 21.75 -0.5
      vertex 22.75 24.25 0.5
      vertex 22.75 24.25 -0.5
    endloop
  endfacet
  facet normal -1 -0 0
    outer loop
      vertex 22.75 24.25 0.5
      vertex 22.75 21.75 -0.5
      vertex 22.75 21.75 0.5
    endloop
  endfacet
  facet normal 0 1 -0
    outer loop
      vertex 22.75 21.75 -0.5
      vertex 17.25 21.75 0.5
      vertex 22.75 21.75 0.5
    endloop
  endfacet
  facet normal 0 1 0
    outer loop
      vertex 17.25 21.75 0.5
      vertex 22.75 21.75 -0.5
      vertex 17.25 21.75 -0.5
    endloop
  endfacet
  facet normal 0 -1 0
    outer loop
      vertex 17.25 24.25 -0.5
      vertex 22.75 24.25 0.5
      vertex 17.25 24.25 0.5
    endloop
  endfacet
  facet normal 0 -1 -0
    outer loop
      vertex 22.75 24.25 0.5
      vertex 17.25 24.25 -0.5
      vertex 22.75 24.25 -0.5
    endloop
  endfacet
  facet normal 1 -0 0
    outer loop
      vertex 17.25 -24.25 0.5
      vertex 17.25 -21.75 -0.5
      vertex 17.25 -21.75 0.5
    endloop
  endfacet
  facet normal 1 0 0
    outer loop
      vertex 17.25 -21.75 -0.5
      vertex 17.25 -24.25 0.5
      vertex 17.25 -24.25 -0.5
    endloop
  endfacet
  facet normal -1 0 0
    outer loop
      vertex 22.75 -24.25 -0.5
      vertex 22.75 -21.75 0.5
      vertex 22.75 -21.75 -0.5
    endloop
  endfacet
  facet normal -1 -0 0
    outer loop
      vertex 22.75 -21.75 0.5
      vertex 22.75 -24.25 -0.5
      vertex 22.75 -24.25 0.5
    endloop
  endfacet
  facet normal 0 1 -0
    outer loop
      vertex 22.75 -24.25 -0.5
      vertex 17.25 -24.25 0.5
      vertex 22.75 -24.25 0.5
    endloop
  endfacet
  facet normal 0 1 0
    outer loop
      vertex 17.25 -24.25 0.5
      vertex 22.75 -24.25 -0.5
      vertex 17.25 -24.25 -0.5
    endloop
  endfacet
  facet normal 0 -1 0
    outer loop
      vertex 17.25 -21.75 -0.5
      vertex 22.75 -21.75 0.5
      vertex 17.25 -21.75 0.5
    endloop
  endfacet
  facet normal 0 -1 -0
    outer loop
      vertex 22.75 -21.75 0.5
      vertex 17.25 -21.75 -0.5
      vertex 22.75 -21.75 -0.5
    endloop
  endfacet
  facet normal -0.809017 -0.587786 0
    outer loop
      vertex 11.5 9 -0.5
      vertex 10.4635 10.4266 0.5
      vertex 10.4635 10.4266 -0.5
    endloop
  endfacet
  facet normal -0.809017 -0.587786 0
    outer loop
      vertex 10.4635 10.4266 0.5
      vertex 11.5 9 -0.5
      vertex 11.5 9 0.5
    endloop
  endfacet
  facet normal 1 -0 0
    outer loop
      vertex 8.78648 8.11832 0.5
      vertex 8.78648 9.88168 -0.5
      vertex 8.78648 9.88168 0.5
    endloop
  endfacet
  facet normal 1 0 0
    outer loop
      vertex 8.78648 9.88168 -0.5
      vertex 8.78648 8.11832 0.5
      vertex 8.78648 8.11832 -0.5
    endloop
  endfacet
  facet normal 0.309017 -0.951056 0
    outer loop
      vertex 8.78648 9.88168 -0.5
      vertex 10.4635 10.4266 0.5
      vertex 8.78648 9.88168 0.5
    endloop
  endfacet
  facet normal 0.309017 -0.951056 0
    outer loop
      vertex 10.4635 10.4266 0.5
      vertex 8.78648 9.88168 -0.5
      vertex 10.4635 10.4266 -0.5
    endloop
  endfacet
  facet normal 0.309017 0.951056 -0
    outer loop
      vertex 10.4635 7.57341 -0.5
      vertex 8.78648 8.11832 0.5
      vertex 10.4635 7.57341 0.5
    endloop
  endfacet
  facet normal 0.309017 0.951056 0
    outer loop
      vertex 8.78648 8.11832 0.5
      vertex 10.4635 7.57341 -0.5
      vertex 8.78648 8.11832 -0.5
    endloop
  endfacet
  facet normal -0.809017 0.587785 0
    outer loop
      vertex 10.4635 7.57341 -0.5
      vertex 11.5 9 0.5
      vertex 11.5 9 -0.5
    endloop
  endfacet
  facet normal -0.809017 0.587785 0
    outer loop
      vertex 11.5 9 0.5
      vertex 10.4635 7.57341 -0.5
      vertex 10.4635 7.57341 0.5
    endloop
  endfacet
  facet normal -0.809017 -0.587786 0
    outer loop
      vertex 24.5 -9 -0.5
      vertex 23.4635 -7.57341 0.5
      vertex 23.4635 -7.57341 -0.5
    endloop
  endfacet
  facet normal -0.809017 -0.587786 0
    outer loop
      vertex 23.4635 -7.57341 0.5
      vertex 24.5 -9 -0.5
      vertex 24.5 -9 0.5
    endloop
  endfacet
  facet normal 1 -0 0
    outer loop
      vertex 21.7865 -9.88168 0.5
      vertex 21.7865 -8.11832 -0.5
      vertex 21.7865 -8.11832 0.5
    endloop
  endfacet
  facet normal 1 0 0
    outer loop
      vertex 21.7865 -8.11832 -0.5
      vertex 21.7865 -9.88168 0.5
      vertex 21.7865 -9.88168 -0.5
    endloop
  endfacet
  facet normal 0.309017 -0.951056 0
    outer loop
      vertex 21.7865 -8.11832 -0.5
      vertex 23.4635 -7.57341 0.5
      vertex 21.7865 -8.11832 0.5
    endloop
  endfacet
  facet normal 0.309017 -0.951056 0
    outer loop
      vertex 23.4635 -7.57341 0.5
      vertex 21.7865 -8.11832 -0.5
      vertex 23.4635 -7.57341 -0.5
    endloop
  endfacet
  facet normal -0.809016 0.587786 0
    outer loop
      vertex 23.4635 -10.4266 -0.5
      vertex 24.5 -9 0.5
      vertex 24.5 -9 -0.5
    endloop
  endfacet
  facet normal -0.809016 0.587786 0
    outer loop
      vertex 24.5 -9 0.5
      vertex 23.4635 -10.4266 -0.5
      vertex 23.4635 -10.4266 0.5
    endloop
  endfacet
  facet normal 0.309017 0.951056 -0
    outer loop
      vertex 23.4635 -10.4266 -0.5
      vertex 21.7865 -9.88168 0.5
      vertex 23.4635 -10.4266 0.5
    endloop
  endfacet
  facet normal 0.309017 0.951056 0
    outer loop
      vertex 21.7865 -9.88168 0.5
      vertex 23.4635 -10.4266 -0.5
      vertex 21.7865 -9.88168 -0.5
    endloop
  endfacet
  facet normal 0.994522 0.104529 0
    outer loop
      vertex 45 0 0.5
      vertex 44.0166 9.35603 -0.5
      vertex 44.0166 9.35603 0.5
    endloop
  endfacet
  facet normal 0.994522 0.104529 0
    outer loop
      vertex 44.0166 9.35603 -0.5
      vertex 45 0 0.5
      vertex 45 0 -0.5
    endloop
  endfacet
  facet normal -0.994522 0.104529 0
    outer loop
      vertex -45 0 -0.5
      vertex -44.0166 9.35603 0.5
      vertex -44.0166 9.35603 -0.5
    endloop
  endfacet
  facet normal -0.994522 0.104529 0
    outer loop
      vertex -44.0166 9.35603 0.5
      vertex -45 0 -0.5
      vertex -45 0 0.5
    endloop
  endfacet
  facet normal 0 1 -0
    outer loop
      vertex 4.70378 44.7535 -0.5
      vertex -4.70378 44.7535 0.5
      vertex 4.70378 44.7535 0.5
    endloop
  endfacet
  facet normal 0 1 0
    outer loop
      vertex -4.70378 44.7535 0.5
      vertex 4.70378 44.7535 -0.5
      vertex -4.70378 44.7535 -0.5
    endloop
  endfacet
  facet normal 0 -1 0
    outer loop
      vertex -4.70378 -44.7535 -0.5
      vertex 4.70378 -44.7535 0.5
      vertex -4.70378 -44.7535 0.5
    endloop
  endfacet
  facet normal 0 -1 -0
    outer loop
      vertex 4.70378 -44.7535 0.5
      vertex -4.70378 -44.7535 -0.5
      vertex 4.70378 -44.7535 -0.5
    endloop
  endfacet
  facet normal 0.743145 0.669131 0
    outer loop
      vertex 36.4058 26.4503 0.5
      vertex 30.1109 33.4415 -0.5
      vertex 30.1109 33.4415 0.5
    endloop
  endfacet
  facet normal 0.743145 0.669131 0
    outer loop
      vertex 30.1109 33.4415 -0.5
      vertex 36.4058 26.4503 0.5
      vertex 36.4058 26.4503 -0.5
    endloop
  endfacet
  facet normal -0.587785 0.809017 0
    outer loop
      vertex -22.5 38.9711 -0.5
      vertex -30.1109 33.4415 0.5
      vertex -22.5 38.9711 0.5
    endloop
  endfacet
  facet normal -0.587785 0.809017 0
    outer loop
      vertex -30.1109 33.4415 0.5
      vertex -22.5 38.9711 -0.5
      vertex -30.1109 33.4415 -0.5
    endloop
  endfacet
  facet normal -0.207912 0.978148 0
    outer loop
      vertex -4.70378 44.7535 -0.5
      vertex -13.9058 42.7975 0.5
      vertex -4.70378 44.7535 0.5
    endloop
  endfacet
  facet normal -0.207912 0.978148 0
    outer loop
      vertex -13.9058 42.7975 0.5
      vertex -4.70378 44.7535 -0.5
      vertex -13.9058 42.7975 -0.5
    endloop
  endfacet
  facet normal 0.866026 0.5 0
    outer loop
      vertex 41.1095 18.3031 0.5
      vertex 36.4058 26.4503 -0.5
      vertex 36.4058 26.4503 0.5
    endloop
  endfacet
  facet normal 0.866026 0.5 0
    outer loop
      vertex 36.4058 26.4503 -0.5
      vertex 41.1095 18.3031 0.5
      vertex 41.1095 18.3031 -0.5
    endloop
  endfacet
  facet normal 0.951057 0.309017 0
    outer loop
      vertex 44.0166 9.35603 0.5
      vertex 41.1095 18.3031 -0.5
      vertex 41.1095 18.3031 0.5
    endloop
  endfacet
  facet normal 0.951057 0.309017 0
    outer loop
      vertex 41.1095 18.3031 -0.5
      vertex 44.0166 9.35603 0.5
      vertex 44.0166 9.35603 -0.5
    endloop
  endfacet
  facet normal 0.406737 0.913545 -0
    outer loop
      vertex 22.5 38.9711 -0.5
      vertex 13.9058 42.7975 0.5
      vertex 22.5 38.9711 0.5
    endloop
  endfacet
  facet normal 0.406737 0.913545 0
    outer loop
      vertex 13.9058 42.7975 0.5
      vertex 22.5 38.9711 -0.5
      vertex 13.9058 42.7975 -0.5
    endloop
  endfacet
  facet normal 0.207912 0.978148 -0
    outer loop
      vertex 13.9058 42.7975 -0.5
      vertex 4.70378 44.7535 0.5
      vertex 13.9058 42.7975 0.5
    endloop
  endfacet
  facet normal 0.207912 0.978148 0
    outer loop
      vertex 4.70378 44.7535 0.5
      vertex 13.9058 42.7975 -0.5
      vertex 4.70378 44.7535 -0.5
    endloop
  endfacet
  facet normal 0.587785 0.809017 -0
    outer loop
      vertex 30.1109 33.4415 -0.5
      vertex 22.5 38.9711 0.5
      vertex 30.1109 33.4415 0.5
    endloop
  endfacet
  facet normal 0.587785 0.809017 0
    outer loop
      vertex 22.5 38.9711 0.5
      vertex 30.1109 33.4415 -0.5
      vertex 22.5 38.9711 -0.5
    endloop
  endfacet
  facet normal -0.866026 0.5 0
    outer loop
      vertex -41.1095 18.3031 -0.5
      vertex -36.4058 26.4503 0.5
      vertex -36.4058 26.4503 -0.5
    endloop
  endfacet
  facet normal -0.866026 0.5 0
    outer loop
      vertex -36.4058 26.4503 0.5
      vertex -41.1095 18.3031 -0.5
      vertex -41.1095 18.3031 0.5
    endloop
  endfacet
  facet normal -0.743145 0.669131 0
    outer loop
      vertex -36.4058 26.4503 -0.5
      vertex -30.1109 33.4415 0.5
      vertex -30.1109 33.4415 -0.5
    endloop
  endfacet
  facet normal -0.743145 0.669131 0
    outer loop
      vertex -30.1109 33.4415 0.5
      vertex -36.4058 26.4503 -0.5
      vertex -36.4058 26.4503 0.5
    endloop
  endfacet
  facet normal -0.951057 0.309017 0
    outer loop
      vertex -44.0166 9.35603 -0.5
      vertex -41.1095 18.3031 0.5
      vertex -41.1095 18.3031 -0.5
    endloop
  endfacet
  facet normal -0.951057 0.309017 0
    outer loop
      vertex -41.1095 18.3031 0.5
      vertex -44.0166 9.35603 -0.5
      vertex -44.0166 9.35603 0.5
    endloop
  endfacet
  facet normal 0 0 1
    outer loop
      vertex -26.4104 -30.8652 0.5
      vertex -30.1109 -33.4415 0.5
      vertex -29.2389 -33.6936 0.5
    endloop
  endfacet
  facet normal 0 0 1
    outer loop
      vertex -32.2794 -24.9962 0.5
      vertex -30.1109 -33.4415 0.5
      vertex -26.4104 -30.8652 0.5
    endloop
  endfacet
  facet normal -0 0 1
    outer loop
      vertex -35.1079 -27.8247 0.5
      vertex -30.1109 -33.4415 0.5
      vertex -32.2794 -24.9962 0.5
    endloop
  endfacet
  facet normal 0 0 1
    outer loop
      vertex -30.1109 -33.4415 0.5
      vertex -35.1079 -27.8247 0.5
      vertex -35.715 -27.2175 0.5
    endloop
  endfacet
  facet normal 0 0 1
    outer loop
      vertex -17 -25 0.5
      vertex -20.8596 -27.9307 0.5
      vertex -20.5 -32 0.5
    endloop
  endfacet
  facet normal 0 0 1
    outer loop
      vertex -17 25 0.5
      vertex -23.2135 31.1183 0.5
      vertex -17 20 0.5
    endloop
  endfacet
  facet normal 0 0 1
    outer loop
      vertex -17 20 0.5
      vertex -23.2135 31.1183 0.5
      vertex -36.4058 26.4503 0.5
    endloop
  endfacet
  facet normal 0 0 1
    outer loop
      vertex -17 20 0.5
      vertex -29.3449 -19.4454 0.5
      vertex -20.8596 -27.9307 0.5
    endloop
  endfacet
  facet normal -0 0 1
    outer loop
      vertex -17 20 0.5
      vertex -5 -20 0.5
      vertex -5 20 0.5
    endloop
  endfacet
  facet normal 0 0 1
    outer loop
      vertex -5 -20 0.5
      vertex -17 20 0.5
      vertex -17 -20 0.5
    endloop
  endfacet
  facet normal 0 0 1
    outer loop
      vertex -5 -20 0.5
      vertex 8.78648 -8.11832 0.5
      vertex -5 20 0.5
    endloop
  endfacet
  facet normal 0 0 1
    outer loop
      vertex -5 -25 0.5
      vertex 8.78648 -8.11832 0.5
      vertex -5 -20 0.5
    endloop
  endfacet
  facet normal 0 0 1
    outer loop
      vertex 8.78648 -8.11832 0.5
      vertex -5 -25 0.5
      vertex -4.70378 -44.7535 0.5
    endloop
  endfacet
  facet normal 0 0 1
    outer loop
      vertex -5 -25 0.5
      vertex -13.9058 -42.7975 0.5
      vertex -4.70378 -44.7535 0.5
    endloop
  endfacet
  facet normal 0 0 1
    outer loop
      vertex -20.5 -32 0.5
      vertex -5 -25 0.5
      vertex -17 -25 0.5
    endloop
  endfacet
  facet normal 0 0 1
    outer loop
      vertex -20.8596 -27.9307 0.5
      vertex -17 -25 0.5
      vertex -17 -20 0.5
    endloop
  endfacet
  facet normal 0 0 1
    outer loop
      vertex -5 -25 0.5
      vertex -20.5 -32 0.5
      vertex -13.9058 -42.7975 0.5
    endloop
  endfacet
  facet normal -0 0 1
    outer loop
      vertex -21.5365 -33.4266 0.5
      vertex -13.9058 -42.7975 0.5
      vertex -20.5 -32 0.5
    endloop
  endfacet
  facet normal 0 0 1
    outer loop
      vertex -21.5365 -33.4266 0.5
      vertex -22.5 -38.9711 0.5
      vertex -13.9058 -42.7975 0.5
    endloop
  endfacet
  facet normal 0 0 1
    outer loop
      vertex -23.2135 -32.8817 0.5
      vertex -22.5 -38.9711 0.5
      vertex -21.5365 -33.4266 0.5
    endloop
  endfacet
  facet normal -0 0 1
    outer loop
      vertex -27.9307 -35.0018 0.5
      vertex -22.5 -38.9711 0.5
      vertex -23.2135 -32.8817 0.5
    endloop
  endfacet
  facet normal 0 0 1
    outer loop
      vertex -27.9307 -35.0018 0.5
      vertex -30.1109 -33.4415 0.5
      vertex -22.5 -38.9711 0.5
    endloop
  endfacet
  facet normal 0 0 1
    outer loop
      vertex -30.1109 -33.4415 0.5
      vertex -27.9307 -35.0018 0.5
      vertex -29.2389 -33.6936 0.5
    endloop
  endfacet
  facet normal 0 0 1
    outer loop
      vertex -20.8596 -27.9307 0.5
      vertex -21.5365 -30.5734 0.5
      vertex -20.5 -32 0.5
    endloop
  endfacet
  facet normal 0 0 1
    outer loop
      vertex -20.8596 -27.9307 0.5
      vertex -23.2135 -31.1183 0.5
      vertex -21.5365 -30.5734 0.5
    endloop
  endfacet
  facet normal 0 0 1
    outer loop
      vertex -23.2135 -31.1183 0.5
      vertex -27.9307 -35.0018 0.5
      vertex -23.2135 -32.8817 0.5
    endloop
  endfacet
  facet normal 0 0 1
    outer loop
      vertex -27.9307 -35.0018 0.5
      vertex -23.2135 -31.1183 0.5
      vertex -20.8596 -27.9307 0.5
    endloop
  endfacet
  facet normal -0 0 1
    outer loop
      vertex 10.4635 -7.57341 0.5
      vertex 21.7865 -8.11832 0.5
      vertex 10.4635 7.57341 0.5
    endloop
  endfacet
  facet normal 0 0 1
    outer loop
      vertex 21.7865 -8.11832 0.5
      vertex 10.4635 -7.57341 0.5
      vertex 11.5 -9 0.5
    endloop
  endfacet
  facet normal 0 0 1
    outer loop
      vertex 8.78648 8.11832 0.5
      vertex 10.4635 -7.57341 0.5
      vertex 10.4635 7.57341 0.5
    endloop
  endfacet
  facet normal 0 0 1
    outer loop
      vertex 10.4635 -7.57341 0.5
      vertex 8.78648 8.11832 0.5
      vertex 8.78648 -8.11832 0.5
    endloop
  endfacet
  facet normal 0 0 1
    outer loop
      vertex 8.78648 -9.88168 0.5
      vertex 17.25 -21.75 0.5
      vertex 10.4635 -10.4266 0.5
    endloop
  endfacet
  facet normal 0 0 1
    outer loop
      vertex 17.25 -21.75 0.5
      vertex 8.78648 -9.88168 0.5
      vertex 17.25 -24.25 0.5
    endloop
  endfacet
  facet normal 0 0 1
    outer loop
      vertex 17.25 -24.25 0.5
      vertex 8.78648 -9.88168 0.5
      vertex 4.70378 -44.7535 0.5
    endloop
  endfacet
  facet normal 0 0 1
    outer loop
      vertex 17.25 -24.25 0.5
      vertex 4.70378 -44.7535 0.5
      vertex 13.9058 -42.7975 0.5
    endloop
  endfacet
  facet normal 0 0 1
    outer loop
      vertex 8.78648 -8.11832 0.5
      vertex 4.70378 -44.7535 0.5
      vertex 8.78648 -9.88168 0.5
    endloop
  endfacet
  facet normal 0 0 1
    outer loop
      vertex -5 25 0.5
      vertex 4.70378 44.7535 0.5
      vertex -4.70378 44.7535 0.5
    endloop
  endfacet
  facet normal 0 0 1
    outer loop
      vertex 8.78648 8.11832 0.5
      vertex -5 20 0.5
      vertex 8.78648 -8.11832 0.5
    endloop
  endfacet
  facet normal 0 0 1
    outer loop
      vertex 8.78648 -8.11832 0.5
      vertex -4.70378 -44.7535 0.5
      vertex 4.70378 -44.7535 0.5
    endloop
  endfacet
  facet normal -0 0 1
    outer loop
      vertex -13.9058 42.7975 0.5
      vertex -5 25 0.5
      vertex -4.70378 44.7535 0.5
    endloop
  endfacet
  facet normal -0 0 1
    outer loop
      vertex -20.5 32 0.5
      vertex -5 25 0.5
      vertex -13.9058 42.7975 0.5
    endloop
  endfacet
  facet normal -0 0 1
    outer loop
      vertex -21.5365 30.5734 0.5
      vertex -17 25 0.5
      vertex -20.5 32 0.5
    endloop
  endfacet
  facet normal 0 0 1
    outer loop
      vertex -23.2135 31.1183 0.5
      vertex -17 25 0.5
      vertex -21.5365 30.5734 0.5
    endloop
  endfacet
  facet normal 0 0 1
    outer loop
      vertex -17 20 0.5
      vertex -20.8596 -27.9307 0.5
      vertex -17 -20 0.5
    endloop
  endfacet
  facet normal 0 0 1
    outer loop
      vertex -5 25 0.5
      vertex -20.5 32 0.5
      vertex -17 25 0.5
    endloop
  endfacet
  facet normal 0 0 1
    outer loop
      vertex -13.9058 42.7975 0.5
      vertex -21.5365 33.4266 0.5
      vertex -20.5 32 0.5
    endloop
  endfacet
  facet normal -0 0 1
    outer loop
      vertex -22.5 38.9711 0.5
      vertex -21.5365 33.4266 0.5
      vertex -13.9058 42.7975 0.5
    endloop
  endfacet
  facet normal 0 0 1
    outer loop
      vertex -22.5 38.9711 0.5
      vertex -23.2135 32.8817 0.5
      vertex -21.5365 33.4266 0.5
    endloop
  endfacet
  facet normal 0 0 1
    outer loop
      vertex -30.1109 33.4415 0.5
      vertex -23.2135 31.1183 0.5
      vertex -23.2135 32.8817 0.5
    endloop
  endfacet
  facet normal -0 0 1
    outer loop
      vertex -30.1109 33.4415 0.5
      vertex -23.2135 32.8817 0.5
      vertex -22.5 38.9711 0.5
    endloop
  endfacet
  facet normal 0 0 1
    outer loop
      vertex -23.2135 31.1183 0.5
      vertex -30.1109 33.4415 0.5
      vertex -36.4058 26.4503 0.5
    endloop
  endfacet
  facet normal 0 0 1
    outer loop
      vertex -17 20 0.5
      vertex -36.4058 26.4503 0.5
      vertex -41.1095 18.3031 0.5
    endloop
  endfacet
  facet normal 0 0 1
    outer loop
      vertex -17 20 0.5
      vertex -41.1095 18.3031 0.5
      vertex -44.0166 9.35603 0.5
    endloop
  endfacet
  facet normal 0 0 1
    outer loop
      vertex -45 0 0.5
      vertex -17 20 0.5
      vertex -44.0166 9.35603 0.5
    endloop
  endfacet
  facet normal 0 -0 1
    outer loop
      vertex -36.4058 -26.4503 0.5
      vertex -29.3449 -19.4454 0.5
      vertex -41.1095 -18.3031 0.5
    endloop
  endfacet
  facet normal 0 0 1
    outer loop
      vertex -29.3449 -19.4454 0.5
      vertex -36.4058 -26.4503 0.5
      vertex -36.3793 -26.4798 0.5
    endloop
  endfacet
  facet normal 0 0 1
    outer loop
      vertex -17 20 0.5
      vertex -45 0 0.5
      vertex -29.3449 -19.4454 0.5
    endloop
  endfacet
  facet normal 0 0 1
    outer loop
      vertex -29.3449 -19.4454 0.5
      vertex -44.0166 -9.35603 0.5
      vertex -41.1095 -18.3031 0.5
    endloop
  endfacet
  facet normal 0 0 1
    outer loop
      vertex -29.3449 -19.4454 0.5
      vertex -45 0 0.5
      vertex -44.0166 -9.35603 0.5
    endloop
  endfacet
  facet normal 0 0 1
    outer loop
      vertex 21.7865 -9.88168 0.5
      vertex 22.75 -21.75 0.5
      vertex 23.4635 -10.4266 0.5
    endloop
  endfacet
  facet normal 0 0 1
    outer loop
      vertex 21.7865 8.11832 0.5
      vertex 10.4635 7.57341 0.5
      vertex 21.7865 -8.11832 0.5
    endloop
  endfacet
  facet normal 0 0 1
    outer loop
      vertex 21.7865 -8.11832 0.5
      vertex 11.5 -9 0.5
      vertex 21.7865 -9.88168 0.5
    endloop
  endfacet
  facet normal 0 0 1
    outer loop
      vertex 41.1095 -18.3031 0.5
      vertex 22.75 -21.75 0.5
      vertex 36.4058 -26.4503 0.5
    endloop
  endfacet
  facet normal -0 0 1
    outer loop
      vertex 22.75 -24.25 0.5
      vertex 36.4058 -26.4503 0.5
      vertex 22.75 -21.75 0.5
    endloop
  endfacet
  facet normal 0 0 1
    outer loop
      vertex 36.4058 -26.4503 0.5
      vertex 22.75 -24.25 0.5
      vertex 23.5 -32 0.5
    endloop
  endfacet
  facet normal 0 0 1
    outer loop
      vertex 22.75 -24.25 0.5
      vertex 22.4635 -30.5734 0.5
      vertex 23.5 -32 0.5
    endloop
  endfacet
  facet normal 0 0 1
    outer loop
      vertex 22.75 -24.25 0.5
      vertex 20.7865 -31.1183 0.5
      vertex 22.4635 -30.5734 0.5
    endloop
  endfacet
  facet normal 0 0 1
    outer loop
      vertex 20.7865 -31.1183 0.5
      vertex 17.25 -24.25 0.5
      vertex 20.7865 -32.8817 0.5
    endloop
  endfacet
  facet normal -0 0 1
    outer loop
      vertex 17.25 -24.25 0.5
      vertex 20.7865 -31.1183 0.5
      vertex 22.75 -24.25 0.5
    endloop
  endfacet
  facet normal 0 0 1
    outer loop
      vertex 23.4635 -7.57341 0.5
      vertex 45 0 0.5
      vertex 23.4635 7.57341 0.5
    endloop
  endfacet
  facet normal 0 0 1
    outer loop
      vertex 45 0 0.5
      vertex 23.4635 -7.57341 0.5
      vertex 24.5 -9 0.5
    endloop
  endfacet
  facet normal 0 0 1
    outer loop
      vertex 21.7865 8.11832 0.5
      vertex 23.4635 -7.57341 0.5
      vertex 23.4635 7.57341 0.5
    endloop
  endfacet
  facet normal 0 0 1
    outer loop
      vertex 23.4635 -7.57341 0.5
      vertex 21.7865 8.11832 0.5
      vertex 21.7865 -8.11832 0.5
    endloop
  endfacet
  facet normal -0 0 1
    outer loop
      vertex 24.5 9 0.5
      vertex 45 0 0.5
      vertex 44.0166 9.35603 0.5
    endloop
  endfacet
  facet normal 0 0 1
    outer loop
      vertex 24.5 9 0.5
      vertex 44.0166 9.35603 0.5
      vertex 41.1095 18.3031 0.5
    endloop
  endfacet
  facet normal -0 0 1
    outer loop
      vertex 23.4635 7.57341 0.5
      vertex 45 0 0.5
      vertex 24.5 9 0.5
    endloop
  endfacet
  facet normal -0 0 1
    outer loop
      vertex 22.75 21.75 0.5
      vertex 41.1095 18.3031 0.5
      vertex 36.4058 26.4503 0.5
    endloop
  endfacet
  facet normal 0 0 1
    outer loop
      vertex 45 0 0.5
      vertex 24.5 -9 0.5
      vertex 44.0166 -9.35603 0.5
    endloop
  endfacet
  facet normal 0 0 1
    outer loop
      vertex 22.75 24.25 0.5
      vertex 36.4058 26.4503 0.5
      vertex 30.1109 33.4415 0.5
    endloop
  endfacet
  facet normal 0 0 1
    outer loop
      vertex 44.0166 -9.35603 0.5
      vertex 24.5 -9 0.5
      vertex 41.1095 -18.3031 0.5
    endloop
  endfacet
  facet normal -0 0 1
    outer loop
      vertex 23.4635 -10.4266 0.5
      vertex 41.1095 -18.3031 0.5
      vertex 24.5 -9 0.5
    endloop
  endfacet
  facet normal 0 0 1
    outer loop
      vertex 22.75 24.25 0.5
      vertex 30.1109 33.4415 0.5
      vertex 23.5 32 0.5
    endloop
  endfacet
  facet normal 0 0 1
    outer loop
      vertex 22.4635 33.4266 0.5
      vertex 30.1109 33.4415 0.5
      vertex 22.5 38.9711 0.5
    endloop
  endfacet
  facet normal 0 0 1
    outer loop
      vertex 30.1109 33.4415 0.5
      vertex 22.4635 33.4266 0.5
      vertex 23.5 32 0.5
    endloop
  endfacet
  facet normal 0 0 1
    outer loop
      vertex 22.5 38.9711 0.5
      vertex 20.7865 32.8817 0.5
      vertex 22.4635 33.4266 0.5
    endloop
  endfacet
  facet normal 0 0 1
    outer loop
      vertex 20.7865 32.8817 0.5
      vertex 17.25 24.25 0.5
      vertex 20.7865 31.1183 0.5
    endloop
  endfacet
  facet normal 0 0 1
    outer loop
      vertex 13.9058 42.7975 0.5
      vertex 20.7865 32.8817 0.5
      vertex 22.5 38.9711 0.5
    endloop
  endfacet
  facet normal 0 0 1
    outer loop
      vertex -5 25 0.5
      vertex 17.25 21.75 0.5
      vertex 17.25 24.25 0.5
    endloop
  endfacet
  facet normal 0 0 1
    outer loop
      vertex 21.7865 -9.88168 0.5
      vertex 17.25 -21.75 0.5
      vertex 22.75 -21.75 0.5
    endloop
  endfacet
  facet normal 0 0 1
    outer loop
      vertex 4.70378 44.7535 0.5
      vertex 17.25 24.25 0.5
      vertex 13.9058 42.7975 0.5
    endloop
  endfacet
  facet normal 0 0 1
    outer loop
      vertex 20.7865 32.8817 0.5
      vertex 13.9058 42.7975 0.5
      vertex 17.25 24.25 0.5
    endloop
  endfacet
  facet normal 0 0 1
    outer loop
      vertex 22.75 -21.75 0.5
      vertex 41.1095 -18.3031 0.5
      vertex 23.4635 -10.4266 0.5
    endloop
  endfacet
  facet normal 0 0 1
    outer loop
      vertex 36.4058 -26.4503 0.5
      vertex 23.5 -32 0.5
      vertex 30.1109 -33.4415 0.5
    endloop
  endfacet
  facet normal -0 0 1
    outer loop
      vertex 22.4635 -33.4266 0.5
      vertex 30.1109 -33.4415 0.5
      vertex 23.5 -32 0.5
    endloop
  endfacet
  facet normal 0 0 1
    outer loop
      vertex 30.1109 -33.4415 0.5
      vertex 22.4635 -33.4266 0.5
      vertex 22.5 -38.9711 0.5
    endloop
  endfacet
  facet normal 0 0 1
    outer loop
      vertex 20.7865 -32.8817 0.5
      vertex 22.5 -38.9711 0.5
      vertex 22.4635 -33.4266 0.5
    endloop
  endfacet
  facet normal 0 0 1
    outer loop
      vertex 13.9058 -42.7975 0.5
      vertex 20.7865 -32.8817 0.5
      vertex 17.25 -24.25 0.5
    endloop
  endfacet
  facet normal 0 0 1
    outer loop
      vertex 20.7865 -32.8817 0.5
      vertex 13.9058 -42.7975 0.5
      vertex 22.5 -38.9711 0.5
    endloop
  endfacet
  facet normal 0 0 1
    outer loop
      vertex 10.4635 -10.4266 0.5
      vertex 21.7865 -9.88168 0.5
      vertex 11.5 -9 0.5
    endloop
  endfacet
  facet normal 0 0 1
    outer loop
      vertex 21.7865 -9.88168 0.5
      vertex 10.4635 -10.4266 0.5
      vertex 17.25 -21.75 0.5
    endloop
  endfacet
  facet normal 0 0 1
    outer loop
      vertex 17.25 21.75 0.5
      vertex 10.4635 10.4266 0.5
      vertex 11.5 9 0.5
    endloop
  endfacet
  facet normal -0 0 1
    outer loop
      vertex -5 25 0.5
      vertex 17.25 24.25 0.5
      vertex 4.70378 44.7535 0.5
    endloop
  endfacet
  facet normal 0 0 1
    outer loop
      vertex -5 20 0.5
      vertex 17.25 21.75 0.5
      vertex -5 25 0.5
    endloop
  endfacet
  facet normal 0 0 1
    outer loop
      vertex 17.25 21.75 0.5
      vertex -5 20 0.5
      vertex 8.78648 9.88168 0.5
    endloop
  endfacet
  facet normal 0 0 1
    outer loop
      vertex 8.78648 9.88168 0.5
      vertex -5 20 0.5
      vertex 8.78648 8.11832 0.5
    endloop
  endfacet
  facet normal 0 0 1
    outer loop
      vertex 17.25 21.75 0.5
      vertex 8.78648 9.88168 0.5
      vertex 10.4635 10.4266 0.5
    endloop
  endfacet
  facet normal 0 0 1
    outer loop
      vertex 41.1095 18.3031 0.5
      vertex 22.75 21.75 0.5
      vertex 23.4635 10.4266 0.5
    endloop
  endfacet
  facet normal 0 0 1
    outer loop
      vertex 36.4058 26.4503 0.5
      vertex 22.75 24.25 0.5
      vertex 22.75 21.75 0.5
    endloop
  endfacet
  facet normal -0 0 1
    outer loop
      vertex 22.4635 30.5734 0.5
      vertex 22.75 24.25 0.5
      vertex 23.5 32 0.5
    endloop
  endfacet
  facet normal 0 0 1
    outer loop
      vertex 20.7865 31.1183 0.5
      vertex 22.75 24.25 0.5
      vertex 22.4635 30.5734 0.5
    endloop
  endfacet
  facet normal 0 0 1
    outer loop
      vertex 22.75 24.25 0.5
      vertex 20.7865 31.1183 0.5
      vertex 17.25 24.25 0.5
    endloop
  endfacet
  facet normal 0 0 1
    outer loop
      vertex 41.1095 18.3031 0.5
      vertex 23.4635 10.4266 0.5
      vertex 24.5 9 0.5
    endloop
  endfacet
  facet normal 0 0 1
    outer loop
      vertex 22.75 21.75 0.5
      vertex 21.7865 9.88168 0.5
      vertex 23.4635 10.4266 0.5
    endloop
  endfacet
  facet normal 0 0 1
    outer loop
      vertex 11.5 9 0.5
      vertex 21.7865 9.88168 0.5
      vertex 17.25 21.75 0.5
    endloop
  endfacet
  facet normal 0 0 1
    outer loop
      vertex 21.7865 9.88168 0.5
      vertex 11.5 9 0.5
      vertex 21.7865 8.11832 0.5
    endloop
  endfacet
  facet normal 0 0 1
    outer loop
      vertex 10.4635 7.57341 0.5
      vertex 21.7865 8.11832 0.5
      vertex 11.5 9 0.5
    endloop
  endfacet
  facet normal -0 0 1
    outer loop
      vertex 17.25 21.75 0.5
      vertex 21.7865 9.88168 0.5
      vertex 22.75 21.75 0.5
    endloop
  endfacet
  facet normal -0.406737 0.913545 0
    outer loop
      vertex -13.9058 42.7975 -0.5
      vertex -22.5 38.9711 0.5
      vertex -13.9058 42.7975 0.5
    endloop
  endfacet
  facet normal -0.406737 0.913545 0
    outer loop
      vertex -22.5 38.9711 0.5
      vertex -13.9058 42.7975 -0.5
      vertex -22.5 38.9711 -0.5
    endloop
  endfacet
  facet normal 0.994522 -0.104529 0
    outer loop
      vertex 44.0166 -9.35603 0.5
      vertex 45 0 -0.5
      vertex 45 0 0.5
    endloop
  endfacet
  facet normal 0.994522 -0.104529 0
    outer loop
      vertex 45 0 -0.5
      vertex 44.0166 -9.35603 0.5
      vertex 44.0166 -9.35603 -0.5
    endloop
  endfacet
  facet normal 0 0 -1
    outer loop
      vertex -35.715 -27.2175 -0.5
      vertex -36.416 -26.5165 -0.5
      vertex -36.3793 -26.4798 -0.5
    endloop
  endfacet
  facet normal 0 0 -1
    outer loop
      vertex -45 0 -0.5
      vertex -17 -20 -0.5
      vertex -44.0166 -9.35603 -0.5
    endloop
  endfacet
  facet normal 0 0 -1
    outer loop
      vertex -17 20 -0.5
      vertex -21.5365 30.5734 -0.5
      vertex -20.5 32 -0.5
    endloop
  endfacet
  facet normal 0 0 -1
    outer loop
      vertex -35.715 -27.2175 -0.5
      vertex -21.5365 -30.5734 -0.5
      vertex -23.2135 -31.1183 -0.5
    endloop
  endfacet
  facet normal 0 -0 -1
    outer loop
      vertex -44.0166 9.35603 -0.5
      vertex -17 20 -0.5
      vertex -45 0 -0.5
    endloop
  endfacet
  facet normal 0 0 -1
    outer loop
      vertex -17 -20 -0.5
      vertex -5 20 -0.5
      vertex -5 -20 -0.5
    endloop
  endfacet
  facet normal -0 0 -1
    outer loop
      vertex -5 20 -0.5
      vertex -17 -20 -0.5
      vertex -17 20 -0.5
    endloop
  endfacet
  facet normal 0 0 -1
    outer loop
      vertex -5 20 -0.5
      vertex 8.78648 8.11832 -0.5
      vertex -5 -20 -0.5
    endloop
  endfacet
  facet normal 0 0 -1
    outer loop
      vertex -5 25 -0.5
      vertex 8.78648 8.11832 -0.5
      vertex -5 20 -0.5
    endloop
  endfacet
  facet normal 0 0 -1
    outer loop
      vertex 8.78648 8.11832 -0.5
      vertex -5 25 -0.5
      vertex -4.70378 44.7535 -0.5
    endloop
  endfacet
  facet normal 0 0 -1
    outer loop
      vertex -5 25 -0.5
      vertex -13.9058 42.7975 -0.5
      vertex -4.70378 44.7535 -0.5
    endloop
  endfacet
  facet normal 0 0 -1
    outer loop
      vertex -20.5 32 -0.5
      vertex -5 25 -0.5
      vertex -17 25 -0.5
    endloop
  endfacet
  facet normal 0 0 -1
    outer loop
      vertex -17 20 -0.5
      vertex -20.5 32 -0.5
      vertex -17 25 -0.5
    endloop
  endfacet
  facet normal 0 0 -1
    outer loop
      vertex -5 25 -0.5
      vertex -20.5 32 -0.5
      vertex -13.9058 42.7975 -0.5
    endloop
  endfacet
  facet normal 0 0 -1
    outer loop
      vertex -21.5365 33.4266 -0.5
      vertex -13.9058 42.7975 -0.5
      vertex -20.5 32 -0.5
    endloop
  endfacet
  facet normal 0 0 -1
    outer loop
      vertex -21.5365 33.4266 -0.5
      vertex -22.5 38.9711 -0.5
      vertex -13.9058 42.7975 -0.5
    endloop
  endfacet
  facet normal 0 0 -1
    outer loop
      vertex -23.2135 32.8817 -0.5
      vertex -22.5 38.9711 -0.5
      vertex -21.5365 33.4266 -0.5
    endloop
  endfacet
  facet normal 0 0 -1
    outer loop
      vertex -23.2135 32.8817 -0.5
      vertex -30.1109 33.4415 -0.5
      vertex -22.5 38.9711 -0.5
    endloop
  endfacet
  facet normal 0 0 -1
    outer loop
      vertex -23.2135 31.1183 -0.5
      vertex -30.1109 33.4415 -0.5
      vertex -23.2135 32.8817 -0.5
    endloop
  endfacet
  facet normal 0 0 -1
    outer loop
      vertex -21.5365 -30.5734 -0.5
      vertex -41.1095 -18.3031 -0.5
      vertex -44.0166 -9.35603 -0.5
    endloop
  endfacet
  facet normal 0 0 -1
    outer loop
      vertex -21.5365 -30.5734 -0.5
      vertex -36.3793 -26.4798 -0.5
      vertex -36.4058 -26.4503 -0.5
    endloop
  endfacet
  facet normal 0 0 -1
    outer loop
      vertex -21.5365 -30.5734 -0.5
      vertex -36.4058 -26.4503 -0.5
      vertex -41.1095 -18.3031 -0.5
    endloop
  endfacet
  facet normal -0 0 -1
    outer loop
      vertex -23.2135 31.1183 -0.5
      vertex -36.4058 26.4503 -0.5
      vertex -30.1109 33.4415 -0.5
    endloop
  endfacet
  facet normal 0 0 -1
    outer loop
      vertex -17 -20 -0.5
      vertex -45 0 -0.5
      vertex -17 20 -0.5
    endloop
  endfacet
  facet normal 0 0 -1
    outer loop
      vertex -17 20 -0.5
      vertex -23.2135 31.1183 -0.5
      vertex -21.5365 30.5734 -0.5
    endloop
  endfacet
  facet normal 0 -0 -1
    outer loop
      vertex -41.1095 18.3031 -0.5
      vertex -17 20 -0.5
      vertex -44.0166 9.35603 -0.5
    endloop
  endfacet
  facet normal 0 -0 -1
    outer loop
      vertex -23.2135 31.1183 -0.5
      vertex -17 20 -0.5
      vertex -36.4058 26.4503 -0.5
    endloop
  endfacet
  facet normal 0 -0 -1
    outer loop
      vertex -36.4058 26.4503 -0.5
      vertex -17 20 -0.5
      vertex -41.1095 18.3031 -0.5
    endloop
  endfacet
  facet normal -0 0 -1
    outer loop
      vertex 17.25 21.75 -0.5
      vertex 8.78648 9.88168 -0.5
      vertex 17.25 24.25 -0.5
    endloop
  endfacet
  facet normal -0 0 -1
    outer loop
      vertex 17.25 24.25 -0.5
      vertex 8.78648 9.88168 -0.5
      vertex 4.70378 44.7535 -0.5
    endloop
  endfacet
  facet normal 0 0 -1
    outer loop
      vertex 17.25 24.25 -0.5
      vertex 4.70378 44.7535 -0.5
      vertex 13.9058 42.7975 -0.5
    endloop
  endfacet
  facet normal 0 0 -1
    outer loop
      vertex 8.78648 8.11832 -0.5
      vertex 4.70378 44.7535 -0.5
      vertex 8.78648 9.88168 -0.5
    endloop
  endfacet
  facet normal 0 0 -1
    outer loop
      vertex -5 -25 -0.5
      vertex 4.70378 -44.7535 -0.5
      vertex -4.70378 -44.7535 -0.5
    endloop
  endfacet
  facet normal -0 0 -1
    outer loop
      vertex 10.4635 7.57341 -0.5
      vertex -5 -20 -0.5
      vertex 8.78648 8.11832 -0.5
    endloop
  endfacet
  facet normal 0 0 -1
    outer loop
      vertex 8.78648 8.11832 -0.5
      vertex -4.70378 44.7535 -0.5
      vertex 4.70378 44.7535 -0.5
    endloop
  endfacet
  facet normal 0 0 -1
    outer loop
      vertex -13.9058 -42.7975 -0.5
      vertex -5 -25 -0.5
      vertex -4.70378 -44.7535 -0.5
    endloop
  endfacet
  facet normal 0 0 -1
    outer loop
      vertex -20.5 -32 -0.5
      vertex -5 -25 -0.5
      vertex -13.9058 -42.7975 -0.5
    endloop
  endfacet
  facet normal 0 0 -1
    outer loop
      vertex -21.5365 -30.5734 -0.5
      vertex -17 -25 -0.5
      vertex -20.5 -32 -0.5
    endloop
  endfacet
  facet normal -0 0 -1
    outer loop
      vertex -17 -25 -0.5
      vertex -21.5365 -30.5734 -0.5
      vertex -17 -20 -0.5
    endloop
  endfacet
  facet normal 0 0 -1
    outer loop
      vertex -44.0166 -9.35603 -0.5
      vertex -17 -20 -0.5
      vertex -21.5365 -30.5734 -0.5
    endloop
  endfacet
  facet normal -0 0 -1
    outer loop
      vertex -5 -25 -0.5
      vertex -20.5 -32 -0.5
      vertex -17 -25 -0.5
    endloop
  endfacet
  facet normal 0 0 -1
    outer loop
      vertex -13.9058 -42.7975 -0.5
      vertex -21.5365 -33.4266 -0.5
      vertex -20.5 -32 -0.5
    endloop
  endfacet
  facet normal 0 0 -1
    outer loop
      vertex -22.5 -38.9711 -0.5
      vertex -21.5365 -33.4266 -0.5
      vertex -13.9058 -42.7975 -0.5
    endloop
  endfacet
  facet normal 0 0 -1
    outer loop
      vertex -22.5 -38.9711 -0.5
      vertex -23.2135 -32.8817 -0.5
      vertex -21.5365 -33.4266 -0.5
    endloop
  endfacet
  facet normal 0 0 -1
    outer loop
      vertex -30.1109 -33.4415 -0.5
      vertex -23.2135 -31.1183 -0.5
      vertex -23.2135 -32.8817 -0.5
    endloop
  endfacet
  facet normal 0 0 -1
    outer loop
      vertex -35.715 -27.2175 -0.5
      vertex -23.2135 -31.1183 -0.5
      vertex -30.1109 -33.4415 -0.5
    endloop
  endfacet
  facet normal 0 0 -1
    outer loop
      vertex -21.5365 -30.5734 -0.5
      vertex -35.715 -27.2175 -0.5
      vertex -36.3793 -26.4798 -0.5
    endloop
  endfacet
  facet normal 0 0 -1
    outer loop
      vertex -30.1109 -33.4415 -0.5
      vertex -23.2135 -32.8817 -0.5
      vertex -22.5 -38.9711 -0.5
    endloop
  endfacet
  facet normal 0 0 -1
    outer loop
      vertex 11.5 9 -0.5
      vertex 23.4635 -7.57341 -0.5
      vertex 21.7865 -8.11832 -0.5
    endloop
  endfacet
  facet normal 0 0 -1
    outer loop
      vertex -5 -20 -0.5
      vertex 21.7865 -8.11832 -0.5
      vertex 21.7865 -9.88168 -0.5
    endloop
  endfacet
  facet normal 0 0 -1
    outer loop
      vertex 23.4635 -7.57341 -0.5
      vertex 11.5 9 -0.5
      vertex 22.75 21.75 -0.5
    endloop
  endfacet
  facet normal 0 0 -1
    outer loop
      vertex 44.0166 9.35603 -0.5
      vertex 22.75 21.75 -0.5
      vertex 41.1095 18.3031 -0.5
    endloop
  endfacet
  facet normal 0 0 -1
    outer loop
      vertex 22.75 24.25 -0.5
      vertex 41.1095 18.3031 -0.5
      vertex 22.75 21.75 -0.5
    endloop
  endfacet
  facet normal 0 0 -1
    outer loop
      vertex 41.1095 18.3031 -0.5
      vertex 22.75 24.25 -0.5
      vertex 23.5 32 -0.5
    endloop
  endfacet
  facet normal 0 0 -1
    outer loop
      vertex 22.75 24.25 -0.5
      vertex 22.4635 30.5734 -0.5
      vertex 23.5 32 -0.5
    endloop
  endfacet
  facet normal 0 0 -1
    outer loop
      vertex 22.75 24.25 -0.5
      vertex 20.7865 31.1183 -0.5
      vertex 22.4635 30.5734 -0.5
    endloop
  endfacet
  facet normal -0 0 -1
    outer loop
      vertex 20.7865 31.1183 -0.5
      vertex 17.25 24.25 -0.5
      vertex 20.7865 32.8817 -0.5
    endloop
  endfacet
  facet normal 0 0 -1
    outer loop
      vertex 17.25 24.25 -0.5
      vertex 20.7865 31.1183 -0.5
      vertex 22.75 24.25 -0.5
    endloop
  endfacet
  facet normal 0 0 -1
    outer loop
      vertex 24.5 -9 -0.5
      vertex 45 0 -0.5
      vertex 44.0166 -9.35603 -0.5
    endloop
  endfacet
  facet normal 0 0 -1
    outer loop
      vertex 24.5 -9 -0.5
      vertex 44.0166 -9.35603 -0.5
      vertex 41.1095 -18.3031 -0.5
    endloop
  endfacet
  facet normal 0 0 -1
    outer loop
      vertex 23.4635 -7.57341 -0.5
      vertex 45 0 -0.5
      vertex 24.5 -9 -0.5
    endloop
  endfacet
  facet normal 0 0 -1
    outer loop
      vertex 22.75 -21.75 -0.5
      vertex 41.1095 -18.3031 -0.5
      vertex 36.4058 -26.4503 -0.5
    endloop
  endfacet
  facet normal -0 0 -1
    outer loop
      vertex 45 0 -0.5
      vertex 23.4635 -7.57341 -0.5
      vertex 44.0166 9.35603 -0.5
    endloop
  endfacet
  facet normal 0 0 -1
    outer loop
      vertex 22.75 -24.25 -0.5
      vertex 36.4058 -26.4503 -0.5
      vertex 30.1109 -33.4415 -0.5
    endloop
  endfacet
  facet normal 0 0 -1
    outer loop
      vertex 22.75 21.75 -0.5
      vertex 44.0166 9.35603 -0.5
      vertex 23.4635 -7.57341 -0.5
    endloop
  endfacet
  facet normal 0 0 -1
    outer loop
      vertex 41.1095 18.3031 -0.5
      vertex 23.5 32 -0.5
      vertex 36.4058 26.4503 -0.5
    endloop
  endfacet
  facet normal 0 0 -1
    outer loop
      vertex 22.75 -24.25 -0.5
      vertex 30.1109 -33.4415 -0.5
      vertex 23.5 -32 -0.5
    endloop
  endfacet
  facet normal 0 0 -1
    outer loop
      vertex 22.4635 -33.4266 -0.5
      vertex 30.1109 -33.4415 -0.5
      vertex 22.5 -38.9711 -0.5
    endloop
  endfacet
  facet normal 0 0 -1
    outer loop
      vertex 30.1109 -33.4415 -0.5
      vertex 22.4635 -33.4266 -0.5
      vertex 23.5 -32 -0.5
    endloop
  endfacet
  facet normal 0 0 -1
    outer loop
      vertex 22.5 -38.9711 -0.5
      vertex 20.7865 -32.8817 -0.5
      vertex 22.4635 -33.4266 -0.5
    endloop
  endfacet
  facet normal 0 0 -1
    outer loop
      vertex 20.7865 -32.8817 -0.5
      vertex 17.25 -24.25 -0.5
      vertex 20.7865 -31.1183 -0.5
    endloop
  endfacet
  facet normal 0 0 -1
    outer loop
      vertex 13.9058 -42.7975 -0.5
      vertex 20.7865 -32.8817 -0.5
      vertex 22.5 -38.9711 -0.5
    endloop
  endfacet
  facet normal 0 0 -1
    outer loop
      vertex -5 -25 -0.5
      vertex 17.25 -24.25 -0.5
      vertex 4.70378 -44.7535 -0.5
    endloop
  endfacet
  facet normal -0 0 -1
    outer loop
      vertex 22.75 21.75 -0.5
      vertex 11.5 9 -0.5
      vertex 17.25 21.75 -0.5
    endloop
  endfacet
  facet normal 0 0 -1
    outer loop
      vertex 4.70378 -44.7535 -0.5
      vertex 17.25 -24.25 -0.5
      vertex 13.9058 -42.7975 -0.5
    endloop
  endfacet
  facet normal -0 0 -1
    outer loop
      vertex 20.7865 -32.8817 -0.5
      vertex 13.9058 -42.7975 -0.5
      vertex 17.25 -24.25 -0.5
    endloop
  endfacet
  facet normal 0 0 -1
    outer loop
      vertex 36.4058 26.4503 -0.5
      vertex 23.5 32 -0.5
      vertex 30.1109 33.4415 -0.5
    endloop
  endfacet
  facet normal 0 0 -1
    outer loop
      vertex 22.4635 33.4266 -0.5
      vertex 30.1109 33.4415 -0.5
      vertex 23.5 32 -0.5
    endloop
  endfacet
  facet normal -0 0 -1
    outer loop
      vertex 30.1109 33.4415 -0.5
      vertex 22.4635 33.4266 -0.5
      vertex 22.5 38.9711 -0.5
    endloop
  endfacet
  facet normal 0 0 -1
    outer loop
      vertex 20.7865 32.8817 -0.5
      vertex 22.5 38.9711 -0.5
      vertex 22.4635 33.4266 -0.5
    endloop
  endfacet
  facet normal 0 0 -1
    outer loop
      vertex 13.9058 42.7975 -0.5
      vertex 20.7865 32.8817 -0.5
      vertex 17.25 24.25 -0.5
    endloop
  endfacet
  facet normal 0 0 -1
    outer loop
      vertex 20.7865 32.8817 -0.5
      vertex 13.9058 42.7975 -0.5
      vertex 22.5 38.9711 -0.5
    endloop
  endfacet
  facet normal 0 0 -1
    outer loop
      vertex 10.4635 10.4266 -0.5
      vertex 17.25 21.75 -0.5
      vertex 11.5 9 -0.5
    endloop
  endfacet
  facet normal 0 0 -1
    outer loop
      vertex 8.78648 9.88168 -0.5
      vertex 17.25 21.75 -0.5
      vertex 10.4635 10.4266 -0.5
    endloop
  endfacet
  facet normal 0 0 -1
    outer loop
      vertex 21.7865 -8.11832 -0.5
      vertex 10.4635 7.57341 -0.5
      vertex 11.5 9 -0.5
    endloop
  endfacet
  facet normal -0 0 -1
    outer loop
      vertex 17.25 -24.25 -0.5
      vertex -5 -25 -0.5
      vertex 17.25 -21.75 -0.5
    endloop
  endfacet
  facet normal 0 0 -1
    outer loop
      vertex 17.25 -21.75 -0.5
      vertex -5 -20 -0.5
      vertex 21.7865 -9.88168 -0.5
    endloop
  endfacet
  facet normal 0 0 -1
    outer loop
      vertex -5 -20 -0.5
      vertex 10.4635 7.57341 -0.5
      vertex 21.7865 -8.11832 -0.5
    endloop
  endfacet
  facet normal -0 0 -1
    outer loop
      vertex 41.1095 -18.3031 -0.5
      vertex 22.75 -21.75 -0.5
      vertex 23.4635 -10.4266 -0.5
    endloop
  endfacet
  facet normal 0 0 -1
    outer loop
      vertex 36.4058 -26.4503 -0.5
      vertex 22.75 -24.25 -0.5
      vertex 22.75 -21.75 -0.5
    endloop
  endfacet
  facet normal 0 0 -1
    outer loop
      vertex 22.4635 -30.5734 -0.5
      vertex 22.75 -24.25 -0.5
      vertex 23.5 -32 -0.5
    endloop
  endfacet
  facet normal 0 0 -1
    outer loop
      vertex 20.7865 -31.1183 -0.5
      vertex 22.75 -24.25 -0.5
      vertex 22.4635 -30.5734 -0.5
    endloop
  endfacet
  facet normal -0 0 -1
    outer loop
      vertex 22.75 -24.25 -0.5
      vertex 20.7865 -31.1183 -0.5
      vertex 17.25 -24.25 -0.5
    endloop
  endfacet
  facet normal 0 0 -1
    outer loop
      vertex 41.1095 -18.3031 -0.5
      vertex 23.4635 -10.4266 -0.5
      vertex 24.5 -9 -0.5
    endloop
  endfacet
  facet normal 0 0 -1
    outer loop
      vertex 22.75 -21.75 -0.5
      vertex 21.7865 -9.88168 -0.5
      vertex 23.4635 -10.4266 -0.5
    endloop
  endfacet
  facet normal 0 0 -1
    outer loop
      vertex -5 -20 -0.5
      vertex 17.25 -21.75 -0.5
      vertex -5 -25 -0.5
    endloop
  endfacet
  facet normal 0 0 -1
    outer loop
      vertex 17.25 -21.75 -0.5
      vertex 21.7865 -9.88168 -0.5
      vertex 22.75 -21.75 -0.5
    endloop
  endfacet
  facet normal 0.207912 -0.978148 0
    outer loop
      vertex 4.70378 -44.7535 -0.5
      vertex 13.9058 -42.7975 0.5
      vertex 4.70378 -44.7535 0.5
    endloop
  endfacet
  facet normal 0.207912 -0.978148 0
    outer loop
      vertex 13.9058 -42.7975 0.5
      vertex 4.70378 -44.7535 -0.5
      vertex 13.9058 -42.7975 -0.5
    endloop
  endfacet
  facet normal 0.743145 -0.669131 0
    outer loop
      vertex 30.1109 -33.4415 0.5
      vertex 36.4058 -26.4503 -0.5
      vertex 36.4058 -26.4503 0.5
    endloop
  endfacet
  facet normal 0.743145 -0.669131 0
    outer loop
      vertex 36.4058 -26.4503 -0.5
      vertex 30.1109 -33.4415 0.5
      vertex 30.1109 -33.4415 -0.5
    endloop
  endfacet
  facet normal 0.951057 -0.309017 0
    outer loop
      vertex 41.1095 -18.3031 0.5
      vertex 44.0166 -9.35603 -0.5
      vertex 44.0166 -9.35603 0.5
    endloop
  endfacet
  facet normal 0.951057 -0.309017 0
    outer loop
      vertex 44.0166 -9.35603 -0.5
      vertex 41.1095 -18.3031 0.5
      vertex 41.1095 -18.3031 -0.5
    endloop
  endfacet
  facet normal 0.866026 -0.5 0
    outer loop
      vertex 36.4058 -26.4503 0.5
      vertex 41.1095 -18.3031 -0.5
      vertex 41.1095 -18.3031 0.5
    endloop
  endfacet
  facet normal 0.866026 -0.5 0
    outer loop
      vertex 41.1095 -18.3031 -0.5
      vertex 36.4058 -26.4503 0.5
      vertex 36.4058 -26.4503 -0.5
    endloop
  endfacet
  facet normal -0.587785 -0.809017 0
    outer loop
      vertex -30.1109 -33.4415 -0.5
      vertex -22.5 -38.9711 0.5
      vertex -30.1109 -33.4415 0.5
    endloop
  endfacet
  facet normal -0.587785 -0.809017 -0
    outer loop
      vertex -22.5 -38.9711 0.5
      vertex -30.1109 -33.4415 -0.5
      vertex -22.5 -38.9711 -0.5
    endloop
  endfacet
  facet normal -0.866026 -0.5 0
    outer loop
      vertex -36.4058 -26.4503 -0.5
      vertex -41.1095 -18.3031 0.5
      vertex -41.1095 -18.3031 -0.5
    endloop
  endfacet
  facet normal -0.866026 -0.5 0
    outer loop
      vertex -41.1095 -18.3031 0.5
      vertex -36.4058 -26.4503 -0.5
      vertex -36.4058 -26.4503 0.5
    endloop
  endfacet
  facet normal 0.587785 -0.809017 0
    outer loop
      vertex 22.5 -38.9711 -0.5
      vertex 30.1109 -33.4415 0.5
      vertex 22.5 -38.9711 0.5
    endloop
  endfacet
  facet normal 0.587785 -0.809017 0
    outer loop
      vertex 30.1109 -33.4415 0.5
      vertex 22.5 -38.9711 -0.5
      vertex 30.1109 -33.4415 -0.5
    endloop
  endfacet
  facet normal 0.406737 -0.913545 0
    outer loop
      vertex 13.9058 -42.7975 -0.5
      vertex 22.5 -38.9711 0.5
      vertex 13.9058 -42.7975 0.5
    endloop
  endfacet
  facet normal 0.406737 -0.913545 0
    outer loop
      vertex 22.5 -38.9711 0.5
      vertex 13.9058 -42.7975 -0.5
      vertex 22.5 -38.9711 -0.5
    endloop
  endfacet
  facet normal -0.207912 -0.978148 0
    outer loop
      vertex -13.9058 -42.7975 -0.5
      vertex -4.70378 -44.7535 0.5
      vertex -13.9058 -42.7975 0.5
    endloop
  endfacet
  facet normal -0.207912 -0.978148 -0
    outer loop
      vertex -4.70378 -44.7535 0.5
      vertex -13.9058 -42.7975 -0.5
      vertex -4.70378 -44.7535 -0.5
    endloop
  endfacet
  facet normal -0.406737 -0.913545 0
    outer loop
      vertex -22.5 -38.9711 -0.5
      vertex -13.9058 -42.7975 0.5
      vertex -22.5 -38.9711 0.5
    endloop
  endfacet
  facet normal -0.406737 -0.913545 -0
    outer loop
      vertex -13.9058 -42.7975 0.5
      vertex -22.5 -38.9711 -0.5
      vertex -13.9058 -42.7975 -0.5
    endloop
  endfacet
  facet normal -0.743145 -0.66913 0
    outer loop
      vertex -30.1109 -33.4415 -0.5
      vertex -35.715 -27.2175 0.5
      vertex -35.715 -27.2175 -0.5
    endloop
  endfacet
  facet normal -0.743145 -0.66913 0
    outer loop
      vertex -35.715 -27.2175 0.5
      vertex -30.1109 -33.4415 -0.5
      vertex -30.1109 -33.4415 0.5
    endloop
  endfacet
  facet normal -0.743148 -0.669127 0
    outer loop
      vertex -36.3793 -26.4798 -0.5
      vertex -36.4058 -26.4503 0.5
      vertex -36.4058 -26.4503 -0.5
    endloop
  endfacet
  facet normal -0.743148 -0.669127 0
    outer loop
      vertex -36.4058 -26.4503 0.5
      vertex -36.3793 -26.4798 -0.5
      vertex -36.3793 -26.4798 0.5
    endloop
  endfacet
  facet normal -0.951057 -0.309017 0
    outer loop
      vertex -41.1095 -18.3031 -0.5
      vertex -44.0166 -9.35603 0.5
      vertex -44.0166 -9.35603 -0.5
    endloop
  endfacet
  facet normal -0.951057 -0.309017 0
    outer loop
      vertex -44.0166 -9.35603 0.5
      vertex -41.1095 -18.3031 -0.5
      vertex -41.1095 -18.3031 0.5
    endloop
  endfacet
  facet normal -0.994522 -0.104529 0
    outer loop
      vertex -44.0166 -9.35603 -0.5
      vertex -45 0 0.5
      vertex -45 0 -0.5
    endloop
  endfacet
  facet normal -0.994522 -0.104529 0
    outer loop
      vertex -45 0 0.5
      vertex -44.0166 -9.35603 -0.5
      vertex -44.0166 -9.35603 0.5
    endloop
  endfacet
  facet normal 1 -0 0
    outer loop
      vertex -17 -25 0.5
      vertex -17 -20 -0.5
      vertex -17 -20 0.5
    endloop
  endfacet
  facet normal 1 0 0
    outer loop
      vertex -17 -20 -0.5
      vertex -17 -25 0.5
      vertex -17 -25 -0.5
    endloop
  endfacet
  facet normal -1 0 0
    outer loop
      vertex -5 -25 -0.5
      vertex -5 -20 0.5
      vertex -5 -20 -0.5
    endloop
  endfacet
  facet normal -1 -0 0
    outer loop
      vertex -5 -20 0.5
      vertex -5 -25 -0.5
      vertex -5 -25 0.5
    endloop
  endfacet
  facet normal 0 -1 0
    outer loop
      vertex -17 -20 -0.5
      vertex -5 -20 0.5
      vertex -17 -20 0.5
    endloop
  endfacet
  facet normal 0 -1 -0
    outer loop
      vertex -5 -20 0.5
      vertex -17 -20 -0.5
      vertex -5 -20 -0.5
    endloop
  endfacet
  facet normal 0 1 -0
    outer loop
      vertex -5 -25 -0.5
      vertex -17 -25 0.5
      vertex -5 -25 0.5
    endloop
  endfacet
  facet normal 0 1 0
    outer loop
      vertex -17 -25 0.5
      vertex -5 -25 -0.5
      vertex -17 -25 -0.5
    endloop
  endfacet
  facet normal 1 -0 0
    outer loop
      vertex -17 20 0.5
      vertex -17 25 -0.5
      vertex -17 25 0.5
    endloop
  endfacet
  facet normal 1 0 0
    outer loop
      vertex -17 25 -0.5
      vertex -17 20 0.5
      vertex -17 20 -0.5
    endloop
  endfacet
  facet normal -1 0 0
    outer loop
      vertex -5 20 -0.5
      vertex -5 25 0.5
      vertex -5 25 -0.5
    endloop
  endfacet
  facet normal -1 -0 0
    outer loop
      vertex -5 25 0.5
      vertex -5 20 -0.5
      vertex -5 20 0.5
    endloop
  endfacet
  facet normal 0 1 -0
    outer loop
      vertex -5 20 -0.5
      vertex -17 20 0.5
      vertex -5 20 0.5
    endloop
  endfacet
  facet normal 0 1 0
    outer loop
      vertex -17 20 0.5
      vertex -5 20 -0.5
      vertex -17 20 -0.5
    endloop
  endfacet
  facet normal 0 -1 0
    outer loop
      vertex -17 25 -0.5
      vertex -5 25 0.5
      vertex -17 25 0.5
    endloop
  endfacet
  facet normal 0 -1 -0
    outer loop
      vertex -5 25 0.5
      vertex -17 25 -0.5
      vertex -5 25 -0.5
    endloop
  endfacet
  facet normal 0.809017 0.587785 0
    outer loop
      vertex 11.5 -9 3.5
      vertex 10.4635 -7.57341 0.5
      vertex 10.4635 -7.57341 3.5
    endloop
  endfacet
  facet normal 0.809017 0.587785 0
    outer loop
      vertex 10.4635 -7.57341 0.5
      vertex 11.5 -9 3.5
      vertex 11.5 -9 0.5
    endloop
  endfacet
  facet normal -1 0 0
    outer loop
      vertex 8.78648 -9.88168 0.5
      vertex 8.78648 -8.11832 3.5
      vertex 8.78648 -8.11832 0.5
    endloop
  endfacet
  facet normal -1 -0 0
    outer loop
      vertex 8.78648 -8.11832 3.5
      vertex 8.78648 -9.88168 0.5
      vertex 8.78648 -9.88168 3.5
    endloop
  endfacet
  facet normal -0.309017 0.951056 0
    outer loop
      vertex 10.4635 -7.57341 0.5
      vertex 8.78648 -8.11832 3.5
      vertex 10.4635 -7.57341 3.5
    endloop
  endfacet
  facet normal -0.309017 0.951056 0
    outer loop
      vertex 8.78648 -8.11832 3.5
      vertex 10.4635 -7.57341 0.5
      vertex 8.78648 -8.11832 0.5
    endloop
  endfacet
  facet normal 0 0 1
    outer loop
      vertex 10.4635 -7.57341 3.5
      vertex 10.4635 -10.4266 3.5
      vertex 11.5 -9 3.5
    endloop
  endfacet
  facet normal -0 0 1
    outer loop
      vertex 8.78648 -8.11832 3.5
      vertex 10.4635 -10.4266 3.5
      vertex 10.4635 -7.57341 3.5
    endloop
  endfacet
  facet normal 0 0 1
    outer loop
      vertex 10.4635 -10.4266 3.5
      vertex 8.78648 -8.11832 3.5
      vertex 8.78648 -9.88168 3.5
    endloop
  endfacet
  facet normal -0.309017 -0.951056 0
    outer loop
      vertex 8.78648 -9.88168 0.5
      vertex 10.4635 -10.4266 3.5
      vertex 8.78648 -9.88168 3.5
    endloop
  endfacet
  facet normal -0.309017 -0.951056 -0
    outer loop
      vertex 10.4635 -10.4266 3.5
      vertex 8.78648 -9.88168 0.5
      vertex 10.4635 -10.4266 0.5
    endloop
  endfacet
  facet normal 0.809017 -0.587786 0
    outer loop
      vertex 10.4635 -10.4266 3.5
      vertex 11.5 -9 0.5
      vertex 11.5 -9 3.5
    endloop
  endfacet
  facet normal 0.809017 -0.587786 0
    outer loop
      vertex 11.5 -9 0.5
      vertex 10.4635 -10.4266 3.5
      vertex 10.4635 -10.4266 0.5
    endloop
  endfacet
  facet normal 0.809016 0.587786 0
    outer loop
      vertex 24.5 9 3.5
      vertex 23.4635 10.4266 0.5
      vertex 23.4635 10.4266 3.5
    endloop
  endfacet
  facet normal 0.809016 0.587786 0
    outer loop
      vertex 23.4635 10.4266 0.5
      vertex 24.5 9 3.5
      vertex 24.5 9 0.5
    endloop
  endfacet
  facet normal -1 0 0
    outer loop
      vertex 21.7865 8.11832 0.5
      vertex 21.7865 9.88168 3.5
      vertex 21.7865 9.88168 0.5
    endloop
  endfacet
  facet normal -1 -0 0
    outer loop
      vertex 21.7865 9.88168 3.5
      vertex 21.7865 8.11832 0.5
      vertex 21.7865 8.11832 3.5
    endloop
  endfacet
  facet normal -0.309017 0.951056 0
    outer loop
      vertex 23.4635 10.4266 0.5
      vertex 21.7865 9.88168 3.5
      vertex 23.4635 10.4266 3.5
    endloop
  endfacet
  facet normal -0.309017 0.951056 0
    outer loop
      vertex 21.7865 9.88168 3.5
      vertex 23.4635 10.4266 0.5
      vertex 21.7865 9.88168 0.5
    endloop
  endfacet
  facet normal 0 0 1
    outer loop
      vertex 23.4635 10.4266 3.5
      vertex 23.4635 7.57341 3.5
      vertex 24.5 9 3.5
    endloop
  endfacet
  facet normal -0 0 1
    outer loop
      vertex 21.7865 9.88168 3.5
      vertex 23.4635 7.57341 3.5
      vertex 23.4635 10.4266 3.5
    endloop
  endfacet
  facet normal 0 0 1
    outer loop
      vertex 23.4635 7.57341 3.5
      vertex 21.7865 9.88168 3.5
      vertex 21.7865 8.11832 3.5
    endloop
  endfacet
  facet normal 0.809017 -0.587786 0
    outer loop
      vertex 23.4635 7.57341 3.5
      vertex 24.5 9 0.5
      vertex 24.5 9 3.5
    endloop
  endfacet
  facet normal 0.809017 -0.587786 0
    outer loop
      vertex 24.5 9 0.5
      vertex 23.4635 7.57341 3.5
      vertex 23.4635 7.57341 0.5
    endloop
  endfacet
  facet normal -0.309017 -0.951056 0
    outer loop
      vertex 21.7865 8.11832 0.5
      vertex 23.4635 7.57341 3.5
      vertex 21.7865 8.11832 3.5
    endloop
  endfacet
  facet normal -0.309017 -0.951056 -0
    outer loop
      vertex 23.4635 7.57341 3.5
      vertex 21.7865 8.11832 0.5
      vertex 23.4635 7.57341 0.5
    endloop
  endfacet
  facet normal -0.707107 0.707107 0
    outer loop
      vertex -28.7792 -28.4964 1.25
      vertex -24.5366 -24.2538 4.5
      vertex -24.5366 -24.2538 1.25
    endloop
  endfacet
  facet normal -0.707107 0.707107 0
    outer loop
      vertex -24.5366 -24.2538 4.5
      vertex -28.7792 -28.4964 1.25
      vertex -28.7792 -28.4964 4.5
    endloop
  endfacet
  facet normal 0.707107 -0.707107 0
    outer loop
      vertex -29.9106 -27.365 4.5
      vertex -25.668 -23.1224 1.25
      vertex -25.668 -23.1224 4.5
    endloop
  endfacet
  facet normal 0.707107 -0.707107 0
    outer loop
      vertex -25.668 -23.1224 1.25
      vertex -29.9106 -27.365 4.5
      vertex -29.9106 -27.365 1.25
    endloop
  endfacet
  facet normal 0 0 1
    outer loop
      vertex -25.668 -23.1224 1.25
      vertex -28.7792 -28.4964 1.25
      vertex -24.5366 -24.2538 1.25
    endloop
  endfacet
  facet normal 0 -0 1
    outer loop
      vertex -28.7792 -28.4964 1.25
      vertex -25.668 -23.1224 1.25
      vertex -29.9106 -27.365 1.25
    endloop
  endfacet
  facet normal -0.707107 0.707107 0
    outer loop
      vertex -27.0115 -30.2642 1.25
      vertex -22.7688 -26.0215 4.5
      vertex -22.7688 -26.0215 1.25
    endloop
  endfacet
  facet normal -0.707107 0.707107 0
    outer loop
      vertex -22.7688 -26.0215 4.5
      vertex -27.0115 -30.2642 1.25
      vertex -27.0115 -30.2642 4.5
    endloop
  endfacet
  facet normal 0.707107 -0.707107 0
    outer loop
      vertex -28.1429 -29.1328 4.5
      vertex -23.9002 -24.8902 1.25
      vertex -23.9002 -24.8902 4.5
    endloop
  endfacet
  facet normal 0.707107 -0.707107 0
    outer loop
      vertex -23.9002 -24.8902 1.25
      vertex -28.1429 -29.1328 4.5
      vertex -28.1429 -29.1328 1.25
    endloop
  endfacet
  facet normal 0 0 1
    outer loop
      vertex -23.9002 -24.8902 1.25
      vertex -27.0115 -30.2642 1.25
      vertex -22.7688 -26.0215 1.25
    endloop
  endfacet
  facet normal 0 -0 1
    outer loop
      vertex -27.0115 -30.2642 1.25
      vertex -23.9002 -24.8902 1.25
      vertex -28.1429 -29.1328 1.25
    endloop
  endfacet
  facet normal -0.707107 0.707107 0
    outer loop
      vertex -30.547 -26.7286 1.25
      vertex -26.3044 -22.486 4.5
      vertex -26.3044 -22.486 1.25
    endloop
  endfacet
  facet normal -0.707107 0.707107 0
    outer loop
      vertex -26.3044 -22.486 4.5
      vertex -30.547 -26.7286 1.25
      vertex -30.547 -26.7286 4.5
    endloop
  endfacet
  facet normal 0.707107 -0.707107 0
    outer loop
      vertex -31.6784 -25.5973 4.5
      vertex -27.4357 -21.3546 1.25
      vertex -27.4357 -21.3546 4.5
    endloop
  endfacet
  facet normal 0.707107 -0.707107 0
    outer loop
      vertex -27.4357 -21.3546 1.25
      vertex -31.6784 -25.5973 4.5
      vertex -31.6784 -25.5973 1.25
    endloop
  endfacet
  facet normal 0 0 1
    outer loop
      vertex -27.4357 -21.3546 1.25
      vertex -30.547 -26.7286 1.25
      vertex -26.3044 -22.486 1.25
    endloop
  endfacet
  facet normal 0 -0 1
    outer loop
      vertex -30.547 -26.7286 1.25
      vertex -27.4357 -21.3546 1.25
      vertex -31.6784 -25.5973 1.25
    endloop
  endfacet
  facet normal -0.707107 0.707107 0
    outer loop
      vertex -29.2389 -33.6936 0.5
      vertex -26.4104 -30.8652 4.5
      vertex -26.4104 -30.8652 0.5
    endloop
  endfacet
  facet normal -0.707107 0.707107 0
    outer loop
      vertex -26.4104 -30.8652 4.5
      vertex -29.2389 -33.6936 0.5
      vertex -29.2389 -33.6936 4.5
    endloop
  endfacet
  facet normal 0.707106 -0.707107 0
    outer loop
      vertex -35.1079 -27.8247 0.5
      vertex -32.2794 -24.9962 4.5
      vertex -35.1079 -27.8247 4.5
    endloop
  endfacet
  facet normal 0.707106 -0.707107 0
    outer loop
      vertex -32.2794 -24.9962 4.5
      vertex -35.1079 -27.8247 0.5
      vertex -32.2794 -24.9962 0.5
    endloop
  endfacet
  facet normal -0.707107 -0.707107 0
    outer loop
      vertex -32.2794 -24.9962 0.5
      vertex -31.6784 -25.5973 1.25
      vertex -32.2794 -24.9962 4.5
    endloop
  endfacet
  facet normal -0.707107 -0.707107 0
    outer loop
      vertex -32.2794 -24.9962 0.5
      vertex -30.547 -26.7286 1.25
      vertex -31.6784 -25.5973 1.25
    endloop
  endfacet
  facet normal -0.707107 -0.707107 0
    outer loop
      vertex -30.547 -26.7286 1.25
      vertex -29.9106 -27.365 1.25
      vertex -30.547 -26.7286 4.5
    endloop
  endfacet
  facet normal -0.707107 -0.707107 0
    outer loop
      vertex -32.2794 -24.9962 0.5
      vertex -29.9106 -27.365 1.25
      vertex -30.547 -26.7286 1.25
    endloop
  endfacet
  facet normal -0.707107 -0.707106 3.76512e-06
    outer loop
      vertex -32.2794 -24.9962 0.5
      vertex -28.7792 -28.4964 1.25
      vertex -29.9106 -27.365 1.25
    endloop
  endfacet
  facet normal -0.707107 -0.707107 0
    outer loop
      vertex -28.7792 -28.4964 1.25
      vertex -28.1429 -29.1328 1.25
      vertex -28.7792 -28.4964 4.5
    endloop
  endfacet
  facet normal -0.707107 -0.707107 -7.25806e-07
    outer loop
      vertex -26.4104 -30.8652 0.5
      vertex -28.7792 -28.4964 1.25
      vertex -32.2794 -24.9962 0.5
    endloop
  endfacet
  facet normal -0.707107 -0.707107 0
    outer loop
      vertex -28.7792 -28.4964 1.25
      vertex -26.4104 -30.8652 0.5
      vertex -28.1429 -29.1328 1.25
    endloop
  endfacet
  facet normal -0.707107 -0.707107 0
    outer loop
      vertex -28.1429 -29.1328 1.25
      vertex -26.4104 -30.8652 0.5
      vertex -27.0115 -30.2642 1.25
    endloop
  endfacet
  facet normal -0.707107 -0.707107 -0
    outer loop
      vertex -26.4104 -30.8652 4.5
      vertex -27.0115 -30.2642 1.25
      vertex -26.4104 -30.8652 0.5
    endloop
  endfacet
  facet normal -0.707107 -0.707107 0
    outer loop
      vertex -27.0115 -30.2642 1.25
      vertex -26.4104 -30.8652 4.5
      vertex -27.0115 -30.2642 4.5
    endloop
  endfacet
  facet normal -0.707107 -0.707107 0
    outer loop
      vertex -32.2794 -24.9962 4.5
      vertex -31.6784 -25.5973 1.25
      vertex -31.6784 -25.5973 4.5
    endloop
  endfacet
  facet normal -0.707107 -0.707107 0
    outer loop
      vertex -30.547 -26.7286 4.5
      vertex -29.9106 -27.365 1.25
      vertex -29.9106 -27.365 4.5
    endloop
  endfacet
  facet normal -0.707107 -0.707107 0
    outer loop
      vertex -28.7792 -28.4964 4.5
      vertex -28.1429 -29.1328 1.25
      vertex -28.1429 -29.1328 4.5
    endloop
  endfacet
  facet normal 0.707107 -0.707107 0
    outer loop
      vertex -27.9307 -35.0018 4.5
      vertex -20.8596 -27.9307 0.5
      vertex -20.8596 -27.9307 4.5
    endloop
  endfacet
  facet normal 0.707107 -0.707107 0
    outer loop
      vertex -20.8596 -27.9307 0.5
      vertex -27.9307 -35.0018 4.5
      vertex -27.9307 -35.0018 0.5
    endloop
  endfacet
  facet normal 0 0 1
    outer loop
      vertex -22.7688 -26.0215 4.5
      vertex -27.0115 -30.2642 4.5
      vertex -26.4104 -30.8652 4.5
    endloop
  endfacet
  facet normal 0 0 1
    outer loop
      vertex -26.4104 -30.8652 4.5
      vertex -20.8596 -27.9307 4.5
      vertex -22.7688 -26.0215 4.5
    endloop
  endfacet
  facet normal -0 0 1
    outer loop
      vertex -26.4104 -30.8652 4.5
      vertex -27.9307 -35.0018 4.5
      vertex -20.8596 -27.9307 4.5
    endloop
  endfacet
  facet normal 0 -0 1
    outer loop
      vertex -27.9307 -35.0018 4.5
      vertex -26.4104 -30.8652 4.5
      vertex -29.2389 -33.6936 4.5
    endloop
  endfacet
  facet normal 0 0 1
    outer loop
      vertex -32.2794 -24.9962 4.5
      vertex -27.4357 -21.3546 4.5
      vertex -29.3449 -19.4454 4.5
    endloop
  endfacet
  facet normal 0 0 1
    outer loop
      vertex -27.4357 -21.3546 4.5
      vertex -32.2794 -24.9962 4.5
      vertex -31.6784 -25.5973 4.5
    endloop
  endfacet
  facet normal 0 0 1
    outer loop
      vertex -36.416 -26.5165 4.5
      vertex -32.2794 -24.9962 4.5
      vertex -29.3449 -19.4454 4.5
    endloop
  endfacet
  facet normal 0 0 1
    outer loop
      vertex -32.2794 -24.9962 4.5
      vertex -36.416 -26.5165 4.5
      vertex -35.1079 -27.8247 4.5
    endloop
  endfacet
  facet normal 0 0 1
    outer loop
      vertex -24.5366 -24.2538 4.5
      vertex -28.1429 -29.1328 4.5
      vertex -23.9002 -24.8902 4.5
    endloop
  endfacet
  facet normal 0 -0 1
    outer loop
      vertex -28.1429 -29.1328 4.5
      vertex -24.5366 -24.2538 4.5
      vertex -28.7792 -28.4964 4.5
    endloop
  endfacet
  facet normal 0 0 1
    outer loop
      vertex -26.3044 -22.486 4.5
      vertex -29.9106 -27.365 4.5
      vertex -25.668 -23.1224 4.5
    endloop
  endfacet
  facet normal 0 -0 1
    outer loop
      vertex -29.9106 -27.365 4.5
      vertex -26.3044 -22.486 4.5
      vertex -30.547 -26.7286 4.5
    endloop
  endfacet
  facet normal -0.707107 0.707107 0
    outer loop
      vertex -29.3449 -19.4454 0.5
      vertex -36.416 -26.5165 4.5
      vertex -29.3449 -19.4454 4.5
    endloop
  endfacet
  facet normal -0.707107 0.707107 1.76083e-09
    outer loop
      vertex -36.3793 -26.4798 0.5
      vertex -36.416 -26.5165 4.5
      vertex -29.3449 -19.4454 0.5
    endloop
  endfacet
  facet normal -0.707107 0.707107 0
    outer loop
      vertex -36.416 -26.5165 -0.5
      vertex -36.3793 -26.4798 0.5
      vertex -36.3793 -26.4798 -0.5
    endloop
  endfacet
  facet normal -0.707107 0.707107 0
    outer loop
      vertex -36.3793 -26.4798 0.5
      vertex -36.416 -26.5165 -0.5
      vertex -36.416 -26.5165 4.5
    endloop
  endfacet
  facet normal 0.707107 0.707107 0
    outer loop
      vertex -22.7688 -26.0215 4.5
      vertex -20.8596 -27.9307 4.5
      vertex -22.7688 -26.0215 1.25
    endloop
  endfacet
  facet normal 0.707107 0.707107 0
    outer loop
      vertex -24.5366 -24.2538 4.5
      vertex -23.9002 -24.8902 4.5
      vertex -24.5366 -24.2538 1.25
    endloop
  endfacet
  facet normal 0.707107 0.707107 0
    outer loop
      vertex -26.3044 -22.486 4.5
      vertex -25.668 -23.1224 4.5
      vertex -26.3044 -22.486 1.25
    endloop
  endfacet
  facet normal 0.707107 0.707106 -0
    outer loop
      vertex -27.4357 -21.3546 1.25
      vertex -29.3449 -19.4454 4.5
      vertex -27.4357 -21.3546 4.5
    endloop
  endfacet
  facet normal 0.707107 0.707106 0
    outer loop
      vertex -29.3449 -19.4454 4.5
      vertex -27.4357 -21.3546 1.25
      vertex -29.3449 -19.4454 0.5
    endloop
  endfacet
  facet normal 0.707107 0.707107 1.79827e-06
    outer loop
      vertex -26.3044 -22.486 1.25
      vertex -29.3449 -19.4454 0.5
      vertex -27.4357 -21.3546 1.25
    endloop
  endfacet
  facet normal 0.707107 0.707107 -0
    outer loop
      vertex -25.668 -23.1224 1.25
      vertex -26.3044 -22.486 1.25
      vertex -25.668 -23.1224 4.5
    endloop
  endfacet
  facet normal 0.707107 0.707107 1.79827e-06
    outer loop
      vertex -25.668 -23.1224 1.25
      vertex -29.3449 -19.4454 0.5
      vertex -26.3044 -22.486 1.25
    endloop
  endfacet
  facet normal 0.707106 0.707107 7.64263e-06
    outer loop
      vertex -24.5366 -24.2538 1.25
      vertex -29.3449 -19.4454 0.5
      vertex -25.668 -23.1224 1.25
    endloop
  endfacet
  facet normal 0.707107 0.707107 -0
    outer loop
      vertex -23.9002 -24.8902 1.25
      vertex -24.5366 -24.2538 1.25
      vertex -23.9002 -24.8902 4.5
    endloop
  endfacet
  facet normal 0.707107 0.707107 0
    outer loop
      vertex -20.8596 -27.9307 0.5
      vertex -24.5366 -24.2538 1.25
      vertex -23.9002 -24.8902 1.25
    endloop
  endfacet
  facet normal 0.707107 0.707107 0
    outer loop
      vertex -20.8596 -27.9307 0.5
      vertex -23.9002 -24.8902 1.25
      vertex -22.7688 -26.0215 1.25
    endloop
  endfacet
  facet normal 0.707107 0.707107 0
    outer loop
      vertex -24.5366 -24.2538 1.25
      vertex -20.8596 -27.9307 0.5
      vertex -29.3449 -19.4454 0.5
    endloop
  endfacet
  facet normal 0.707107 0.707107 -0
    outer loop
      vertex -20.8596 -27.9307 0.5
      vertex -22.7688 -26.0215 1.25
      vertex -20.8596 -27.9307 4.5
    endloop
  endfacet
  facet normal -0.707106 -0.707108 -0
    outer loop
      vertex -35.715 -27.2175 0.5
      vertex -36.416 -26.5165 -0.5
      vertex -35.715 -27.2175 -0.5
    endloop
  endfacet
  facet normal -0.707106 -0.707108 0
    outer loop
      vertex -36.416 -26.5165 -0.5
      vertex -35.715 -27.2175 0.5
      vertex -36.416 -26.5165 4.5
    endloop
  endfacet
  facet normal -0.707108 -0.707106 -0
    outer loop
      vertex -35.1079 -27.8247 4.5
      vertex -35.715 -27.2175 0.5
      vertex -35.1079 -27.8247 0.5
    endloop
  endfacet
  facet normal -0.707107 -0.707107 -3.37175e-07
    outer loop
      vertex -35.715 -27.2175 0.5
      vertex -35.1079 -27.8247 4.5
      vertex -36.416 -26.5165 4.5
    endloop
  endfacet
  facet normal -0.707107 -0.707107 0
    outer loop
      vertex -27.9307 -35.0018 0.5
      vertex -29.2389 -33.6936 4.5
      vertex -29.2389 -33.6936 0.5
    endloop
  endfacet
  facet normal -0.707107 -0.707107 0
    outer loop
      vertex -29.2389 -33.6936 4.5
      vertex -27.9307 -35.0018 0.5
      vertex -27.9307 -35.0018 4.5
    endloop
  endfacet
endsolid OpenSCAD_Model
