solid OpenSCAD_Model
  facet normal -0.900969 -0.433884 0
    outer loop
      vertex 24 32 -1
      vertex 23.247 33.5637 1
      vertex 23.247 33.5637 -1
    endloop
  endfacet
  facet normal -0.900969 -0.433884 0
    outer loop
      vertex 23.247 33.5637 1
      vertex 24 32 -1
      vertex 24 32 1
    endloop
  endfacet
  facet normal 1 -0 0
    outer loop
      vertex 20.1981 31.1322 1
      vertex 20.1981 32.8678 -1
      vertex 20.1981 32.8678 1
    endloop
  endfacet
  facet normal 1 0 0
    outer loop
      vertex 20.1981 32.8678 -1
      vertex 20.1981 31.1322 1
      vertex 20.1981 31.1322 -1
    endloop
  endfacet
  facet normal -0.222521 -0.974928 0
    outer loop
      vertex 21.555 33.9499 -1
      vertex 23.247 33.5637 1
      vertex 21.555 33.9499 1
    endloop
  endfacet
  facet normal -0.222521 -0.974928 -0
    outer loop
      vertex 23.247 33.5637 1
      vertex 21.555 33.9499 -1
      vertex 23.247 33.5637 -1
    endloop
  endfacet
  facet normal 0.62349 0.781831 -0
    outer loop
      vertex 21.555 30.0501 -1
      vertex 20.1981 31.1322 1
      vertex 21.555 30.0501 1
    endloop
  endfacet
  facet normal 0.62349 0.781831 0
    outer loop
      vertex 20.1981 31.1322 1
      vertex 21.555 30.0501 -1
      vertex 20.1981 31.1322 -1
    endloop
  endfacet
  facet normal 0.62349 -0.781831 0
    outer loop
      vertex 20.1981 32.8678 -1
      vertex 21.555 33.9499 1
      vertex 20.1981 32.8678 1
    endloop
  endfacet
  facet normal 0.62349 -0.781831 0
    outer loop
      vertex 21.555 33.9499 1
      vertex 20.1981 32.8678 -1
      vertex 21.555 33.9499 -1
    endloop
  endfacet
  facet normal -0.222521 0.974928 0
    outer loop
      vertex 23.247 30.4363 -1
      vertex 21.555 30.0501 1
      vertex 23.247 30.4363 1
    endloop
  endfacet
  facet normal -0.222521 0.974928 0
    outer loop
      vertex 21.555 30.0501 1
      vertex 23.247 30.4363 -1
      vertex 21.555 30.0501 -1
    endloop
  endfacet
  facet normal -0.900969 0.433884 0
    outer loop
      vertex 23.247 30.4363 -1
      vertex 24 32 1
      vertex 24 32 -1
    endloop
  endfacet
  facet normal -0.900969 0.433884 0
    outer loop
      vertex 24 32 1
      vertex 23.247 30.4363 -1
      vertex 23.247 30.4363 1
    endloop
  endfacet
  facet normal -0.900969 -0.433884 0
    outer loop
      vertex 24 -32 -1
      vertex 23.247 -30.4363 1
      vertex 23.247 -30.4363 -1
    endloop
  endfacet
  facet normal -0.900969 -0.433884 0
    outer loop
      vertex 23.247 -30.4363 1
      vertex 24 -32 -1
      vertex 24 -32 1
    endloop
  endfacet
  facet normal 1 -0 0
    outer loop
      vertex 20.1981 -32.8678 1
      vertex 20.1981 -31.1322 -1
      vertex 20.1981 -31.1322 1
    endloop
  endfacet
  facet normal 1 0 0
    outer loop
      vertex 20.1981 -31.1322 -1
      vertex 20.1981 -32.8678 1
      vertex 20.1981 -32.8678 -1
    endloop
  endfacet
  facet normal -0.222521 -0.974928 0
    outer loop
      vertex 21.555 -30.0501 -1
      vertex 23.247 -30.4363 1
      vertex 21.555 -30.0501 1
    endloop
  endfacet
  facet normal -0.222521 -0.974928 -0
    outer loop
      vertex 23.247 -30.4363 1
      vertex 21.555 -30.0501 -1
      vertex 23.247 -30.4363 -1
    endloop
  endfacet
  facet normal 0.62349 -0.781831 0
    outer loop
      vertex 20.1981 -31.1322 -1
      vertex 21.555 -30.0501 1
      vertex 20.1981 -31.1322 1
    endloop
  endfacet
  facet normal 0.62349 -0.781831 0
    outer loop
      vertex 21.555 -30.0501 1
      vertex 20.1981 -31.1322 -1
      vertex 21.555 -30.0501 -1
    endloop
  endfacet
  facet normal -0.900969 0.433884 0
    outer loop
      vertex 23.247 -33.5637 -1
      vertex 24 -32 1
      vertex 24 -32 -1
    endloop
  endfacet
  facet normal -0.900969 0.433884 0
    outer loop
      vertex 24 -32 1
      vertex 23.247 -33.5637 -1
      vertex 23.247 -33.5637 1
    endloop
  endfacet
  facet normal -0.222521 0.974928 0
    outer loop
      vertex 23.247 -33.5637 -1
      vertex 21.555 -33.9499 1
      vertex 23.247 -33.5637 1
    endloop
  endfacet
  facet normal -0.222521 0.974928 0
    outer loop
      vertex 21.555 -33.9499 1
      vertex 23.247 -33.5637 -1
      vertex 21.555 -33.9499 -1
    endloop
  endfacet
  facet normal 0.62349 0.781831 -0
    outer loop
      vertex 21.555 -33.9499 -1
      vertex 20.1981 -32.8678 1
      vertex 21.555 -33.9499 1
    endloop
  endfacet
  facet normal 0.62349 0.781831 0
    outer loop
      vertex 20.1981 -32.8678 1
      vertex 21.555 -33.9499 -1
      vertex 20.1981 -32.8678 -1
    endloop
  endfacet
  facet normal -0.900969 -0.433884 0
    outer loop
      vertex -20 32 -1
      vertex -20.753 33.5637 1
      vertex -20.753 33.5637 -1
    endloop
  endfacet
  facet normal -0.900969 -0.433884 0
    outer loop
      vertex -20.753 33.5637 1
      vertex -20 32 -1
      vertex -20 32 1
    endloop
  endfacet
  facet normal 1 -0 0
    outer loop
      vertex -23.8019 31.1322 1
      vertex -23.8019 32.8678 -1
      vertex -23.8019 32.8678 1
    endloop
  endfacet
  facet normal 1 0 0
    outer loop
      vertex -23.8019 32.8678 -1
      vertex -23.8019 31.1322 1
      vertex -23.8019 31.1322 -1
    endloop
  endfacet
  facet normal -0.222521 -0.974928 0
    outer loop
      vertex -22.445 33.9499 -1
      vertex -20.753 33.5637 1
      vertex -22.445 33.9499 1
    endloop
  endfacet
  facet normal -0.222521 -0.974928 -0
    outer loop
      vertex -20.753 33.5637 1
      vertex -22.445 33.9499 -1
      vertex -20.753 33.5637 -1
    endloop
  endfacet
  facet normal 0.62349 0.781831 -0
    outer loop
      vertex -22.445 30.0501 -1
      vertex -23.8019 31.1322 1
      vertex -22.445 30.0501 1
    endloop
  endfacet
  facet normal 0.62349 0.781831 0
    outer loop
      vertex -23.8019 31.1322 1
      vertex -22.445 30.0501 -1
      vertex -23.8019 31.1322 -1
    endloop
  endfacet
  facet normal 0.62349 -0.781831 0
    outer loop
      vertex -23.8019 32.8678 -1
      vertex -22.445 33.9499 1
      vertex -23.8019 32.8678 1
    endloop
  endfacet
  facet normal 0.62349 -0.781831 0
    outer loop
      vertex -22.445 33.9499 1
      vertex -23.8019 32.8678 -1
      vertex -22.445 33.9499 -1
    endloop
  endfacet
  facet normal -0.222521 0.974928 0
    outer loop
      vertex -20.753 30.4363 -1
      vertex -22.445 30.0501 1
      vertex -20.753 30.4363 1
    endloop
  endfacet
  facet normal -0.222521 0.974928 0
    outer loop
      vertex -22.445 30.0501 1
      vertex -20.753 30.4363 -1
      vertex -22.445 30.0501 -1
    endloop
  endfacet
  facet normal -0.900969 0.433884 0
    outer loop
      vertex -20.753 30.4363 -1
      vertex -20 32 1
      vertex -20 32 -1
    endloop
  endfacet
  facet normal -0.900969 0.433884 0
    outer loop
      vertex -20 32 1
      vertex -20.753 30.4363 -1
      vertex -20.753 30.4363 1
    endloop
  endfacet
  facet normal -0.900969 -0.433884 0
    outer loop
      vertex -20 -32 -1
      vertex -20.753 -30.4363 1
      vertex -20.753 -30.4363 -1
    endloop
  endfacet
  facet normal -0.900969 -0.433884 0
    outer loop
      vertex -20.753 -30.4363 1
      vertex -20 -32 -1
      vertex -20 -32 1
    endloop
  endfacet
  facet normal 1 -0 0
    outer loop
      vertex -23.8019 -32.8678 1
      vertex -23.8019 -31.1322 -1
      vertex -23.8019 -31.1322 1
    endloop
  endfacet
  facet normal 1 0 0
    outer loop
      vertex -23.8019 -31.1322 -1
      vertex -23.8019 -32.8678 1
      vertex -23.8019 -32.8678 -1
    endloop
  endfacet
  facet normal -0.222521 -0.974928 0
    outer loop
      vertex -22.445 -30.0501 -1
      vertex -20.753 -30.4363 1
      vertex -22.445 -30.0501 1
    endloop
  endfacet
  facet normal -0.222521 -0.974928 -0
    outer loop
      vertex -20.753 -30.4363 1
      vertex -22.445 -30.0501 -1
      vertex -20.753 -30.4363 -1
    endloop
  endfacet
  facet normal 0.62349 -0.781831 0
    outer loop
      vertex -23.8019 -31.1322 -1
      vertex -22.445 -30.0501 1
      vertex -23.8019 -31.1322 1
    endloop
  endfacet
  facet normal 0.62349 -0.781831 0
    outer loop
      vertex -22.445 -30.0501 1
      vertex -23.8019 -31.1322 -1
      vertex -22.445 -30.0501 -1
    endloop
  endfacet
  facet normal -0.900969 0.433884 0
    outer loop
      vertex -20.753 -33.5637 -1
      vertex -20 -32 1
      vertex -20 -32 -1
    endloop
  endfacet
  facet normal -0.900969 0.433884 0
    outer loop
      vertex -20 -32 1
      vertex -20.753 -33.5637 -1
      vertex -20.753 -33.5637 1
    endloop
  endfacet
  facet normal -0.222521 0.974928 0
    outer loop
      vertex -20.753 -33.5637 -1
      vertex -22.445 -33.9499 1
      vertex -20.753 -33.5637 1
    endloop
  endfacet
  facet normal -0.222521 0.974928 0
    outer loop
      vertex -22.445 -33.9499 1
      vertex -20.753 -33.5637 -1
      vertex -22.445 -33.9499 -1
    endloop
  endfacet
  facet normal 0.62349 0.781831 -0
    outer loop
      vertex -22.445 -33.9499 -1
      vertex -23.8019 -32.8678 1
      vertex -22.445 -33.9499 1
    endloop
  endfacet
  facet normal 0.62349 0.781831 0
    outer loop
      vertex -23.8019 -32.8678 1
      vertex -22.445 -33.9499 -1
      vertex -23.8019 -32.8678 -1
    endloop
  endfacet
  facet normal 1 -0 0
    outer loop
      vertex -3.5 21 1
      vertex -3.5 25 -1
      vertex -3.5 25 1
    endloop
  endfacet
  facet normal 1 0 0
    outer loop
      vertex -3.5 25 -1
      vertex -3.5 21 1
      vertex -3.5 21 -1
    endloop
  endfacet
  facet normal -1 0 0
    outer loop
      vertex 3.5 21 -1
      vertex 3.5 25 1
      vertex 3.5 25 -1
    endloop
  endfacet
  facet normal -1 -0 0
    outer loop
      vertex 3.5 25 1
      vertex 3.5 21 -1
      vertex 3.5 21 1
    endloop
  endfacet
  facet normal 0 1 -0
    outer loop
      vertex 3.5 21 -1
      vertex -3.5 21 1
      vertex 3.5 21 1
    endloop
  endfacet
  facet normal 0 1 0
    outer loop
      vertex -3.5 21 1
      vertex 3.5 21 -1
      vertex -3.5 21 -1
    endloop
  endfacet
  facet normal 0 -1 0
    outer loop
      vertex -3.5 25 -1
      vertex 3.5 25 1
      vertex -3.5 25 1
    endloop
  endfacet
  facet normal 0 -1 -0
    outer loop
      vertex 3.5 25 1
      vertex -3.5 25 -1
      vertex 3.5 25 -1
    endloop
  endfacet
  facet normal 1 -0 0
    outer loop
      vertex -3.5 -25 1
      vertex -3.5 -21 -1
      vertex -3.5 -21 1
    endloop
  endfacet
  facet normal 1 0 0
    outer loop
      vertex -3.5 -21 -1
      vertex -3.5 -25 1
      vertex -3.5 -25 -1
    endloop
  endfacet
  facet normal -1 0 0
    outer loop
      vertex 3.5 -25 -1
      vertex 3.5 -21 1
      vertex 3.5 -21 -1
    endloop
  endfacet
  facet normal -1 -0 0
    outer loop
      vertex 3.5 -21 1
      vertex 3.5 -25 -1
      vertex 3.5 -25 1
    endloop
  endfacet
  facet normal 0 1 -0
    outer loop
      vertex 3.5 -25 -1
      vertex -3.5 -25 1
      vertex 3.5 -25 1
    endloop
  endfacet
  facet normal 0 1 0
    outer loop
      vertex -3.5 -25 1
      vertex 3.5 -25 -1
      vertex -3.5 -25 -1
    endloop
  endfacet
  facet normal 0 -1 0
    outer loop
      vertex -3.5 -21 -1
      vertex 3.5 -21 1
      vertex -3.5 -21 1
    endloop
  endfacet
  facet normal 0 -1 -0
    outer loop
      vertex 3.5 -21 1
      vertex -3.5 -21 -1
      vertex 3.5 -21 -1
    endloop
  endfacet
  facet normal -0.900969 -0.433884 0
    outer loop
      vertex 12 9 -1
      vertex 11.247 10.5637 1
      vertex 11.247 10.5637 -1
    endloop
  endfacet
  facet normal -0.900969 -0.433884 0
    outer loop
      vertex 11.247 10.5637 1
      vertex 12 9 -1
      vertex 12 9 1
    endloop
  endfacet
  facet normal 1 -0 0
    outer loop
      vertex 8.19806 8.13223 1
      vertex 8.19806 9.86777 -1
      vertex 8.19806 9.86777 1
    endloop
  endfacet
  facet normal 1 0 0
    outer loop
      vertex 8.19806 9.86777 -1
      vertex 8.19806 8.13223 1
      vertex 8.19806 8.13223 -1
    endloop
  endfacet
  facet normal 0.62349 -0.781831 0
    outer loop
      vertex 8.19806 9.86777 -1
      vertex 9.55496 10.9499 1
      vertex 8.19806 9.86777 1
    endloop
  endfacet
  facet normal 0.62349 -0.781831 0
    outer loop
      vertex 9.55496 10.9499 1
      vertex 8.19806 9.86777 -1
      vertex 9.55496 10.9499 -1
    endloop
  endfacet
  facet normal -0.222521 -0.974928 0
    outer loop
      vertex 9.55496 10.9499 -1
      vertex 11.247 10.5637 1
      vertex 9.55496 10.9499 1
    endloop
  endfacet
  facet normal -0.222521 -0.974928 -0
    outer loop
      vertex 11.247 10.5637 1
      vertex 9.55496 10.9499 -1
      vertex 11.247 10.5637 -1
    endloop
  endfacet
  facet normal -0.900969 0.433884 0
    outer loop
      vertex 11.247 7.43634 -1
      vertex 12 9 1
      vertex 12 9 -1
    endloop
  endfacet
  facet normal -0.900969 0.433884 0
    outer loop
      vertex 12 9 1
      vertex 11.247 7.43634 -1
      vertex 11.247 7.43634 1
    endloop
  endfacet
  facet normal -0.222521 0.974928 0
    outer loop
      vertex 11.247 7.43634 -1
      vertex 9.55496 7.05014 1
      vertex 11.247 7.43634 1
    endloop
  endfacet
  facet normal -0.222521 0.974928 0
    outer loop
      vertex 9.55496 7.05014 1
      vertex 11.247 7.43634 -1
      vertex 9.55496 7.05014 -1
    endloop
  endfacet
  facet normal 0.62349 0.781831 -0
    outer loop
      vertex 9.55496 7.05014 -1
      vertex 8.19806 8.13223 1
      vertex 9.55496 7.05014 1
    endloop
  endfacet
  facet normal 0.62349 0.781831 0
    outer loop
      vertex 8.19806 8.13223 1
      vertex 9.55496 7.05014 -1
      vertex 8.19806 8.13223 -1
    endloop
  endfacet
  facet normal -0.900969 -0.433884 0
    outer loop
      vertex 12 -9 -1
      vertex 11.247 -7.43634 1
      vertex 11.247 -7.43634 -1
    endloop
  endfacet
  facet normal -0.900969 -0.433884 0
    outer loop
      vertex 11.247 -7.43634 1
      vertex 12 -9 -1
      vertex 12 -9 1
    endloop
  endfacet
  facet normal 1 -0 0
    outer loop
      vertex 8.19806 -9.86777 1
      vertex 8.19806 -8.13223 -1
      vertex 8.19806 -8.13223 1
    endloop
  endfacet
  facet normal 1 0 0
    outer loop
      vertex 8.19806 -8.13223 -1
      vertex 8.19806 -9.86777 1
      vertex 8.19806 -9.86777 -1
    endloop
  endfacet
  facet normal 0.62349 -0.781831 0
    outer loop
      vertex 8.19806 -8.13223 -1
      vertex 9.55496 -7.05014 1
      vertex 8.19806 -8.13223 1
    endloop
  endfacet
  facet normal 0.62349 -0.781831 0
    outer loop
      vertex 9.55496 -7.05014 1
      vertex 8.19806 -8.13223 -1
      vertex 9.55496 -7.05014 -1
    endloop
  endfacet
  facet normal -0.222521 -0.974928 0
    outer loop
      vertex 9.55496 -7.05014 -1
      vertex 11.247 -7.43634 1
      vertex 9.55496 -7.05014 1
    endloop
  endfacet
  facet normal -0.222521 -0.974928 -0
    outer loop
      vertex 11.247 -7.43634 1
      vertex 9.55496 -7.05014 -1
      vertex 11.247 -7.43634 -1
    endloop
  endfacet
  facet normal -0.900969 0.433884 0
    outer loop
      vertex 11.247 -10.5637 -1
      vertex 12 -9 1
      vertex 12 -9 -1
    endloop
  endfacet
  facet normal -0.900969 0.433884 0
    outer loop
      vertex 12 -9 1
      vertex 11.247 -10.5637 -1
      vertex 11.247 -10.5637 1
    endloop
  endfacet
  facet normal -0.222521 0.974928 0
    outer loop
      vertex 11.247 -10.5637 -1
      vertex 9.55496 -10.9499 1
      vertex 11.247 -10.5637 1
    endloop
  endfacet
  facet normal -0.222521 0.974928 0
    outer loop
      vertex 9.55496 -10.9499 1
      vertex 11.247 -10.5637 -1
      vertex 9.55496 -10.9499 -1
    endloop
  endfacet
  facet normal 0.62349 0.781831 -0
    outer loop
      vertex 9.55496 -10.9499 -1
      vertex 8.19806 -9.86777 1
      vertex 9.55496 -10.9499 1
    endloop
  endfacet
  facet normal 0.62349 0.781831 0
    outer loop
      vertex 8.19806 -9.86777 1
      vertex 9.55496 -10.9499 -1
      vertex 8.19806 -9.86777 -1
    endloop
  endfacet
  facet normal -0.900969 -0.433884 0
    outer loop
      vertex 25 9 -1
      vertex 24.247 10.5637 1
      vertex 24.247 10.5637 -1
    endloop
  endfacet
  facet normal -0.900969 -0.433884 0
    outer loop
      vertex 24.247 10.5637 1
      vertex 25 9 -1
      vertex 25 9 1
    endloop
  endfacet
  facet normal 1 -0 0
    outer loop
      vertex 21.1981 8.13223 1
      vertex 21.1981 9.86777 -1
      vertex 21.1981 9.86777 1
    endloop
  endfacet
  facet normal 1 0 0
    outer loop
      vertex 21.1981 9.86777 -1
      vertex 21.1981 8.13223 1
      vertex 21.1981 8.13223 -1
    endloop
  endfacet
  facet normal -0.222521 -0.974928 0
    outer loop
      vertex 22.555 10.9499 -1
      vertex 24.247 10.5637 1
      vertex 22.555 10.9499 1
    endloop
  endfacet
  facet normal -0.222521 -0.974928 -0
    outer loop
      vertex 24.247 10.5637 1
      vertex 22.555 10.9499 -1
      vertex 24.247 10.5637 -1
    endloop
  endfacet
  facet normal 0.62349 -0.781831 0
    outer loop
      vertex 21.1981 9.86777 -1
      vertex 22.555 10.9499 1
      vertex 21.1981 9.86777 1
    endloop
  endfacet
  facet normal 0.62349 -0.781831 0
    outer loop
      vertex 22.555 10.9499 1
      vertex 21.1981 9.86777 -1
      vertex 22.555 10.9499 -1
    endloop
  endfacet
  facet normal -0.222521 0.974928 0
    outer loop
      vertex 24.247 7.43634 -1
      vertex 22.555 7.05014 1
      vertex 24.247 7.43634 1
    endloop
  endfacet
  facet normal -0.222521 0.974928 0
    outer loop
      vertex 22.555 7.05014 1
      vertex 24.247 7.43634 -1
      vertex 22.555 7.05014 -1
    endloop
  endfacet
  facet normal 0.62349 0.781831 -0
    outer loop
      vertex 22.555 7.05014 -1
      vertex 21.1981 8.13223 1
      vertex 22.555 7.05014 1
    endloop
  endfacet
  facet normal 0.62349 0.781831 0
    outer loop
      vertex 21.1981 8.13223 1
      vertex 22.555 7.05014 -1
      vertex 21.1981 8.13223 -1
    endloop
  endfacet
  facet normal -0.900969 0.433884 0
    outer loop
      vertex 24.247 7.43634 -1
      vertex 25 9 1
      vertex 25 9 -1
    endloop
  endfacet
  facet normal -0.900969 0.433884 0
    outer loop
      vertex 25 9 1
      vertex 24.247 7.43634 -1
      vertex 24.247 7.43634 1
    endloop
  endfacet
  facet normal -0.900969 -0.433884 0
    outer loop
      vertex 25 -9 -1
      vertex 24.247 -7.43634 1
      vertex 24.247 -7.43634 -1
    endloop
  endfacet
  facet normal -0.900969 -0.433884 0
    outer loop
      vertex 24.247 -7.43634 1
      vertex 25 -9 -1
      vertex 25 -9 1
    endloop
  endfacet
  facet normal 1 -0 0
    outer loop
      vertex 21.1981 -9.86777 1
      vertex 21.1981 -8.13223 -1
      vertex 21.1981 -8.13223 1
    endloop
  endfacet
  facet normal 1 0 0
    outer loop
      vertex 21.1981 -8.13223 -1
      vertex 21.1981 -9.86777 1
      vertex 21.1981 -9.86777 -1
    endloop
  endfacet
  facet normal -0.222521 -0.974928 0
    outer loop
      vertex 22.555 -7.05014 -1
      vertex 24.247 -7.43634 1
      vertex 22.555 -7.05014 1
    endloop
  endfacet
  facet normal -0.222521 -0.974928 -0
    outer loop
      vertex 24.247 -7.43634 1
      vertex 22.555 -7.05014 -1
      vertex 24.247 -7.43634 -1
    endloop
  endfacet
  facet normal 0.62349 0.781831 -0
    outer loop
      vertex 22.555 -10.9499 -1
      vertex 21.1981 -9.86777 1
      vertex 22.555 -10.9499 1
    endloop
  endfacet
  facet normal 0.62349 0.781831 0
    outer loop
      vertex 21.1981 -9.86777 1
      vertex 22.555 -10.9499 -1
      vertex 21.1981 -9.86777 -1
    endloop
  endfacet
  facet normal 0.62349 -0.781831 0
    outer loop
      vertex 21.1981 -8.13223 -1
      vertex 22.555 -7.05014 1
      vertex 21.1981 -8.13223 1
    endloop
  endfacet
  facet normal 0.62349 -0.781831 0
    outer loop
      vertex 22.555 -7.05014 1
      vertex 21.1981 -8.13223 -1
      vertex 22.555 -7.05014 -1
    endloop
  endfacet
  facet normal -0.222521 0.974928 0
    outer loop
      vertex 24.247 -10.5637 -1
      vertex 22.555 -10.9499 1
      vertex 24.247 -10.5637 1
    endloop
  endfacet
  facet normal -0.222521 0.974928 0
    outer loop
      vertex 22.555 -10.9499 1
      vertex 24.247 -10.5637 -1
      vertex 22.555 -10.9499 -1
    endloop
  endfacet
  facet normal -0.900969 0.433884 0
    outer loop
      vertex 24.247 -10.5637 -1
      vertex 25 -9 1
      vertex 25 -9 -1
    endloop
  endfacet
  facet normal -0.900969 0.433884 0
    outer loop
      vertex 25 -9 1
      vertex 24.247 -10.5637 -1
      vertex 24.247 -10.5637 1
    endloop
  endfacet
  facet normal 0.994522 0.104529 0
    outer loop
      vertex 45 0 1
      vertex 44.0166 9.35603 -1
      vertex 44.0166 9.35603 1
    endloop
  endfacet
  facet normal 0.994522 0.104529 0
    outer loop
      vertex 44.0166 9.35603 -1
      vertex 45 0 1
      vertex 45 0 -1
    endloop
  endfacet
  facet normal -0.994522 0.104529 0
    outer loop
      vertex -45 0 -1
      vertex -44.0166 9.35603 1
      vertex -44.0166 9.35603 -1
    endloop
  endfacet
  facet normal -0.994522 0.104529 0
    outer loop
      vertex -44.0166 9.35603 1
      vertex -45 0 -1
      vertex -45 0 1
    endloop
  endfacet
  facet normal 0 1 -0
    outer loop
      vertex 4.70378 44.7535 -1
      vertex -4.70378 44.7535 1
      vertex 4.70378 44.7535 1
    endloop
  endfacet
  facet normal 0 1 0
    outer loop
      vertex -4.70378 44.7535 1
      vertex 4.70378 44.7535 -1
      vertex -4.70378 44.7535 -1
    endloop
  endfacet
  facet normal 0 -1 0
    outer loop
      vertex -4.70378 -44.7535 -1
      vertex 4.70378 -44.7535 1
      vertex -4.70378 -44.7535 1
    endloop
  endfacet
  facet normal 0 -1 -0
    outer loop
      vertex 4.70378 -44.7535 1
      vertex -4.70378 -44.7535 -1
      vertex 4.70378 -44.7535 -1
    endloop
  endfacet
  facet normal 0.743145 0.669131 0
    outer loop
      vertex 36.4058 26.4503 1
      vertex 30.1109 33.4415 -1
      vertex 30.1109 33.4415 1
    endloop
  endfacet
  facet normal 0.743145 0.669131 0
    outer loop
      vertex 30.1109 33.4415 -1
      vertex 36.4058 26.4503 1
      vertex 36.4058 26.4503 -1
    endloop
  endfacet
  facet normal -0.587785 0.809017 0
    outer loop
      vertex -22.5 38.9711 -1
      vertex -30.1109 33.4415 1
      vertex -22.5 38.9711 1
    endloop
  endfacet
  facet normal -0.587785 0.809017 0
    outer loop
      vertex -30.1109 33.4415 1
      vertex -22.5 38.9711 -1
      vertex -30.1109 33.4415 -1
    endloop
  endfacet
  facet normal -0.207912 0.978148 0
    outer loop
      vertex -4.70378 44.7535 -1
      vertex -13.9058 42.7975 1
      vertex -4.70378 44.7535 1
    endloop
  endfacet
  facet normal -0.207912 0.978148 0
    outer loop
      vertex -13.9058 42.7975 1
      vertex -4.70378 44.7535 -1
      vertex -13.9058 42.7975 -1
    endloop
  endfacet
  facet normal 0.951057 -0.309017 0
    outer loop
      vertex 41.1095 -18.3031 1
      vertex 44.0166 -9.35603 -1
      vertex 44.0166 -9.35603 1
    endloop
  endfacet
  facet normal 0.951057 -0.309017 0
    outer loop
      vertex 44.0166 -9.35603 -1
      vertex 41.1095 -18.3031 1
      vertex 41.1095 -18.3031 -1
    endloop
  endfacet
  facet normal 0.866026 0.5 0
    outer loop
      vertex 41.1095 18.3031 1
      vertex 36.4058 26.4503 -1
      vertex 36.4058 26.4503 1
    endloop
  endfacet
  facet normal 0.866026 0.5 0
    outer loop
      vertex 36.4058 26.4503 -1
      vertex 41.1095 18.3031 1
      vertex 41.1095 18.3031 -1
    endloop
  endfacet
  facet normal 0.951057 0.309017 0
    outer loop
      vertex 44.0166 9.35603 1
      vertex 41.1095 18.3031 -1
      vertex 41.1095 18.3031 1
    endloop
  endfacet
  facet normal 0.951057 0.309017 0
    outer loop
      vertex 41.1095 18.3031 -1
      vertex 44.0166 9.35603 1
      vertex 44.0166 9.35603 -1
    endloop
  endfacet
  facet normal 0.406737 0.913545 -0
    outer loop
      vertex 22.5 38.9711 -1
      vertex 13.9058 42.7975 1
      vertex 22.5 38.9711 1
    endloop
  endfacet
  facet normal 0.406737 0.913545 0
    outer loop
      vertex 13.9058 42.7975 1
      vertex 22.5 38.9711 -1
      vertex 13.9058 42.7975 -1
    endloop
  endfacet
  facet normal 0.207912 0.978148 -0
    outer loop
      vertex 13.9058 42.7975 -1
      vertex 4.70378 44.7535 1
      vertex 13.9058 42.7975 1
    endloop
  endfacet
  facet normal 0.207912 0.978148 0
    outer loop
      vertex 4.70378 44.7535 1
      vertex 13.9058 42.7975 -1
      vertex 4.70378 44.7535 -1
    endloop
  endfacet
  facet normal 0.587785 0.809017 -0
    outer loop
      vertex 30.1109 33.4415 -1
      vertex 22.5 38.9711 1
      vertex 30.1109 33.4415 1
    endloop
  endfacet
  facet normal 0.587785 0.809017 0
    outer loop
      vertex 22.5 38.9711 1
      vertex 30.1109 33.4415 -1
      vertex 22.5 38.9711 -1
    endloop
  endfacet
  facet normal -0.866026 0.5 0
    outer loop
      vertex -41.1095 18.3031 -1
      vertex -36.4058 26.4503 1
      vertex -36.4058 26.4503 -1
    endloop
  endfacet
  facet normal -0.866026 0.5 0
    outer loop
      vertex -36.4058 26.4503 1
      vertex -41.1095 18.3031 -1
      vertex -41.1095 18.3031 1
    endloop
  endfacet
  facet normal -0.743145 0.669131 0
    outer loop
      vertex -36.4058 26.4503 -1
      vertex -30.1109 33.4415 1
      vertex -30.1109 33.4415 -1
    endloop
  endfacet
  facet normal -0.743145 0.669131 0
    outer loop
      vertex -30.1109 33.4415 1
      vertex -36.4058 26.4503 -1
      vertex -36.4058 26.4503 1
    endloop
  endfacet
  facet normal -0.951057 0.309017 0
    outer loop
      vertex -44.0166 9.35603 -1
      vertex -41.1095 18.3031 1
      vertex -41.1095 18.3031 -1
    endloop
  endfacet
  facet normal -0.951057 0.309017 0
    outer loop
      vertex -41.1095 18.3031 1
      vertex -44.0166 9.35603 -1
      vertex -44.0166 9.35603 1
    endloop
  endfacet
  facet normal 0 0 1
    outer loop
      vertex -41.1095 18.3031 1
      vertex -3.5 21 1
      vertex -22.445 30.0501 1
    endloop
  endfacet
  facet normal 0 0 1
    outer loop
      vertex -3.5 -21 1
      vertex -20.753 -30.4363 1
      vertex -20 -32 1
    endloop
  endfacet
  facet normal 0 0 1
    outer loop
      vertex -45 0 1
      vertex -3.5 21 1
      vertex -44.0166 9.35603 1
    endloop
  endfacet
  facet normal -0 -0 1
    outer loop
      vertex -44.0166 -9.35603 1
      vertex -3.5 -21 1
      vertex -45 0 1
    endloop
  endfacet
  facet normal 0 0 1
    outer loop
      vertex -36.4058 26.4503 1
      vertex -22.445 30.0501 1
      vertex -23.8019 31.1322 1
    endloop
  endfacet
  facet normal 0 0 1
    outer loop
      vertex -3.5 -21 1
      vertex -22.445 -30.0501 1
      vertex -20.753 -30.4363 1
    endloop
  endfacet
  facet normal 0 0 1
    outer loop
      vertex -3.5 -21 1
      vertex -20 -32 1
      vertex -13.9058 -42.7975 1
    endloop
  endfacet
  facet normal -0 0 1
    outer loop
      vertex -20.753 -33.5637 1
      vertex -13.9058 -42.7975 1
      vertex -20 -32 1
    endloop
  endfacet
  facet normal 0 0 1
    outer loop
      vertex -22.5 -38.9711 1
      vertex -20.753 -33.5637 1
      vertex -22.445 -33.9499 1
    endloop
  endfacet
  facet normal 0 0 1
    outer loop
      vertex -20.753 -33.5637 1
      vertex -22.5 -38.9711 1
      vertex -13.9058 -42.7975 1
    endloop
  endfacet
  facet normal 0 0 1
    outer loop
      vertex -23.8019 -32.8678 1
      vertex -22.5 -38.9711 1
      vertex -22.445 -33.9499 1
    endloop
  endfacet
  facet normal 0 0 1
    outer loop
      vertex -23.8019 -32.8678 1
      vertex -30.1109 -33.4415 1
      vertex -22.5 -38.9711 1
    endloop
  endfacet
  facet normal 0 0 1
    outer loop
      vertex -23.8019 -31.1322 1
      vertex -30.1109 -33.4415 1
      vertex -23.8019 -32.8678 1
    endloop
  endfacet
  facet normal 0 0 1
    outer loop
      vertex -3.5 21 1
      vertex -41.1095 18.3031 1
      vertex -44.0166 9.35603 1
    endloop
  endfacet
  facet normal 0 0 1
    outer loop
      vertex -23.8019 -31.1322 1
      vertex -36.4058 -26.4503 1
      vertex -30.1109 -33.4415 1
    endloop
  endfacet
  facet normal 0 0 1
    outer loop
      vertex -3.5 21 1
      vertex -45 0 1
      vertex -3.5 -21 1
    endloop
  endfacet
  facet normal 0 0 1
    outer loop
      vertex -22.445 -30.0501 1
      vertex -36.4058 -26.4503 1
      vertex -23.8019 -31.1322 1
    endloop
  endfacet
  facet normal -0 -0 1
    outer loop
      vertex -41.1095 -18.3031 1
      vertex -3.5 -21 1
      vertex -44.0166 -9.35603 1
    endloop
  endfacet
  facet normal -0 -0 1
    outer loop
      vertex -36.4058 -26.4503 1
      vertex -22.445 -30.0501 1
      vertex -41.1095 -18.3031 1
    endloop
  endfacet
  facet normal 0 0 1
    outer loop
      vertex -3.5 -21 1
      vertex -41.1095 -18.3031 1
      vertex -22.445 -30.0501 1
    endloop
  endfacet
  facet normal 0 0 1
    outer loop
      vertex -3.5 -21 1
      vertex 8.19806 -8.13223 1
      vertex -3.5 21 1
    endloop
  endfacet
  facet normal 0 0 1
    outer loop
      vertex 8.19806 -8.13223 1
      vertex -3.5 -21 1
      vertex 3.5 -21 1
    endloop
  endfacet
  facet normal 0 0 1
    outer loop
      vertex 8.19806 -8.13223 1
      vertex 3.5 -21 1
      vertex 8.19806 -9.86777 1
    endloop
  endfacet
  facet normal 0 0 1
    outer loop
      vertex 3.5 -25 1
      vertex 8.19806 -9.86777 1
      vertex 3.5 -21 1
    endloop
  endfacet
  facet normal 0 0 1
    outer loop
      vertex 8.19806 -9.86777 1
      vertex 3.5 -25 1
      vertex 4.70378 -44.7535 1
    endloop
  endfacet
  facet normal -0 0 1
    outer loop
      vertex -3.5 -25 1
      vertex 4.70378 -44.7535 1
      vertex 3.5 -25 1
    endloop
  endfacet
  facet normal 0 0 1
    outer loop
      vertex -3.5 -25 1
      vertex -4.70378 -44.7535 1
      vertex 4.70378 -44.7535 1
    endloop
  endfacet
  facet normal 0 0 1
    outer loop
      vertex -3.5 -21 1
      vertex -4.70378 -44.7535 1
      vertex -3.5 -25 1
    endloop
  endfacet
  facet normal 0 0 1
    outer loop
      vertex -20 32 1
      vertex -4.70378 44.7535 1
      vertex -13.9058 42.7975 1
    endloop
  endfacet
  facet normal -0 0 1
    outer loop
      vertex -22.445 30.0501 1
      vertex -3.5 21 1
      vertex -20.753 30.4363 1
    endloop
  endfacet
  facet normal 0 0 1
    outer loop
      vertex -3.5 -21 1
      vertex -13.9058 -42.7975 1
      vertex -4.70378 -44.7535 1
    endloop
  endfacet
  facet normal 0 0 1
    outer loop
      vertex -13.9058 42.7975 1
      vertex -20.753 33.5637 1
      vertex -20 32 1
    endloop
  endfacet
  facet normal -0 0 1
    outer loop
      vertex -22.5 38.9711 1
      vertex -20.753 33.5637 1
      vertex -13.9058 42.7975 1
    endloop
  endfacet
  facet normal 0 0 1
    outer loop
      vertex -20.753 33.5637 1
      vertex -22.5 38.9711 1
      vertex -22.445 33.9499 1
    endloop
  endfacet
  facet normal 0 0 1
    outer loop
      vertex -22.5 38.9711 1
      vertex -23.8019 32.8678 1
      vertex -22.445 33.9499 1
    endloop
  endfacet
  facet normal 0 0 1
    outer loop
      vertex -30.1109 33.4415 1
      vertex -23.8019 31.1322 1
      vertex -23.8019 32.8678 1
    endloop
  endfacet
  facet normal 0 0 1
    outer loop
      vertex -36.4058 26.4503 1
      vertex -23.8019 31.1322 1
      vertex -30.1109 33.4415 1
    endloop
  endfacet
  facet normal 0 0 1
    outer loop
      vertex -22.445 30.0501 1
      vertex -36.4058 26.4503 1
      vertex -41.1095 18.3031 1
    endloop
  endfacet
  facet normal -0 0 1
    outer loop
      vertex -30.1109 33.4415 1
      vertex -23.8019 32.8678 1
      vertex -22.5 38.9711 1
    endloop
  endfacet
  facet normal 0 0 1
    outer loop
      vertex 22.555 -7.05014 1
      vertex 11.247 -7.43634 1
      vertex 21.1981 -8.13223 1
    endloop
  endfacet
  facet normal 0 0 1
    outer loop
      vertex 21.1981 -8.13223 1
      vertex 11.247 -7.43634 1
      vertex 12 -9 1
    endloop
  endfacet
  facet normal -0 0 1
    outer loop
      vertex 9.55496 7.05014 1
      vertex 11.247 -7.43634 1
      vertex 11.247 7.43634 1
    endloop
  endfacet
  facet normal 0 0 1
    outer loop
      vertex 9.55496 7.05014 1
      vertex 9.55496 -7.05014 1
      vertex 11.247 -7.43634 1
    endloop
  endfacet
  facet normal 0 0 1
    outer loop
      vertex 8.19806 8.13223 1
      vertex 9.55496 -7.05014 1
      vertex 9.55496 7.05014 1
    endloop
  endfacet
  facet normal 0 0 1
    outer loop
      vertex 9.55496 -7.05014 1
      vertex 8.19806 8.13223 1
      vertex 8.19806 -8.13223 1
    endloop
  endfacet
  facet normal 0 0 1
    outer loop
      vertex 21.555 -30.0501 1
      vertex 11.247 -10.5637 1
      vertex 20.1981 -31.1322 1
    endloop
  endfacet
  facet normal -0 0 1
    outer loop
      vertex 9.55496 -10.9499 1
      vertex 20.1981 -31.1322 1
      vertex 11.247 -10.5637 1
    endloop
  endfacet
  facet normal 0 0 1
    outer loop
      vertex 4.70378 -44.7535 1
      vertex 20.1981 -31.1322 1
      vertex 9.55496 -10.9499 1
    endloop
  endfacet
  facet normal 0 0 1
    outer loop
      vertex 4.70378 -44.7535 1
      vertex 9.55496 -10.9499 1
      vertex 8.19806 -9.86777 1
    endloop
  endfacet
  facet normal 0 0 1
    outer loop
      vertex 20.1981 -31.1322 1
      vertex 4.70378 -44.7535 1
      vertex 13.9058 -42.7975 1
    endloop
  endfacet
  facet normal 0 0 1
    outer loop
      vertex 8.19806 8.13223 1
      vertex -3.5 21 1
      vertex 8.19806 -8.13223 1
    endloop
  endfacet
  facet normal 0 0 1
    outer loop
      vertex 8.19806 9.86777 1
      vertex -3.5 21 1
      vertex 8.19806 8.13223 1
    endloop
  endfacet
  facet normal 0 0 1
    outer loop
      vertex 4.70378 44.7535 1
      vertex -3.5 25 1
      vertex 3.5 25 1
    endloop
  endfacet
  facet normal -0 0 1
    outer loop
      vertex -20 32 1
      vertex -3.5 25 1
      vertex -4.70378 44.7535 1
    endloop
  endfacet
  facet normal -0 0 1
    outer loop
      vertex -20.753 30.4363 1
      vertex -3.5 25 1
      vertex -20 32 1
    endloop
  endfacet
  facet normal 0 0 1
    outer loop
      vertex -3.5 25 1
      vertex -20.753 30.4363 1
      vertex -3.5 21 1
    endloop
  endfacet
  facet normal -0 0 1
    outer loop
      vertex -4.70378 44.7535 1
      vertex -3.5 25 1
      vertex 4.70378 44.7535 1
    endloop
  endfacet
  facet normal 0 0 1
    outer loop
      vertex 30.1109 -33.4415 1
      vertex 23.247 -30.4363 1
      vertex 24 -32 1
    endloop
  endfacet
  facet normal -0 0 1
    outer loop
      vertex 22.555 -10.9499 1
      vertex 23.247 -30.4363 1
      vertex 24.247 -10.5637 1
    endloop
  endfacet
  facet normal 0 0 1
    outer loop
      vertex 22.555 -10.9499 1
      vertex 21.555 -30.0501 1
      vertex 23.247 -30.4363 1
    endloop
  endfacet
  facet normal 0 0 1
    outer loop
      vertex 11.247 -10.5637 1
      vertex 21.1981 -9.86777 1
      vertex 12 -9 1
    endloop
  endfacet
  facet normal 0 0 1
    outer loop
      vertex 11.247 -7.43634 1
      vertex 22.555 -7.05014 1
      vertex 11.247 7.43634 1
    endloop
  endfacet
  facet normal 0 0 1
    outer loop
      vertex 21.1981 -8.13223 1
      vertex 12 -9 1
      vertex 21.1981 -9.86777 1
    endloop
  endfacet
  facet normal 0 0 1
    outer loop
      vertex 24.247 -7.43634 1
      vertex 45 0 1
      vertex 24.247 7.43634 1
    endloop
  endfacet
  facet normal 0 0 1
    outer loop
      vertex 45 0 1
      vertex 24.247 -7.43634 1
      vertex 25 -9 1
    endloop
  endfacet
  facet normal -0 0 1
    outer loop
      vertex 22.555 7.05014 1
      vertex 24.247 -7.43634 1
      vertex 24.247 7.43634 1
    endloop
  endfacet
  facet normal 0 0 1
    outer loop
      vertex 22.555 7.05014 1
      vertex 22.555 -7.05014 1
      vertex 24.247 -7.43634 1
    endloop
  endfacet
  facet normal -0 0 1
    outer loop
      vertex 11.247 7.43634 1
      vertex 22.555 7.05014 1
      vertex 21.1981 8.13223 1
    endloop
  endfacet
  facet normal 0 0 1
    outer loop
      vertex 22.555 7.05014 1
      vertex 11.247 7.43634 1
      vertex 22.555 -7.05014 1
    endloop
  endfacet
  facet normal -0 0 1
    outer loop
      vertex 25 9 1
      vertex 45 0 1
      vertex 44.0166 9.35603 1
    endloop
  endfacet
  facet normal 0 0 1
    outer loop
      vertex 25 9 1
      vertex 44.0166 9.35603 1
      vertex 41.1095 18.3031 1
    endloop
  endfacet
  facet normal -0 0 1
    outer loop
      vertex 24.247 7.43634 1
      vertex 45 0 1
      vertex 25 9 1
    endloop
  endfacet
  facet normal 0 0 1
    outer loop
      vertex 24.247 10.5637 1
      vertex 41.1095 18.3031 1
      vertex 36.4058 26.4503 1
    endloop
  endfacet
  facet normal 0 0 1
    outer loop
      vertex 45 0 1
      vertex 25 -9 1
      vertex 44.0166 -9.35603 1
    endloop
  endfacet
  facet normal -0 0 1
    outer loop
      vertex 23.247 30.4363 1
      vertex 36.4058 26.4503 1
      vertex 30.1109 33.4415 1
    endloop
  endfacet
  facet normal 0 0 1
    outer loop
      vertex 44.0166 -9.35603 1
      vertex 25 -9 1
      vertex 41.1095 -18.3031 1
    endloop
  endfacet
  facet normal -0 0 1
    outer loop
      vertex 24.247 -10.5637 1
      vertex 41.1095 -18.3031 1
      vertex 25 -9 1
    endloop
  endfacet
  facet normal 0 0 1
    outer loop
      vertex 41.1095 18.3031 1
      vertex 24.247 10.5637 1
      vertex 25 9 1
    endloop
  endfacet
  facet normal 0 0 1
    outer loop
      vertex 23.247 30.4363 1
      vertex 30.1109 33.4415 1
      vertex 24 32 1
    endloop
  endfacet
  facet normal 0 0 1
    outer loop
      vertex 30.1109 33.4415 1
      vertex 23.247 33.5637 1
      vertex 24 32 1
    endloop
  endfacet
  facet normal 0 0 1
    outer loop
      vertex 22.5 38.9711 1
      vertex 23.247 33.5637 1
      vertex 30.1109 33.4415 1
    endloop
  endfacet
  facet normal 0 0 1
    outer loop
      vertex 22.5 38.9711 1
      vertex 21.555 33.9499 1
      vertex 23.247 33.5637 1
    endloop
  endfacet
  facet normal 0 0 1
    outer loop
      vertex 22.5 38.9711 1
      vertex 20.1981 32.8678 1
      vertex 21.555 33.9499 1
    endloop
  endfacet
  facet normal 0 0 1
    outer loop
      vertex 3.5 25 1
      vertex 20.1981 32.8678 1
      vertex 13.9058 42.7975 1
    endloop
  endfacet
  facet normal 0 0 1
    outer loop
      vertex 21.1981 -9.86777 1
      vertex 11.247 -10.5637 1
      vertex 22.555 -10.9499 1
    endloop
  endfacet
  facet normal 0 0 1
    outer loop
      vertex 3.5 25 1
      vertex 13.9058 42.7975 1
      vertex 4.70378 44.7535 1
    endloop
  endfacet
  facet normal 0 0 1
    outer loop
      vertex 13.9058 42.7975 1
      vertex 20.1981 32.8678 1
      vertex 22.5 38.9711 1
    endloop
  endfacet
  facet normal 0 0 1
    outer loop
      vertex 41.1095 -18.3031 1
      vertex 24.247 -10.5637 1
      vertex 36.4058 -26.4503 1
    endloop
  endfacet
  facet normal 0 0 1
    outer loop
      vertex 23.247 -30.4363 1
      vertex 36.4058 -26.4503 1
      vertex 24.247 -10.5637 1
    endloop
  endfacet
  facet normal -0 0 1
    outer loop
      vertex 23.247 -30.4363 1
      vertex 30.1109 -33.4415 1
      vertex 36.4058 -26.4503 1
    endloop
  endfacet
  facet normal 0 0 1
    outer loop
      vertex 23.247 -33.5637 1
      vertex 30.1109 -33.4415 1
      vertex 24 -32 1
    endloop
  endfacet
  facet normal -0 0 1
    outer loop
      vertex 23.247 -33.5637 1
      vertex 22.5 -38.9711 1
      vertex 30.1109 -33.4415 1
    endloop
  endfacet
  facet normal -0 0 1
    outer loop
      vertex 21.555 -33.9499 1
      vertex 22.5 -38.9711 1
      vertex 23.247 -33.5637 1
    endloop
  endfacet
  facet normal 0 0 1
    outer loop
      vertex 20.1981 -32.8678 1
      vertex 22.5 -38.9711 1
      vertex 21.555 -33.9499 1
    endloop
  endfacet
  facet normal 0 0 1
    outer loop
      vertex 20.1981 -32.8678 1
      vertex 13.9058 -42.7975 1
      vertex 22.5 -38.9711 1
    endloop
  endfacet
  facet normal 0 0 1
    outer loop
      vertex 22.555 -10.9499 1
      vertex 11.247 -10.5637 1
      vertex 21.555 -30.0501 1
    endloop
  endfacet
  facet normal 0 0 1
    outer loop
      vertex 20.1981 -31.1322 1
      vertex 13.9058 -42.7975 1
      vertex 20.1981 -32.8678 1
    endloop
  endfacet
  facet normal 0 0 1
    outer loop
      vertex 20.1981 31.1322 1
      vertex 11.247 10.5637 1
      vertex 12 9 1
    endloop
  endfacet
  facet normal 0 0 1
    outer loop
      vertex 3.5 21 1
      vertex 20.1981 31.1322 1
      vertex 3.5 25 1
    endloop
  endfacet
  facet normal 0 0 1
    outer loop
      vertex 20.1981 32.8678 1
      vertex 3.5 25 1
      vertex 20.1981 31.1322 1
    endloop
  endfacet
  facet normal 0 0 1
    outer loop
      vertex 11.247 10.5637 1
      vertex 3.5 21 1
      vertex 9.55496 10.9499 1
    endloop
  endfacet
  facet normal 0 0 1
    outer loop
      vertex 9.55496 10.9499 1
      vertex 3.5 21 1
      vertex 8.19806 9.86777 1
    endloop
  endfacet
  facet normal -0 0 1
    outer loop
      vertex -3.5 21 1
      vertex 8.19806 9.86777 1
      vertex 3.5 21 1
    endloop
  endfacet
  facet normal 0 0 1
    outer loop
      vertex 20.1981 31.1322 1
      vertex 3.5 21 1
      vertex 11.247 10.5637 1
    endloop
  endfacet
  facet normal 0 0 1
    outer loop
      vertex 36.4058 26.4503 1
      vertex 23.247 30.4363 1
      vertex 24.247 10.5637 1
    endloop
  endfacet
  facet normal 0 0 1
    outer loop
      vertex 23.247 30.4363 1
      vertex 22.555 10.9499 1
      vertex 24.247 10.5637 1
    endloop
  endfacet
  facet normal -0 0 1
    outer loop
      vertex 21.555 30.0501 1
      vertex 22.555 10.9499 1
      vertex 23.247 30.4363 1
    endloop
  endfacet
  facet normal 0 0 1
    outer loop
      vertex 12 9 1
      vertex 22.555 10.9499 1
      vertex 21.555 30.0501 1
    endloop
  endfacet
  facet normal 0 0 1
    outer loop
      vertex 22.555 10.9499 1
      vertex 12 9 1
      vertex 21.1981 9.86777 1
    endloop
  endfacet
  facet normal 0 0 1
    outer loop
      vertex 21.1981 9.86777 1
      vertex 12 9 1
      vertex 21.1981 8.13223 1
    endloop
  endfacet
  facet normal 0 0 1
    outer loop
      vertex 11.247 7.43634 1
      vertex 21.1981 8.13223 1
      vertex 12 9 1
    endloop
  endfacet
  facet normal 0 0 1
    outer loop
      vertex 12 9 1
      vertex 21.555 30.0501 1
      vertex 20.1981 31.1322 1
    endloop
  endfacet
  facet normal -0.406737 0.913545 0
    outer loop
      vertex -13.9058 42.7975 -1
      vertex -22.5 38.9711 1
      vertex -13.9058 42.7975 1
    endloop
  endfacet
  facet normal -0.406737 0.913545 0
    outer loop
      vertex -22.5 38.9711 1
      vertex -13.9058 42.7975 -1
      vertex -22.5 38.9711 -1
    endloop
  endfacet
  facet normal 0.994522 -0.104529 0
    outer loop
      vertex 44.0166 -9.35603 1
      vertex 45 0 -1
      vertex 45 0 1
    endloop
  endfacet
  facet normal 0.994522 -0.104529 0
    outer loop
      vertex 45 0 -1
      vertex 44.0166 -9.35603 1
      vertex 44.0166 -9.35603 -1
    endloop
  endfacet
  facet normal 0 0 -1
    outer loop
      vertex -41.1095 -18.3031 -1
      vertex -3.5 -21 -1
      vertex -22.445 -30.0501 -1
    endloop
  endfacet
  facet normal 0 0 -1
    outer loop
      vertex -3.5 21 -1
      vertex -20.753 30.4363 -1
      vertex -20 32 -1
    endloop
  endfacet
  facet normal 0 0 -1
    outer loop
      vertex -45 0 -1
      vertex -3.5 -21 -1
      vertex -44.0166 -9.35603 -1
    endloop
  endfacet
  facet normal 0 -0 -1
    outer loop
      vertex -44.0166 9.35603 -1
      vertex -3.5 21 -1
      vertex -45 0 -1
    endloop
  endfacet
  facet normal 0 0 -1
    outer loop
      vertex -36.4058 -26.4503 -1
      vertex -22.445 -30.0501 -1
      vertex -23.8019 -31.1322 -1
    endloop
  endfacet
  facet normal 0 0 -1
    outer loop
      vertex -3.5 21 -1
      vertex -22.445 30.0501 -1
      vertex -20.753 30.4363 -1
    endloop
  endfacet
  facet normal 0 0 -1
    outer loop
      vertex -3.5 21 -1
      vertex -20 32 -1
      vertex -13.9058 42.7975 -1
    endloop
  endfacet
  facet normal 0 0 -1
    outer loop
      vertex -20.753 33.5637 -1
      vertex -13.9058 42.7975 -1
      vertex -20 32 -1
    endloop
  endfacet
  facet normal 0 0 -1
    outer loop
      vertex -22.5 38.9711 -1
      vertex -20.753 33.5637 -1
      vertex -22.445 33.9499 -1
    endloop
  endfacet
  facet normal 0 0 -1
    outer loop
      vertex -20.753 33.5637 -1
      vertex -22.5 38.9711 -1
      vertex -13.9058 42.7975 -1
    endloop
  endfacet
  facet normal 0 0 -1
    outer loop
      vertex -23.8019 32.8678 -1
      vertex -22.5 38.9711 -1
      vertex -22.445 33.9499 -1
    endloop
  endfacet
  facet normal 0 0 -1
    outer loop
      vertex -23.8019 32.8678 -1
      vertex -30.1109 33.4415 -1
      vertex -22.5 38.9711 -1
    endloop
  endfacet
  facet normal 0 0 -1
    outer loop
      vertex -23.8019 31.1322 -1
      vertex -30.1109 33.4415 -1
      vertex -23.8019 32.8678 -1
    endloop
  endfacet
  facet normal 0 0 -1
    outer loop
      vertex -3.5 -21 -1
      vertex -41.1095 -18.3031 -1
      vertex -44.0166 -9.35603 -1
    endloop
  endfacet
  facet normal -0 0 -1
    outer loop
      vertex -23.8019 31.1322 -1
      vertex -36.4058 26.4503 -1
      vertex -30.1109 33.4415 -1
    endloop
  endfacet
  facet normal 0 0 -1
    outer loop
      vertex -3.5 -21 -1
      vertex -45 0 -1
      vertex -3.5 21 -1
    endloop
  endfacet
  facet normal -0 0 -1
    outer loop
      vertex -22.445 30.0501 -1
      vertex -36.4058 26.4503 -1
      vertex -23.8019 31.1322 -1
    endloop
  endfacet
  facet normal 0 -0 -1
    outer loop
      vertex -41.1095 18.3031 -1
      vertex -3.5 21 -1
      vertex -44.0166 9.35603 -1
    endloop
  endfacet
  facet normal 0 -0 -1
    outer loop
      vertex -36.4058 26.4503 -1
      vertex -22.445 30.0501 -1
      vertex -41.1095 18.3031 -1
    endloop
  endfacet
  facet normal -0 0 -1
    outer loop
      vertex -3.5 21 -1
      vertex -41.1095 18.3031 -1
      vertex -22.445 30.0501 -1
    endloop
  endfacet
  facet normal 0 0 -1
    outer loop
      vertex -3.5 21 -1
      vertex 8.19806 8.13223 -1
      vertex -3.5 -21 -1
    endloop
  endfacet
  facet normal 0 0 -1
    outer loop
      vertex 8.19806 8.13223 -1
      vertex -3.5 21 -1
      vertex 3.5 21 -1
    endloop
  endfacet
  facet normal 0 0 -1
    outer loop
      vertex 8.19806 8.13223 -1
      vertex 3.5 21 -1
      vertex 8.19806 9.86777 -1
    endloop
  endfacet
  facet normal 0 0 -1
    outer loop
      vertex 3.5 25 -1
      vertex 8.19806 9.86777 -1
      vertex 3.5 21 -1
    endloop
  endfacet
  facet normal 0 0 -1
    outer loop
      vertex 8.19806 9.86777 -1
      vertex 3.5 25 -1
      vertex 4.70378 44.7535 -1
    endloop
  endfacet
  facet normal 0 0 -1
    outer loop
      vertex -3.5 25 -1
      vertex 4.70378 44.7535 -1
      vertex 3.5 25 -1
    endloop
  endfacet
  facet normal 0 0 -1
    outer loop
      vertex -3.5 25 -1
      vertex -4.70378 44.7535 -1
      vertex 4.70378 44.7535 -1
    endloop
  endfacet
  facet normal 0 0 -1
    outer loop
      vertex -3.5 21 -1
      vertex -4.70378 44.7535 -1
      vertex -3.5 25 -1
    endloop
  endfacet
  facet normal 0 0 -1
    outer loop
      vertex -20 -32 -1
      vertex -4.70378 -44.7535 -1
      vertex -13.9058 -42.7975 -1
    endloop
  endfacet
  facet normal 0 0 -1
    outer loop
      vertex -22.445 -30.0501 -1
      vertex -3.5 -21 -1
      vertex -20.753 -30.4363 -1
    endloop
  endfacet
  facet normal 0 0 -1
    outer loop
      vertex -3.5 21 -1
      vertex -13.9058 42.7975 -1
      vertex -4.70378 44.7535 -1
    endloop
  endfacet
  facet normal 0 0 -1
    outer loop
      vertex -13.9058 -42.7975 -1
      vertex -20.753 -33.5637 -1
      vertex -20 -32 -1
    endloop
  endfacet
  facet normal 0 0 -1
    outer loop
      vertex -22.5 -38.9711 -1
      vertex -20.753 -33.5637 -1
      vertex -13.9058 -42.7975 -1
    endloop
  endfacet
  facet normal 0 0 -1
    outer loop
      vertex -20.753 -33.5637 -1
      vertex -22.5 -38.9711 -1
      vertex -22.445 -33.9499 -1
    endloop
  endfacet
  facet normal 0 0 -1
    outer loop
      vertex -22.5 -38.9711 -1
      vertex -23.8019 -32.8678 -1
      vertex -22.445 -33.9499 -1
    endloop
  endfacet
  facet normal 0 0 -1
    outer loop
      vertex -30.1109 -33.4415 -1
      vertex -23.8019 -31.1322 -1
      vertex -23.8019 -32.8678 -1
    endloop
  endfacet
  facet normal 0 0 -1
    outer loop
      vertex -36.4058 -26.4503 -1
      vertex -23.8019 -31.1322 -1
      vertex -30.1109 -33.4415 -1
    endloop
  endfacet
  facet normal 0 0 -1
    outer loop
      vertex -22.445 -30.0501 -1
      vertex -36.4058 -26.4503 -1
      vertex -41.1095 -18.3031 -1
    endloop
  endfacet
  facet normal 0 0 -1
    outer loop
      vertex -30.1109 -33.4415 -1
      vertex -23.8019 -32.8678 -1
      vertex -22.5 -38.9711 -1
    endloop
  endfacet
  facet normal 0 0 -1
    outer loop
      vertex 22.555 7.05014 -1
      vertex 11.247 7.43634 -1
      vertex 21.1981 8.13223 -1
    endloop
  endfacet
  facet normal -0 0 -1
    outer loop
      vertex 21.1981 8.13223 -1
      vertex 11.247 7.43634 -1
      vertex 12 9 -1
    endloop
  endfacet
  facet normal 0 0 -1
    outer loop
      vertex 9.55496 -7.05014 -1
      vertex 11.247 7.43634 -1
      vertex 11.247 -7.43634 -1
    endloop
  endfacet
  facet normal 0 0 -1
    outer loop
      vertex 9.55496 -7.05014 -1
      vertex 9.55496 7.05014 -1
      vertex 11.247 7.43634 -1
    endloop
  endfacet
  facet normal 0 0 -1
    outer loop
      vertex 8.19806 -8.13223 -1
      vertex 9.55496 7.05014 -1
      vertex 9.55496 -7.05014 -1
    endloop
  endfacet
  facet normal -0 0 -1
    outer loop
      vertex 9.55496 7.05014 -1
      vertex 8.19806 -8.13223 -1
      vertex 8.19806 8.13223 -1
    endloop
  endfacet
  facet normal -0 0 -1
    outer loop
      vertex 21.555 30.0501 -1
      vertex 11.247 10.5637 -1
      vertex 20.1981 31.1322 -1
    endloop
  endfacet
  facet normal 0 0 -1
    outer loop
      vertex 9.55496 10.9499 -1
      vertex 20.1981 31.1322 -1
      vertex 11.247 10.5637 -1
    endloop
  endfacet
  facet normal 0 0 -1
    outer loop
      vertex 4.70378 44.7535 -1
      vertex 20.1981 31.1322 -1
      vertex 9.55496 10.9499 -1
    endloop
  endfacet
  facet normal 0 0 -1
    outer loop
      vertex 4.70378 44.7535 -1
      vertex 9.55496 10.9499 -1
      vertex 8.19806 9.86777 -1
    endloop
  endfacet
  facet normal 0 0 -1
    outer loop
      vertex 20.1981 31.1322 -1
      vertex 4.70378 44.7535 -1
      vertex 13.9058 42.7975 -1
    endloop
  endfacet
  facet normal -0 0 -1
    outer loop
      vertex 8.19806 -8.13223 -1
      vertex -3.5 -21 -1
      vertex 8.19806 8.13223 -1
    endloop
  endfacet
  facet normal -0 0 -1
    outer loop
      vertex 8.19806 -9.86777 -1
      vertex -3.5 -21 -1
      vertex 8.19806 -8.13223 -1
    endloop
  endfacet
  facet normal 0 0 -1
    outer loop
      vertex 4.70378 -44.7535 -1
      vertex -3.5 -25 -1
      vertex 3.5 -25 -1
    endloop
  endfacet
  facet normal 0 0 -1
    outer loop
      vertex -20 -32 -1
      vertex -3.5 -25 -1
      vertex -4.70378 -44.7535 -1
    endloop
  endfacet
  facet normal 0 0 -1
    outer loop
      vertex -20.753 -30.4363 -1
      vertex -3.5 -25 -1
      vertex -20 -32 -1
    endloop
  endfacet
  facet normal -0 0 -1
    outer loop
      vertex -3.5 -25 -1
      vertex -20.753 -30.4363 -1
      vertex -3.5 -21 -1
    endloop
  endfacet
  facet normal 0 0 -1
    outer loop
      vertex -4.70378 -44.7535 -1
      vertex -3.5 -25 -1
      vertex 4.70378 -44.7535 -1
    endloop
  endfacet
  facet normal 0 0 -1
    outer loop
      vertex 30.1109 33.4415 -1
      vertex 23.247 30.4363 -1
      vertex 24 32 -1
    endloop
  endfacet
  facet normal 0 0 -1
    outer loop
      vertex 22.555 10.9499 -1
      vertex 23.247 30.4363 -1
      vertex 24.247 10.5637 -1
    endloop
  endfacet
  facet normal 0 0 -1
    outer loop
      vertex 22.555 10.9499 -1
      vertex 21.555 30.0501 -1
      vertex 23.247 30.4363 -1
    endloop
  endfacet
  facet normal 0 0 -1
    outer loop
      vertex 11.247 10.5637 -1
      vertex 21.1981 9.86777 -1
      vertex 12 9 -1
    endloop
  endfacet
  facet normal 0 0 -1
    outer loop
      vertex 11.247 7.43634 -1
      vertex 22.555 7.05014 -1
      vertex 11.247 -7.43634 -1
    endloop
  endfacet
  facet normal 0 0 -1
    outer loop
      vertex 21.1981 8.13223 -1
      vertex 12 9 -1
      vertex 21.1981 9.86777 -1
    endloop
  endfacet
  facet normal 0 0 -1
    outer loop
      vertex 24.247 7.43634 -1
      vertex 45 0 -1
      vertex 24.247 -7.43634 -1
    endloop
  endfacet
  facet normal 0 0 -1
    outer loop
      vertex 45 0 -1
      vertex 24.247 7.43634 -1
      vertex 25 9 -1
    endloop
  endfacet
  facet normal 0 0 -1
    outer loop
      vertex 22.555 -7.05014 -1
      vertex 24.247 7.43634 -1
      vertex 24.247 -7.43634 -1
    endloop
  endfacet
  facet normal 0 0 -1
    outer loop
      vertex 22.555 -7.05014 -1
      vertex 22.555 7.05014 -1
      vertex 24.247 7.43634 -1
    endloop
  endfacet
  facet normal 0 0 -1
    outer loop
      vertex 11.247 -7.43634 -1
      vertex 22.555 -7.05014 -1
      vertex 21.1981 -8.13223 -1
    endloop
  endfacet
  facet normal -0 0 -1
    outer loop
      vertex 22.555 -7.05014 -1
      vertex 11.247 -7.43634 -1
      vertex 22.555 7.05014 -1
    endloop
  endfacet
  facet normal 0 0 -1
    outer loop
      vertex 25 -9 -1
      vertex 45 0 -1
      vertex 44.0166 -9.35603 -1
    endloop
  endfacet
  facet normal 0 0 -1
    outer loop
      vertex 25 -9 -1
      vertex 44.0166 -9.35603 -1
      vertex 41.1095 -18.3031 -1
    endloop
  endfacet
  facet normal 0 0 -1
    outer loop
      vertex 24.247 -7.43634 -1
      vertex 45 0 -1
      vertex 25 -9 -1
    endloop
  endfacet
  facet normal 0 0 -1
    outer loop
      vertex 24.247 -10.5637 -1
      vertex 41.1095 -18.3031 -1
      vertex 36.4058 -26.4503 -1
    endloop
  endfacet
  facet normal 0 0 -1
    outer loop
      vertex 45 0 -1
      vertex 25 9 -1
      vertex 44.0166 9.35603 -1
    endloop
  endfacet
  facet normal 0 0 -1
    outer loop
      vertex 23.247 -30.4363 -1
      vertex 36.4058 -26.4503 -1
      vertex 30.1109 -33.4415 -1
    endloop
  endfacet
  facet normal -0 0 -1
    outer loop
      vertex 44.0166 9.35603 -1
      vertex 25 9 -1
      vertex 41.1095 18.3031 -1
    endloop
  endfacet
  facet normal 0 0 -1
    outer loop
      vertex 24.247 10.5637 -1
      vertex 41.1095 18.3031 -1
      vertex 25 9 -1
    endloop
  endfacet
  facet normal 0 0 -1
    outer loop
      vertex 41.1095 -18.3031 -1
      vertex 24.247 -10.5637 -1
      vertex 25 -9 -1
    endloop
  endfacet
  facet normal 0 0 -1
    outer loop
      vertex 23.247 -30.4363 -1
      vertex 30.1109 -33.4415 -1
      vertex 24 -32 -1
    endloop
  endfacet
  facet normal -0 0 -1
    outer loop
      vertex 30.1109 -33.4415 -1
      vertex 23.247 -33.5637 -1
      vertex 24 -32 -1
    endloop
  endfacet
  facet normal 0 0 -1
    outer loop
      vertex 22.5 -38.9711 -1
      vertex 23.247 -33.5637 -1
      vertex 30.1109 -33.4415 -1
    endloop
  endfacet
  facet normal 0 0 -1
    outer loop
      vertex 22.5 -38.9711 -1
      vertex 21.555 -33.9499 -1
      vertex 23.247 -33.5637 -1
    endloop
  endfacet
  facet normal 0 0 -1
    outer loop
      vertex 22.5 -38.9711 -1
      vertex 20.1981 -32.8678 -1
      vertex 21.555 -33.9499 -1
    endloop
  endfacet
  facet normal 0 0 -1
    outer loop
      vertex 3.5 -25 -1
      vertex 20.1981 -32.8678 -1
      vertex 13.9058 -42.7975 -1
    endloop
  endfacet
  facet normal 0 0 -1
    outer loop
      vertex 21.1981 9.86777 -1
      vertex 11.247 10.5637 -1
      vertex 22.555 10.9499 -1
    endloop
  endfacet
  facet normal 0 0 -1
    outer loop
      vertex 3.5 -25 -1
      vertex 13.9058 -42.7975 -1
      vertex 4.70378 -44.7535 -1
    endloop
  endfacet
  facet normal 0 0 -1
    outer loop
      vertex 13.9058 -42.7975 -1
      vertex 20.1981 -32.8678 -1
      vertex 22.5 -38.9711 -1
    endloop
  endfacet
  facet normal -0 0 -1
    outer loop
      vertex 41.1095 18.3031 -1
      vertex 24.247 10.5637 -1
      vertex 36.4058 26.4503 -1
    endloop
  endfacet
  facet normal 0 0 -1
    outer loop
      vertex 23.247 30.4363 -1
      vertex 36.4058 26.4503 -1
      vertex 24.247 10.5637 -1
    endloop
  endfacet
  facet normal 0 0 -1
    outer loop
      vertex 23.247 30.4363 -1
      vertex 30.1109 33.4415 -1
      vertex 36.4058 26.4503 -1
    endloop
  endfacet
  facet normal 0 0 -1
    outer loop
      vertex 23.247 33.5637 -1
      vertex 30.1109 33.4415 -1
      vertex 24 32 -1
    endloop
  endfacet
  facet normal 0 0 -1
    outer loop
      vertex 23.247 33.5637 -1
      vertex 22.5 38.9711 -1
      vertex 30.1109 33.4415 -1
    endloop
  endfacet
  facet normal 0 0 -1
    outer loop
      vertex 21.555 33.9499 -1
      vertex 22.5 38.9711 -1
      vertex 23.247 33.5637 -1
    endloop
  endfacet
  facet normal 0 0 -1
    outer loop
      vertex 20.1981 32.8678 -1
      vertex 22.5 38.9711 -1
      vertex 21.555 33.9499 -1
    endloop
  endfacet
  facet normal 0 0 -1
    outer loop
      vertex 20.1981 32.8678 -1
      vertex 13.9058 42.7975 -1
      vertex 22.5 38.9711 -1
    endloop
  endfacet
  facet normal -0 0 -1
    outer loop
      vertex 22.555 10.9499 -1
      vertex 11.247 10.5637 -1
      vertex 21.555 30.0501 -1
    endloop
  endfacet
  facet normal 0 0 -1
    outer loop
      vertex 20.1981 31.1322 -1
      vertex 13.9058 42.7975 -1
      vertex 20.1981 32.8678 -1
    endloop
  endfacet
  facet normal 0 0 -1
    outer loop
      vertex 20.1981 -31.1322 -1
      vertex 11.247 -10.5637 -1
      vertex 12 -9 -1
    endloop
  endfacet
  facet normal 0 0 -1
    outer loop
      vertex 3.5 -21 -1
      vertex 20.1981 -31.1322 -1
      vertex 3.5 -25 -1
    endloop
  endfacet
  facet normal 0 0 -1
    outer loop
      vertex 20.1981 -32.8678 -1
      vertex 3.5 -25 -1
      vertex 20.1981 -31.1322 -1
    endloop
  endfacet
  facet normal 0 0 -1
    outer loop
      vertex 11.247 -10.5637 -1
      vertex 3.5 -21 -1
      vertex 9.55496 -10.9499 -1
    endloop
  endfacet
  facet normal -0 0 -1
    outer loop
      vertex 9.55496 -10.9499 -1
      vertex 3.5 -21 -1
      vertex 8.19806 -9.86777 -1
    endloop
  endfacet
  facet normal 0 0 -1
    outer loop
      vertex -3.5 -21 -1
      vertex 8.19806 -9.86777 -1
      vertex 3.5 -21 -1
    endloop
  endfacet
  facet normal 0 0 -1
    outer loop
      vertex 20.1981 -31.1322 -1
      vertex 3.5 -21 -1
      vertex 11.247 -10.5637 -1
    endloop
  endfacet
  facet normal -0 0 -1
    outer loop
      vertex 36.4058 -26.4503 -1
      vertex 23.247 -30.4363 -1
      vertex 24.247 -10.5637 -1
    endloop
  endfacet
  facet normal 0 0 -1
    outer loop
      vertex 23.247 -30.4363 -1
      vertex 22.555 -10.9499 -1
      vertex 24.247 -10.5637 -1
    endloop
  endfacet
  facet normal 0 0 -1
    outer loop
      vertex 21.555 -30.0501 -1
      vertex 22.555 -10.9499 -1
      vertex 23.247 -30.4363 -1
    endloop
  endfacet
  facet normal 0 0 -1
    outer loop
      vertex 12 -9 -1
      vertex 22.555 -10.9499 -1
      vertex 21.555 -30.0501 -1
    endloop
  endfacet
  facet normal 0 0 -1
    outer loop
      vertex 22.555 -10.9499 -1
      vertex 12 -9 -1
      vertex 21.1981 -9.86777 -1
    endloop
  endfacet
  facet normal 0 0 -1
    outer loop
      vertex 21.1981 -9.86777 -1
      vertex 12 -9 -1
      vertex 21.1981 -8.13223 -1
    endloop
  endfacet
  facet normal 0 0 -1
    outer loop
      vertex 11.247 -7.43634 -1
      vertex 21.1981 -8.13223 -1
      vertex 12 -9 -1
    endloop
  endfacet
  facet normal 0 0 -1
    outer loop
      vertex 12 -9 -1
      vertex 21.555 -30.0501 -1
      vertex 20.1981 -31.1322 -1
    endloop
  endfacet
  facet normal 0.207912 -0.978148 0
    outer loop
      vertex 4.70378 -44.7535 -1
      vertex 13.9058 -42.7975 1
      vertex 4.70378 -44.7535 1
    endloop
  endfacet
  facet normal 0.207912 -0.978148 0
    outer loop
      vertex 13.9058 -42.7975 1
      vertex 4.70378 -44.7535 -1
      vertex 13.9058 -42.7975 -1
    endloop
  endfacet
  facet normal 0.866026 -0.5 0
    outer loop
      vertex 36.4058 -26.4503 1
      vertex 41.1095 -18.3031 -1
      vertex 41.1095 -18.3031 1
    endloop
  endfacet
  facet normal 0.866026 -0.5 0
    outer loop
      vertex 41.1095 -18.3031 -1
      vertex 36.4058 -26.4503 1
      vertex 36.4058 -26.4503 -1
    endloop
  endfacet
  facet normal -0.866026 -0.5 0
    outer loop
      vertex -36.4058 -26.4503 -1
      vertex -41.1095 -18.3031 1
      vertex -41.1095 -18.3031 -1
    endloop
  endfacet
  facet normal -0.866026 -0.5 0
    outer loop
      vertex -41.1095 -18.3031 1
      vertex -36.4058 -26.4503 -1
      vertex -36.4058 -26.4503 1
    endloop
  endfacet
  facet normal -0.743145 -0.669131 0
    outer loop
      vertex -30.1109 -33.4415 -1
      vertex -36.4058 -26.4503 1
      vertex -36.4058 -26.4503 -1
    endloop
  endfacet
  facet normal -0.743145 -0.669131 0
    outer loop
      vertex -36.4058 -26.4503 1
      vertex -30.1109 -33.4415 -1
      vertex -30.1109 -33.4415 1
    endloop
  endfacet
  facet normal 0.587785 -0.809017 0
    outer loop
      vertex 22.5 -38.9711 -1
      vertex 30.1109 -33.4415 1
      vertex 22.5 -38.9711 1
    endloop
  endfacet
  facet normal 0.587785 -0.809017 0
    outer loop
      vertex 30.1109 -33.4415 1
      vertex 22.5 -38.9711 -1
      vertex 30.1109 -33.4415 -1
    endloop
  endfacet
  facet normal 0.406737 -0.913545 0
    outer loop
      vertex 13.9058 -42.7975 -1
      vertex 22.5 -38.9711 1
      vertex 13.9058 -42.7975 1
    endloop
  endfacet
  facet normal 0.406737 -0.913545 0
    outer loop
      vertex 22.5 -38.9711 1
      vertex 13.9058 -42.7975 -1
      vertex 22.5 -38.9711 -1
    endloop
  endfacet
  facet normal -0.207912 -0.978148 0
    outer loop
      vertex -13.9058 -42.7975 -1
      vertex -4.70378 -44.7535 1
      vertex -13.9058 -42.7975 1
    endloop
  endfacet
  facet normal -0.207912 -0.978148 -0
    outer loop
      vertex -4.70378 -44.7535 1
      vertex -13.9058 -42.7975 -1
      vertex -4.70378 -44.7535 -1
    endloop
  endfacet
  facet normal -0.951057 -0.309017 0
    outer loop
      vertex -41.1095 -18.3031 -1
      vertex -44.0166 -9.35603 1
      vertex -44.0166 -9.35603 -1
    endloop
  endfacet
  facet normal -0.951057 -0.309017 0
    outer loop
      vertex -44.0166 -9.35603 1
      vertex -41.1095 -18.3031 -1
      vertex -41.1095 -18.3031 1
    endloop
  endfacet
  facet normal -0.994522 -0.104529 0
    outer loop
      vertex -44.0166 -9.35603 -1
      vertex -45 0 1
      vertex -45 0 -1
    endloop
  endfacet
  facet normal -0.994522 -0.104529 0
    outer loop
      vertex -45 0 1
      vertex -44.0166 -9.35603 -1
      vertex -44.0166 -9.35603 1
    endloop
  endfacet
  facet normal 0.743145 -0.669131 0
    outer loop
      vertex 30.1109 -33.4415 1
      vertex 36.4058 -26.4503 -1
      vertex 36.4058 -26.4503 1
    endloop
  endfacet
  facet normal 0.743145 -0.669131 0
    outer loop
      vertex 36.4058 -26.4503 -1
      vertex 30.1109 -33.4415 1
      vertex 30.1109 -33.4415 -1
    endloop
  endfacet
  facet normal -0.406737 -0.913545 0
    outer loop
      vertex -22.5 -38.9711 -1
      vertex -13.9058 -42.7975 1
      vertex -22.5 -38.9711 1
    endloop
  endfacet
  facet normal -0.406737 -0.913545 -0
    outer loop
      vertex -13.9058 -42.7975 1
      vertex -22.5 -38.9711 -1
      vertex -13.9058 -42.7975 -1
    endloop
  endfacet
  facet normal -0.587785 -0.809017 0
    outer loop
      vertex -30.1109 -33.4415 -1
      vertex -22.5 -38.9711 1
      vertex -30.1109 -33.4415 1
    endloop
  endfacet
  facet normal -0.587785 -0.809017 -0
    outer loop
      vertex -22.5 -38.9711 1
      vertex -30.1109 -33.4415 -1
      vertex -22.5 -38.9711 -1
    endloop
  endfacet
endsolid OpenSCAD_Model
