solid OpenSCAD_Model
  facet normal -1 0 0
    outer loop
      vertex -10 -10 -1
      vertex -10 10 1
      vertex -10 10 -1
    endloop
  endfacet
  facet normal -1 -0 0
    outer loop
      vertex -10 10 1
      vertex -10 -10 -1
      vertex -10 -10 1
    endloop
  endfacet
  facet normal 0 0 1
    outer loop
      vertex 10 10 1
      vertex 7.25 1.25 1
      vertex 10 -10 1
    endloop
  endfacet
  facet normal -0 0 1
    outer loop
      vertex 6.98115 1.95603 1
      vertex 7.25 1.25 1
      vertex 10 10 1
    endloop
  endfacet
  facet normal 0 0 1
    outer loop
      vertex 7.25 1.25 1
      vertex 6.98115 1.95603 1
      vertex 7.07819 1.25 1
    endloop
  endfacet
  facet normal 0 0 1
    outer loop
      vertex 10 10 1
      vertex 6.19454 3.76698 1
      vertex 6.98115 1.95603 1
    endloop
  endfacet
  facet normal 0 0 1
    outer loop
      vertex 10 10 1
      vertex 4.94851 5.29856 1
      vertex 6.19454 3.76698 1
    endloop
  endfacet
  facet normal 0 0 1
    outer loop
      vertex 10 10 1
      vertex 3.33547 6.43717 1
      vertex 4.94851 5.29856 1
    endloop
  endfacet
  facet normal 0 0 1
    outer loop
      vertex 10 10 1
      vertex 1.47506 7.09836 1
      vertex 3.33547 6.43717 1
    endloop
  endfacet
  facet normal 0 0 1
    outer loop
      vertex 10 10 1
      vertex -0.494757 7.2331 1
      vertex 1.47506 7.09836 1
    endloop
  endfacet
  facet normal -0 0 1
    outer loop
      vertex -10 10 1
      vertex -0.494757 7.2331 1
      vertex 10 10 1
    endloop
  endfacet
  facet normal 0 0 1
    outer loop
      vertex -6.64978 2.88841 1
      vertex -7.25 1.25 1
      vertex -7.10884 1.25 1
    endloop
  endfacet
  facet normal 0 0 1
    outer loop
      vertex -7.25 1.25 1
      vertex -10 10 1
      vertex -7.25 -1.25 1
    endloop
  endfacet
  facet normal 0 0 1
    outer loop
      vertex -6.64978 2.88841 1
      vertex -10 10 1
      vertex -7.25 1.25 1
    endloop
  endfacet
  facet normal 0 0 1
    outer loop
      vertex -5.62391 4.57539 1
      vertex -10 10 1
      vertex -6.64978 2.88841 1
    endloop
  endfacet
  facet normal 0 0 1
    outer loop
      vertex -4.18093 5.92303 1
      vertex -10 10 1
      vertex -5.62391 4.57539 1
    endloop
  endfacet
  facet normal 0 0 1
    outer loop
      vertex -2.42788 6.83139 1
      vertex -10 10 1
      vertex -4.18093 5.92303 1
    endloop
  endfacet
  facet normal 0 0 1
    outer loop
      vertex -0.494757 7.2331 1
      vertex -10 10 1
      vertex -2.42788 6.83139 1
    endloop
  endfacet
  facet normal -0 0 1
    outer loop
      vertex 7.25 -1.25 1
      vertex 10 -10 1
      vertex 7.25 1.25 1
    endloop
  endfacet
  facet normal 0 0 1
    outer loop
      vertex 6.98115 -1.95603 1
      vertex 7.25 -1.25 1
      vertex 7.07819 -1.25 1
    endloop
  endfacet
  facet normal 0 0 1
    outer loop
      vertex 7.25 -1.25 1
      vertex 6.98115 -1.95603 1
      vertex 10 -10 1
    endloop
  endfacet
  facet normal -0 0 1
    outer loop
      vertex 6.19454 -3.76698 1
      vertex 10 -10 1
      vertex 6.98115 -1.95603 1
    endloop
  endfacet
  facet normal -0 0 1
    outer loop
      vertex 4.94851 -5.29856 1
      vertex 10 -10 1
      vertex 6.19454 -3.76698 1
    endloop
  endfacet
  facet normal -0 0 1
    outer loop
      vertex 3.33547 -6.43717 1
      vertex 10 -10 1
      vertex 4.94851 -5.29856 1
    endloop
  endfacet
  facet normal -0 0 1
    outer loop
      vertex 1.47506 -7.09836 1
      vertex 10 -10 1
      vertex 3.33547 -6.43717 1
    endloop
  endfacet
  facet normal -0 0 1
    outer loop
      vertex -0.494757 -7.2331 1
      vertex 10 -10 1
      vertex 1.47506 -7.09836 1
    endloop
  endfacet
  facet normal 0 0 1
    outer loop
      vertex -10 -10 1
      vertex -0.494757 -7.2331 1
      vertex -2.42788 -6.83139 1
    endloop
  endfacet
  facet normal -0 0 1
    outer loop
      vertex -7.25 -1.25 1
      vertex -6.64978 -2.88841 1
      vertex -7.10884 -1.25 1
    endloop
  endfacet
  facet normal 0 0 1
    outer loop
      vertex -0.494757 -7.2331 1
      vertex -10 -10 1
      vertex 10 -10 1
    endloop
  endfacet
  facet normal 0 0 1
    outer loop
      vertex -4.18093 -5.92303 1
      vertex -10 -10 1
      vertex -2.42788 -6.83139 1
    endloop
  endfacet
  facet normal 0 0 1
    outer loop
      vertex -5.62391 -4.57539 1
      vertex -10 -10 1
      vertex -4.18093 -5.92303 1
    endloop
  endfacet
  facet normal 0 0 1
    outer loop
      vertex -6.64978 -2.88841 1
      vertex -10 -10 1
      vertex -5.62391 -4.57539 1
    endloop
  endfacet
  facet normal 0 0 1
    outer loop
      vertex -7.25 -1.25 1
      vertex -10 -10 1
      vertex -6.64978 -2.88841 1
    endloop
  endfacet
  facet normal 0 0 1
    outer loop
      vertex -10 -10 1
      vertex -7.25 -1.25 1
      vertex -10 10 1
    endloop
  endfacet
  facet normal 0 0 1
    outer loop
      vertex -1.30347 0.219172 1
      vertex -7.10884 1.25 1
      vertex -1.34706 0 1
    endloop
  endfacet
  facet normal 0 0 1
    outer loop
      vertex -1.24452 0.515498 1
      vertex -7.10884 1.25 1
      vertex -1.30347 0.219172 1
    endloop
  endfacet
  facet normal 0 0 1
    outer loop
      vertex -1.12037 0.701303 1
      vertex -7.10884 1.25 1
      vertex -1.24452 0.515498 1
    endloop
  endfacet
  facet normal 0 0 1
    outer loop
      vertex -0.952516 0.952516 1
      vertex -7.10884 1.25 1
      vertex -1.12037 0.701303 1
    endloop
  endfacet
  facet normal 0 0 1
    outer loop
      vertex -0.701303 1.12037 1
      vertex -7.10884 1.25 1
      vertex -0.952516 0.952516 1
    endloop
  endfacet
  facet normal 0 0 1
    outer loop
      vertex -0.515498 1.24452 1
      vertex -7.10884 1.25 1
      vertex -0.701303 1.12037 1
    endloop
  endfacet
  facet normal -0 0 1
    outer loop
      vertex -7.10884 1.25 1
      vertex -0.515498 1.24452 1
      vertex -0.48796 1.25 1
    endloop
  endfacet
  facet normal 0 0 1
    outer loop
      vertex -7.10884 -1.25 1
      vertex -1.34706 0 1
      vertex -7.10884 1.25 1
    endloop
  endfacet
  facet normal 0 0 1
    outer loop
      vertex -1.34706 0 1
      vertex -7.10884 -1.25 1
      vertex -1.30347 -0.219172 1
    endloop
  endfacet
  facet normal 0 0 1
    outer loop
      vertex -1.30347 -0.219172 1
      vertex -7.10884 -1.25 1
      vertex -1.24452 -0.515498 1
    endloop
  endfacet
  facet normal 0 0 1
    outer loop
      vertex -1.24452 -0.515498 1
      vertex -7.10884 -1.25 1
      vertex -1.12037 -0.701303 1
    endloop
  endfacet
  facet normal 0 0 1
    outer loop
      vertex -1.12037 -0.701303 1
      vertex -7.10884 -1.25 1
      vertex -0.952516 -0.952516 1
    endloop
  endfacet
  facet normal 0 0 1
    outer loop
      vertex -0.952516 -0.952516 1
      vertex -7.10884 -1.25 1
      vertex -0.701303 -1.12037 1
    endloop
  endfacet
  facet normal 0 0 1
    outer loop
      vertex -0.515498 -1.24452 1
      vertex -7.10884 -1.25 1
      vertex -0.48796 -1.25 1
    endloop
  endfacet
  facet normal 0 0 1
    outer loop
      vertex -0.701303 -1.12037 1
      vertex -7.10884 -1.25 1
      vertex -0.515498 -1.24452 1
    endloop
  endfacet
  facet normal -0 0 1
    outer loop
      vertex -7.25 1.25 1
      vertex -7.10884 -1.25 1
      vertex -7.10884 1.25 1
    endloop
  endfacet
  facet normal 0 0 1
    outer loop
      vertex -7.10884 -1.25 1
      vertex -7.25 1.25 1
      vertex -7.25 -1.25 1
    endloop
  endfacet
  facet normal -0 0 1
    outer loop
      vertex 7.07819 1.25 1
      vertex 7.25 -1.25 1
      vertex 7.25 1.25 1
    endloop
  endfacet
  facet normal 0 0 1
    outer loop
      vertex 7.07819 1.25 1
      vertex 7.07819 -1.25 1
      vertex 7.25 -1.25 1
    endloop
  endfacet
  facet normal 0 0 1
    outer loop
      vertex 7.07819 1.25 1
      vertex 1.34706 0 1
      vertex 7.07819 -1.25 1
    endloop
  endfacet
  facet normal 0 0 1
    outer loop
      vertex 7.07819 1.25 1
      vertex 1.30347 0.219172 1
      vertex 1.34706 0 1
    endloop
  endfacet
  facet normal 0 0 1
    outer loop
      vertex 7.07819 1.25 1
      vertex 1.24452 0.515498 1
      vertex 1.30347 0.219172 1
    endloop
  endfacet
  facet normal 0 0 1
    outer loop
      vertex 7.07819 1.25 1
      vertex 1.12037 0.701303 1
      vertex 1.24452 0.515498 1
    endloop
  endfacet
  facet normal 0 0 1
    outer loop
      vertex 7.07819 1.25 1
      vertex 0.952516 0.952516 1
      vertex 1.12037 0.701303 1
    endloop
  endfacet
  facet normal 0 0 1
    outer loop
      vertex 7.07819 1.25 1
      vertex 0.701303 1.12037 1
      vertex 0.952516 0.952516 1
    endloop
  endfacet
  facet normal 0 0 1
    outer loop
      vertex 7.07819 1.25 1
      vertex 0.515498 1.24452 1
      vertex 0.701303 1.12037 1
    endloop
  endfacet
  facet normal 0 -0 1
    outer loop
      vertex 0.515498 1.24452 1
      vertex 7.07819 1.25 1
      vertex 0.48796 1.25 1
    endloop
  endfacet
  facet normal -0 0 1
    outer loop
      vertex 1.30347 -0.219172 1
      vertex 7.07819 -1.25 1
      vertex 1.34706 0 1
    endloop
  endfacet
  facet normal -0 0 1
    outer loop
      vertex 1.24452 -0.515498 1
      vertex 7.07819 -1.25 1
      vertex 1.30347 -0.219172 1
    endloop
  endfacet
  facet normal -0 0 1
    outer loop
      vertex 1.12037 -0.701303 1
      vertex 7.07819 -1.25 1
      vertex 1.24452 -0.515498 1
    endloop
  endfacet
  facet normal -0 0 1
    outer loop
      vertex 0.952516 -0.952516 1
      vertex 7.07819 -1.25 1
      vertex 1.12037 -0.701303 1
    endloop
  endfacet
  facet normal -0 0 1
    outer loop
      vertex 0.701303 -1.12037 1
      vertex 7.07819 -1.25 1
      vertex 0.952516 -0.952516 1
    endloop
  endfacet
  facet normal -0 0 1
    outer loop
      vertex 0.515498 -1.24452 1
      vertex 7.07819 -1.25 1
      vertex 0.701303 -1.12037 1
    endloop
  endfacet
  facet normal 0 0 1
    outer loop
      vertex 7.07819 -1.25 1
      vertex 0.515498 -1.24452 1
      vertex 0.48796 -1.25 1
    endloop
  endfacet
  facet normal 1 -0 0
    outer loop
      vertex 10 -10 1
      vertex 10 10 -1
      vertex 10 10 1
    endloop
  endfacet
  facet normal 1 0 0
    outer loop
      vertex 10 10 -1
      vertex 10 -10 1
      vertex 10 -10 -1
    endloop
  endfacet
  facet normal 0 0 -1
    outer loop
      vertex -10 -10 -1
      vertex 10 10 -1
      vertex 10 -10 -1
    endloop
  endfacet
  facet normal -0 0 -1
    outer loop
      vertex 10 10 -1
      vertex -10 -10 -1
      vertex -10 10 -1
    endloop
  endfacet
  facet normal 0 -1 0
    outer loop
      vertex -10 -10 -1
      vertex 10 -10 1
      vertex -10 -10 1
    endloop
  endfacet
  facet normal 0 -1 -0
    outer loop
      vertex 10 -10 1
      vertex -10 -10 -1
      vertex 10 -10 -1
    endloop
  endfacet
  facet normal 0 1 -0
    outer loop
      vertex 10 10 -1
      vertex -10 10 1
      vertex 10 10 1
    endloop
  endfacet
  facet normal 0 1 0
    outer loop
      vertex -10 10 1
      vertex 10 10 -1
      vertex -10 10 -1
    endloop
  endfacet
  facet normal 0.775711 0.631088 0
    outer loop
      vertex 6.19454 3.76698 8.5
      vertex 4.94851 5.29856 1
      vertex 4.94851 5.29856 8.5
    endloop
  endfacet
  facet normal 0.775711 0.631088 0
    outer loop
      vertex 4.94851 5.29856 1
      vertex 6.19454 3.76698 8.5
      vertex 6.19454 3.76698 1
    endloop
  endfacet
  facet normal 0.990686 0.136167 0
    outer loop
      vertex 7.07819 1.25 8.5
      vertex 6.98115 1.95603 1
      vertex 6.98115 1.95603 8.5
    endloop
  endfacet
  facet normal 0.990686 0.136167 0
    outer loop
      vertex 6.98115 1.95603 1
      vertex 7.07819 1.25 8.5
      vertex 7.07819 1.25 1
    endloop
  endfacet
  facet normal -0.962917 -0.269797 0
    outer loop
      vertex -6.64978 -2.88841 1
      vertex -7.10884 -1.25 8.5
      vertex -7.10884 -1.25 1
    endloop
  endfacet
  facet normal -0.962917 -0.269797 0
    outer loop
      vertex -7.10884 -1.25 8.5
      vertex -6.64978 -2.88841 1
      vertex -6.64978 -2.88841 8.5
    endloop
  endfacet
  facet normal 0.57668 0.81697 -0
    outer loop
      vertex 4.94851 5.29856 1
      vertex 3.33547 6.43717 8.5
      vertex 4.94851 5.29856 8.5
    endloop
  endfacet
  facet normal 0.57668 0.81697 0
    outer loop
      vertex 3.33547 6.43717 8.5
      vertex 4.94851 5.29856 1
      vertex 3.33547 6.43717 1
    endloop
  endfacet
  facet normal 0.0682424 0.997669 -0
    outer loop
      vertex 1.47506 7.09836 1
      vertex -0.494757 7.2331 8.5
      vertex 1.47506 7.09836 8.5
    endloop
  endfacet
  facet normal 0.0682424 0.997669 0
    outer loop
      vertex -0.494757 7.2331 8.5
      vertex 1.47506 7.09836 1
      vertex -0.494757 7.2331 1
    endloop
  endfacet
  facet normal 0.33488 0.942261 -0
    outer loop
      vertex 3.33547 6.43717 1
      vertex 1.47506 7.09836 8.5
      vertex 3.33547 6.43717 8.5
    endloop
  endfacet
  facet normal 0.33488 0.942261 0
    outer loop
      vertex 1.47506 7.09836 8.5
      vertex 3.33547 6.43717 1
      vertex 1.47506 7.09836 1
    endloop
  endfacet
  facet normal -0.460065 0.887885 0
    outer loop
      vertex -2.42788 6.83139 1
      vertex -4.18093 5.92303 8.5
      vertex -2.42788 6.83139 8.5
    endloop
  endfacet
  facet normal -0.460065 0.887885 0
    outer loop
      vertex -4.18093 5.92303 8.5
      vertex -2.42788 6.83139 1
      vertex -4.18093 5.92303 1
    endloop
  endfacet
  facet normal -0.962917 0.269797 0
    outer loop
      vertex -7.10884 1.25 1
      vertex -6.64978 2.88841 8.5
      vertex -6.64978 2.88841 1
    endloop
  endfacet
  facet normal -0.962917 0.269797 0
    outer loop
      vertex -6.64978 2.88841 8.5
      vertex -7.10884 1.25 1
      vertex -7.10884 1.25 8.5
    endloop
  endfacet
  facet normal -0.203456 0.979084 0
    outer loop
      vertex -0.494757 7.2331 1
      vertex -2.42788 6.83139 8.5
      vertex -0.494757 7.2331 8.5
    endloop
  endfacet
  facet normal -0.203456 0.979084 0
    outer loop
      vertex -2.42788 6.83139 8.5
      vertex -0.494757 7.2331 1
      vertex -2.42788 6.83139 1
    endloop
  endfacet
  facet normal 0 0 1
    outer loop
      vertex 3.94722 1.63499 8.5
      vertex 6.98115 1.95603 8.5
      vertex 6.19454 3.76698 8.5
    endloop
  endfacet
  facet normal 0 0 1
    outer loop
      vertex 3.18494 2.77581 8.5
      vertex 6.19454 3.76698 8.5
      vertex 4.94851 5.29856 8.5
    endloop
  endfacet
  facet normal 0 -0 1
    outer loop
      vertex 4.0238 1.25 8.5
      vertex 6.98115 1.95603 8.5
      vertex 3.94722 1.63499 8.5
    endloop
  endfacet
  facet normal 0 0 1
    outer loop
      vertex 6.98115 1.95603 8.5
      vertex 4.0238 1.25 8.5
      vertex 7.07819 1.25 8.5
    endloop
  endfacet
  facet normal 0 0 1
    outer loop
      vertex 2.77581 3.18494 8.5
      vertex 4.94851 5.29856 8.5
      vertex 3.33547 6.43717 8.5
    endloop
  endfacet
  facet normal 0 0 1
    outer loop
      vertex 6.19454 3.76698 8.5
      vertex 3.18494 2.77581 8.5
      vertex 3.94722 1.63499 8.5
    endloop
  endfacet
  facet normal 0 0 1
    outer loop
      vertex 4.94851 5.29856 8.5
      vertex 3.02107 3.02107 8.5
      vertex 3.18494 2.77581 8.5
    endloop
  endfacet
  facet normal 0 0 1
    outer loop
      vertex 4.94851 5.29856 8.5
      vertex 2.77581 3.18494 8.5
      vertex 3.02107 3.02107 8.5
    endloop
  endfacet
  facet normal 0 0 1
    outer loop
      vertex 3.33547 6.43717 8.5
      vertex 1.63499 3.94722 8.5
      vertex 2.77581 3.18494 8.5
    endloop
  endfacet
  facet normal 0 0 1
    outer loop
      vertex 1.47506 7.09836 8.5
      vertex 1.63499 3.94722 8.5
      vertex 3.33547 6.43717 8.5
    endloop
  endfacet
  facet normal 0 0 1
    outer loop
      vertex 1.47506 7.09836 8.5
      vertex 0.289297 4.21489 8.5
      vertex 1.63499 3.94722 8.5
    endloop
  endfacet
  facet normal 0 0 1
    outer loop
      vertex 1.47506 7.09836 8.5
      vertex 0 4.27244 8.5
      vertex 0.289297 4.21489 8.5
    endloop
  endfacet
  facet normal 0 0 1
    outer loop
      vertex -0.494757 7.2331 8.5
      vertex 0 4.27244 8.5
      vertex 1.47506 7.09836 8.5
    endloop
  endfacet
  facet normal 0 0 1
    outer loop
      vertex 0 4.27244 8.5
      vertex -0.494757 7.2331 8.5
      vertex -0.289297 4.21489 8.5
    endloop
  endfacet
  facet normal -0 0 1
    outer loop
      vertex -2.42788 6.83139 8.5
      vertex -0.289297 4.21489 8.5
      vertex -0.494757 7.2331 8.5
    endloop
  endfacet
  facet normal 0 0 1
    outer loop
      vertex -0.289297 4.21489 8.5
      vertex -2.42788 6.83139 8.5
      vertex -1.63499 3.94722 8.5
    endloop
  endfacet
  facet normal -0 0 1
    outer loop
      vertex -4.18093 5.92303 8.5
      vertex -1.63499 3.94722 8.5
      vertex -2.42788 6.83139 8.5
    endloop
  endfacet
  facet normal 0 0 1
    outer loop
      vertex -1.63499 3.94722 8.5
      vertex -4.18093 5.92303 8.5
      vertex -2.77581 3.18494 8.5
    endloop
  endfacet
  facet normal 0 0 1
    outer loop
      vertex -2.77581 3.18494 8.5
      vertex -4.18093 5.92303 8.5
      vertex -3.02107 3.02107 8.5
    endloop
  endfacet
  facet normal -0 0 1
    outer loop
      vertex -5.62391 4.57539 8.5
      vertex -3.02107 3.02107 8.5
      vertex -4.18093 5.92303 8.5
    endloop
  endfacet
  facet normal 0 0 1
    outer loop
      vertex -3.02107 3.02107 8.5
      vertex -5.62391 4.57539 8.5
      vertex -3.18494 2.77581 8.5
    endloop
  endfacet
  facet normal 0 0 1
    outer loop
      vertex -3.18494 2.77581 8.5
      vertex -5.62391 4.57539 8.5
      vertex -3.94722 1.63499 8.5
    endloop
  endfacet
  facet normal -0 0 1
    outer loop
      vertex -6.64978 2.88841 8.5
      vertex -3.94722 1.63499 8.5
      vertex -5.62391 4.57539 8.5
    endloop
  endfacet
  facet normal 0 0 1
    outer loop
      vertex -3.94722 1.63499 8.5
      vertex -6.64978 2.88841 8.5
      vertex -4.0238 1.25 8.5
    endloop
  endfacet
  facet normal 0 0 1
    outer loop
      vertex -4.0238 1.25 8.5
      vertex -6.64978 2.88841 8.5
      vertex -7.10884 1.25 8.5
    endloop
  endfacet
  facet normal -0 0 1
    outer loop
      vertex 4.0238 -1.25 8.5
      vertex 6.98115 -1.95603 8.5
      vertex 7.07819 -1.25 8.5
    endloop
  endfacet
  facet normal 0 0 1
    outer loop
      vertex 6.98115 -1.95603 8.5
      vertex 3.94722 -1.63499 8.5
      vertex 6.19454 -3.76698 8.5
    endloop
  endfacet
  facet normal 0 0 1
    outer loop
      vertex 6.98115 -1.95603 8.5
      vertex 4.0238 -1.25 8.5
      vertex 3.94722 -1.63499 8.5
    endloop
  endfacet
  facet normal -0 0 1
    outer loop
      vertex 3.18494 -2.77581 8.5
      vertex 6.19454 -3.76698 8.5
      vertex 3.94722 -1.63499 8.5
    endloop
  endfacet
  facet normal 0 0 1
    outer loop
      vertex 6.19454 -3.76698 8.5
      vertex 3.18494 -2.77581 8.5
      vertex 4.94851 -5.29856 8.5
    endloop
  endfacet
  facet normal -0 0 1
    outer loop
      vertex 3.02107 -3.02107 8.5
      vertex 4.94851 -5.29856 8.5
      vertex 3.18494 -2.77581 8.5
    endloop
  endfacet
  facet normal -0 0 1
    outer loop
      vertex 2.77581 -3.18494 8.5
      vertex 4.94851 -5.29856 8.5
      vertex 3.02107 -3.02107 8.5
    endloop
  endfacet
  facet normal 0 0 1
    outer loop
      vertex 4.94851 -5.29856 8.5
      vertex 2.77581 -3.18494 8.5
      vertex 3.33547 -6.43717 8.5
    endloop
  endfacet
  facet normal -0 0 1
    outer loop
      vertex 1.63499 -3.94722 8.5
      vertex 3.33547 -6.43717 8.5
      vertex 2.77581 -3.18494 8.5
    endloop
  endfacet
  facet normal 0 0 1
    outer loop
      vertex 1.63499 -3.94722 8.5
      vertex 1.47506 -7.09836 8.5
      vertex 3.33547 -6.43717 8.5
    endloop
  endfacet
  facet normal -0 0 1
    outer loop
      vertex 0.289297 -4.21489 8.5
      vertex 1.47506 -7.09836 8.5
      vertex 1.63499 -3.94722 8.5
    endloop
  endfacet
  facet normal -0 0 1
    outer loop
      vertex 0 -4.27244 8.5
      vertex 1.47506 -7.09836 8.5
      vertex 0.289297 -4.21489 8.5
    endloop
  endfacet
  facet normal 0 0 1
    outer loop
      vertex -0.494757 -7.2331 8.5
      vertex 0 -4.27244 8.5
      vertex -0.289297 -4.21489 8.5
    endloop
  endfacet
  facet normal 0 0 1
    outer loop
      vertex 0 -4.27244 8.5
      vertex -0.494757 -7.2331 8.5
      vertex 1.47506 -7.09836 8.5
    endloop
  endfacet
  facet normal 0 0 1
    outer loop
      vertex -2.42788 -6.83139 8.5
      vertex -0.289297 -4.21489 8.5
      vertex -1.63499 -3.94722 8.5
    endloop
  endfacet
  facet normal 0 0 1
    outer loop
      vertex -0.289297 -4.21489 8.5
      vertex -2.42788 -6.83139 8.5
      vertex -0.494757 -7.2331 8.5
    endloop
  endfacet
  facet normal 0 0 1
    outer loop
      vertex -4.18093 -5.92303 8.5
      vertex -1.63499 -3.94722 8.5
      vertex -2.77581 -3.18494 8.5
    endloop
  endfacet
  facet normal 0 0 1
    outer loop
      vertex -4.18093 -5.92303 8.5
      vertex -2.77581 -3.18494 8.5
      vertex -3.02107 -3.02107 8.5
    endloop
  endfacet
  facet normal 0 0 1
    outer loop
      vertex -5.62391 -4.57539 8.5
      vertex -3.02107 -3.02107 8.5
      vertex -3.18494 -2.77581 8.5
    endloop
  endfacet
  facet normal 0 0 1
    outer loop
      vertex -5.62391 -4.57539 8.5
      vertex -3.18494 -2.77581 8.5
      vertex -3.94722 -1.63499 8.5
    endloop
  endfacet
  facet normal 0 0 1
    outer loop
      vertex -1.63499 -3.94722 8.5
      vertex -4.18093 -5.92303 8.5
      vertex -2.42788 -6.83139 8.5
    endloop
  endfacet
  facet normal 0 0 1
    outer loop
      vertex -6.64978 -2.88841 8.5
      vertex -3.94722 -1.63499 8.5
      vertex -4.0238 -1.25 8.5
    endloop
  endfacet
  facet normal 0 0 1
    outer loop
      vertex -3.02107 -3.02107 8.5
      vertex -5.62391 -4.57539 8.5
      vertex -4.18093 -5.92303 8.5
    endloop
  endfacet
  facet normal 0 0 1
    outer loop
      vertex -3.94722 -1.63499 8.5
      vertex -6.64978 -2.88841 8.5
      vertex -5.62391 -4.57539 8.5
    endloop
  endfacet
  facet normal 0 -0 1
    outer loop
      vertex -6.64978 -2.88841 8.5
      vertex -4.0238 -1.25 8.5
      vertex -7.10884 -1.25 8.5
    endloop
  endfacet
  facet normal -0.682553 0.730836 0
    outer loop
      vertex -4.18093 5.92303 1
      vertex -5.62391 4.57539 8.5
      vertex -4.18093 5.92303 8.5
    endloop
  endfacet
  facet normal -0.682553 0.730836 0
    outer loop
      vertex -5.62391 4.57539 8.5
      vertex -4.18093 5.92303 1
      vertex -5.62391 4.57539 1
    endloop
  endfacet
  facet normal -0.854419 0.519584 0
    outer loop
      vertex -6.64978 2.88841 1
      vertex -5.62391 4.57539 8.5
      vertex -5.62391 4.57539 1
    endloop
  endfacet
  facet normal -0.854419 0.519584 0
    outer loop
      vertex -5.62391 4.57539 8.5
      vertex -6.64978 2.88841 1
      vertex -6.64978 2.88841 8.5
    endloop
  endfacet
  facet normal 0.917211 -0.398401 0
    outer loop
      vertex 6.19454 -3.76698 8.5
      vertex 6.98115 -1.95603 1
      vertex 6.98115 -1.95603 8.5
    endloop
  endfacet
  facet normal 0.917211 -0.398401 0
    outer loop
      vertex 6.98115 -1.95603 1
      vertex 6.19454 -3.76698 8.5
      vertex 6.19454 -3.76698 1
    endloop
  endfacet
  facet normal -0.460065 -0.887885 0
    outer loop
      vertex -4.18093 -5.92303 1
      vertex -2.42788 -6.83139 8.5
      vertex -4.18093 -5.92303 8.5
    endloop
  endfacet
  facet normal -0.460065 -0.887885 -0
    outer loop
      vertex -2.42788 -6.83139 8.5
      vertex -4.18093 -5.92303 1
      vertex -2.42788 -6.83139 1
    endloop
  endfacet
  facet normal -0.854419 -0.519584 0
    outer loop
      vertex -5.62391 -4.57539 1
      vertex -6.64978 -2.88841 8.5
      vertex -6.64978 -2.88841 1
    endloop
  endfacet
  facet normal -0.854419 -0.519584 0
    outer loop
      vertex -6.64978 -2.88841 8.5
      vertex -5.62391 -4.57539 1
      vertex -5.62391 -4.57539 8.5
    endloop
  endfacet
  facet normal 0.775711 -0.631088 0
    outer loop
      vertex 4.94851 -5.29856 8.5
      vertex 6.19454 -3.76698 1
      vertex 6.19454 -3.76698 8.5
    endloop
  endfacet
  facet normal 0.775711 -0.631088 0
    outer loop
      vertex 6.19454 -3.76698 1
      vertex 4.94851 -5.29856 8.5
      vertex 4.94851 -5.29856 1
    endloop
  endfacet
  facet normal 0.990686 -0.136167 0
    outer loop
      vertex 6.98115 -1.95603 8.5
      vertex 7.07819 -1.25 1
      vertex 7.07819 -1.25 8.5
    endloop
  endfacet
  facet normal 0.990686 -0.136167 0
    outer loop
      vertex 7.07819 -1.25 1
      vertex 6.98115 -1.95603 8.5
      vertex 6.98115 -1.95603 1
    endloop
  endfacet
  facet normal 0.917211 0.398401 0
    outer loop
      vertex 6.98115 1.95603 8.5
      vertex 6.19454 3.76698 1
      vertex 6.19454 3.76698 8.5
    endloop
  endfacet
  facet normal 0.917211 0.398401 0
    outer loop
      vertex 6.19454 3.76698 1
      vertex 6.98115 1.95603 8.5
      vertex 6.98115 1.95603 1
    endloop
  endfacet
  facet normal -0.682553 -0.730836 0
    outer loop
      vertex -5.62391 -4.57539 1
      vertex -4.18093 -5.92303 8.5
      vertex -5.62391 -4.57539 8.5
    endloop
  endfacet
  facet normal -0.682553 -0.730836 -0
    outer loop
      vertex -4.18093 -5.92303 8.5
      vertex -5.62391 -4.57539 1
      vertex -4.18093 -5.92303 1
    endloop
  endfacet
  facet normal 0.33488 -0.942261 0
    outer loop
      vertex 1.47506 -7.09836 1
      vertex 3.33547 -6.43717 8.5
      vertex 1.47506 -7.09836 8.5
    endloop
  endfacet
  facet normal 0.33488 -0.942261 0
    outer loop
      vertex 3.33547 -6.43717 8.5
      vertex 1.47506 -7.09836 1
      vertex 3.33547 -6.43717 1
    endloop
  endfacet
  facet normal 0.57668 -0.81697 0
    outer loop
      vertex 3.33547 -6.43717 1
      vertex 4.94851 -5.29856 8.5
      vertex 3.33547 -6.43717 8.5
    endloop
  endfacet
  facet normal 0.57668 -0.81697 0
    outer loop
      vertex 4.94851 -5.29856 8.5
      vertex 3.33547 -6.43717 1
      vertex 4.94851 -5.29856 1
    endloop
  endfacet
  facet normal 0.0682424 -0.997669 0
    outer loop
      vertex -0.494757 -7.2331 1
      vertex 1.47506 -7.09836 8.5
      vertex -0.494757 -7.2331 8.5
    endloop
  endfacet
  facet normal 0.0682424 -0.997669 0
    outer loop
      vertex 1.47506 -7.09836 8.5
      vertex -0.494757 -7.2331 1
      vertex 1.47506 -7.09836 1
    endloop
  endfacet
  facet normal -0.203456 -0.979084 0
    outer loop
      vertex -2.42788 -6.83139 1
      vertex -0.494757 -7.2331 8.5
      vertex -2.42788 -6.83139 8.5
    endloop
  endfacet
  facet normal -0.203456 -0.979084 -0
    outer loop
      vertex -0.494757 -7.2331 8.5
      vertex -2.42788 -6.83139 1
      vertex -0.494757 -7.2331 1
    endloop
  endfacet
  facet normal 0 -1 0
    outer loop
      vertex 4.40599 1.25 7.57731
      vertex 7.07819 1.25 8.5
      vertex 4.0238 1.25 8.5
    endloop
  endfacet
  facet normal 0 -1 0
    outer loop
      vertex 4.65529 1.25 6.97545
      vertex 7.07819 1.25 8.5
      vertex 4.40599 1.25 7.57731
    endloop
  endfacet
  facet normal 0 -1 0
    outer loop
      vertex 4.65529 1.25 4.77455
      vertex 7.07819 1.25 8.5
      vertex 4.65529 1.25 6.97545
    endloop
  endfacet
  facet normal 0 -1 0
    outer loop
      vertex 7.07819 1.25 1
      vertex 4.65529 1.25 4.77455
      vertex 4.40599 1.25 4.17269
    endloop
  endfacet
  facet normal 0 -1 0
    outer loop
      vertex 7.07819 1.25 1
      vertex 4.40599 1.25 4.17269
      vertex 3.90871 1.25 2.97215
    endloop
  endfacet
  facet normal 0 -1 0
    outer loop
      vertex 7.07819 1.25 1
      vertex 3.61307 1.25 2.67652
      vertex 3.01777 1.25 2.08121
    endloop
  endfacet
  facet normal 0 -1 0
    outer loop
      vertex 7.07819 1.25 1
      vertex 0.895306 1.25 1.09104
      vertex 0.517767 1.25 1.00246
    endloop
  endfacet
  facet normal 0 -1 0
    outer loop
      vertex 4.65529 1.25 4.77455
      vertex 7.07819 1.25 1
      vertex 7.07819 1.25 8.5
    endloop
  endfacet
  facet normal 0 -1 0
    outer loop
      vertex 3.61307 1.25 2.67652
      vertex 7.07819 1.25 1
      vertex 3.90871 1.25 2.97215
    endloop
  endfacet
  facet normal 0 -1 0
    outer loop
      vertex 2.44147 1.25 1.59265
      vertex 7.07819 1.25 1
      vertex 3.01777 1.25 2.08121
    endloop
  endfacet
  facet normal 0 -1 0
    outer loop
      vertex 1.487 1.25 1.25748
      vertex 7.07819 1.25 1
      vertex 2.44147 1.25 1.59265
    endloop
  endfacet
  facet normal 0 -1 0
    outer loop
      vertex 1.25 1.25 1.17426
      vertex 7.07819 1.25 1
      vertex 1.487 1.25 1.25748
    endloop
  endfacet
  facet normal 0 -1 0
    outer loop
      vertex 0.895306 1.25 1.09104
      vertex 7.07819 1.25 1
      vertex 1.25 1.25 1.17426
    endloop
  endfacet
  facet normal 0 -1 0
    outer loop
      vertex 7.07819 1.25 1
      vertex 0.517767 1.25 1.00246
      vertex 0.48796 1.25 1
    endloop
  endfacet
  facet normal 0 -1 0
    outer loop
      vertex -7.10884 1.25 8.5
      vertex -4.40599 1.25 7.57731
      vertex -4.0238 1.25 8.5
    endloop
  endfacet
  facet normal 0 -1 0
    outer loop
      vertex -7.10884 1.25 8.5
      vertex -4.65529 1.25 6.97545
      vertex -4.40599 1.25 7.57731
    endloop
  endfacet
  facet normal 0 -1 0
    outer loop
      vertex -7.10884 1.25 8.5
      vertex -4.65529 1.25 4.77455
      vertex -4.65529 1.25 6.97545
    endloop
  endfacet
  facet normal 0 -1 0
    outer loop
      vertex -7.10884 1.25 1
      vertex -4.65529 1.25 4.77455
      vertex -7.10884 1.25 8.5
    endloop
  endfacet
  facet normal 0 -1 -0
    outer loop
      vertex -4.65529 1.25 4.77455
      vertex -7.10884 1.25 1
      vertex -4.40599 1.25 4.17269
    endloop
  endfacet
  facet normal 0 -1 0
    outer loop
      vertex -7.10884 1.25 1
      vertex -3.61307 1.25 2.67652
      vertex -3.90871 1.25 2.97215
    endloop
  endfacet
  facet normal 0 -1 0
    outer loop
      vertex -7.10884 1.25 1
      vertex -0.895306 1.25 1.09104
      vertex -1.25 1.25 1.17426
    endloop
  endfacet
  facet normal 0 -1 -0
    outer loop
      vertex -4.40599 1.25 4.17269
      vertex -7.10884 1.25 1
      vertex -3.90871 1.25 2.97215
    endloop
  endfacet
  facet normal 0 -1 -0
    outer loop
      vertex -3.61307 1.25 2.67652
      vertex -7.10884 1.25 1
      vertex -3.01777 1.25 2.08121
    endloop
  endfacet
  facet normal 0 -1 0
    outer loop
      vertex -7.10884 1.25 1
      vertex -2.44147 1.25 1.59265
      vertex -3.01777 1.25 2.08121
    endloop
  endfacet
  facet normal 0 -1 0
    outer loop
      vertex -7.10884 1.25 1
      vertex -1.487 1.25 1.25748
      vertex -2.44147 1.25 1.59265
    endloop
  endfacet
  facet normal 0 -1 0
    outer loop
      vertex -7.10884 1.25 1
      vertex -1.25 1.25 1.17426
      vertex -1.487 1.25 1.25748
    endloop
  endfacet
  facet normal 0 -1 -0
    outer loop
      vertex -0.895306 1.25 1.09104
      vertex -7.10884 1.25 1
      vertex -0.517767 1.25 1.00246
    endloop
  endfacet
  facet normal 0 -1 -0
    outer loop
      vertex -0.517767 1.25 1.00246
      vertex -7.10884 1.25 1
      vertex -0.48796 1.25 1
    endloop
  endfacet
  facet normal 0 1 -0
    outer loop
      vertex -4.40599 -1.25 7.57731
      vertex -7.10884 -1.25 8.5
      vertex -4.0238 -1.25 8.5
    endloop
  endfacet
  facet normal 0 1 -0
    outer loop
      vertex -4.65529 -1.25 6.97545
      vertex -7.10884 -1.25 8.5
      vertex -4.40599 -1.25 7.57731
    endloop
  endfacet
  facet normal 0 1 -0
    outer loop
      vertex -4.65529 -1.25 4.77455
      vertex -7.10884 -1.25 8.5
      vertex -4.65529 -1.25 6.97545
    endloop
  endfacet
  facet normal 0 1 0
    outer loop
      vertex -7.10884 -1.25 1
      vertex -4.65529 -1.25 4.77455
      vertex -4.40599 -1.25 4.17269
    endloop
  endfacet
  facet normal 0 1 0
    outer loop
      vertex -7.10884 -1.25 1
      vertex -4.40599 -1.25 4.17269
      vertex -3.90871 -1.25 2.97215
    endloop
  endfacet
  facet normal 0 1 0
    outer loop
      vertex -7.10884 -1.25 1
      vertex -3.61307 -1.25 2.67652
      vertex -3.01777 -1.25 2.08121
    endloop
  endfacet
  facet normal 0 1 0
    outer loop
      vertex -7.10884 -1.25 1
      vertex -0.895306 -1.25 1.09104
      vertex -0.517767 -1.25 1.00246
    endloop
  endfacet
  facet normal 0 1 0
    outer loop
      vertex -4.65529 -1.25 4.77455
      vertex -7.10884 -1.25 1
      vertex -7.10884 -1.25 8.5
    endloop
  endfacet
  facet normal 0 1 0
    outer loop
      vertex -3.61307 -1.25 2.67652
      vertex -7.10884 -1.25 1
      vertex -3.90871 -1.25 2.97215
    endloop
  endfacet
  facet normal 0 1 0
    outer loop
      vertex -2.44147 -1.25 1.59265
      vertex -7.10884 -1.25 1
      vertex -3.01777 -1.25 2.08121
    endloop
  endfacet
  facet normal 0 1 0
    outer loop
      vertex -1.487 -1.25 1.25748
      vertex -7.10884 -1.25 1
      vertex -2.44147 -1.25 1.59265
    endloop
  endfacet
  facet normal 0 1 0
    outer loop
      vertex -1.25 -1.25 1.17426
      vertex -7.10884 -1.25 1
      vertex -1.487 -1.25 1.25748
    endloop
  endfacet
  facet normal 0 1 0
    outer loop
      vertex -0.895306 -1.25 1.09104
      vertex -7.10884 -1.25 1
      vertex -1.25 -1.25 1.17426
    endloop
  endfacet
  facet normal 0 1 0
    outer loop
      vertex -7.10884 -1.25 1
      vertex -0.517767 -1.25 1.00246
      vertex -0.48796 -1.25 1
    endloop
  endfacet
  facet normal 0 1 0
    outer loop
      vertex 7.07819 -1.25 8.5
      vertex 4.40599 -1.25 7.57731
      vertex 4.0238 -1.25 8.5
    endloop
  endfacet
  facet normal 0 1 0
    outer loop
      vertex 7.07819 -1.25 8.5
      vertex 4.65529 -1.25 6.97545
      vertex 4.40599 -1.25 7.57731
    endloop
  endfacet
  facet normal 0 1 0
    outer loop
      vertex 7.07819 -1.25 8.5
      vertex 4.65529 -1.25 4.77455
      vertex 4.65529 -1.25 6.97545
    endloop
  endfacet
  facet normal 0 1 -0
    outer loop
      vertex 7.07819 -1.25 1
      vertex 4.65529 -1.25 4.77455
      vertex 7.07819 -1.25 8.5
    endloop
  endfacet
  facet normal 0 1 0
    outer loop
      vertex 4.65529 -1.25 4.77455
      vertex 7.07819 -1.25 1
      vertex 4.40599 -1.25 4.17269
    endloop
  endfacet
  facet normal 0 1 0
    outer loop
      vertex 7.07819 -1.25 1
      vertex 3.61307 -1.25 2.67652
      vertex 3.90871 -1.25 2.97215
    endloop
  endfacet
  facet normal 0 1 0
    outer loop
      vertex 7.07819 -1.25 1
      vertex 0.895306 -1.25 1.09104
      vertex 1.25 -1.25 1.17426
    endloop
  endfacet
  facet normal 0 1 0
    outer loop
      vertex 4.40599 -1.25 4.17269
      vertex 7.07819 -1.25 1
      vertex 3.90871 -1.25 2.97215
    endloop
  endfacet
  facet normal 0 1 0
    outer loop
      vertex 3.61307 -1.25 2.67652
      vertex 7.07819 -1.25 1
      vertex 3.01777 -1.25 2.08121
    endloop
  endfacet
  facet normal 0 1 0
    outer loop
      vertex 7.07819 -1.25 1
      vertex 2.44147 -1.25 1.59265
      vertex 3.01777 -1.25 2.08121
    endloop
  endfacet
  facet normal 0 1 0
    outer loop
      vertex 7.07819 -1.25 1
      vertex 1.487 -1.25 1.25748
      vertex 2.44147 -1.25 1.59265
    endloop
  endfacet
  facet normal 0 1 0
    outer loop
      vertex 7.07819 -1.25 1
      vertex 1.25 -1.25 1.17426
      vertex 1.487 -1.25 1.25748
    endloop
  endfacet
  facet normal 0 1 0
    outer loop
      vertex 0.895306 -1.25 1.09104
      vertex 7.07819 -1.25 1
      vertex 0.517767 -1.25 1.00246
    endloop
  endfacet
  facet normal 0 1 0
    outer loop
      vertex 0.517767 -1.25 1.00246
      vertex 7.07819 -1.25 1
      vertex 0.48796 -1.25 1
    endloop
  endfacet
  facet normal 0.381579 -0.075901 0.921214
    outer loop
      vertex -0.975451 0 0.846074
      vertex -1.30347 0.219172 1
      vertex -1.34706 0 1
    endloop
  endfacet
  facet normal 0.139281 -0.700214 0.700214
    outer loop
      vertex 0 2.77785 1.59265
      vertex 0 4.15735 2.97215
      vertex -1.59095 3.84089 2.97215
    endloop
  endfacet
  facet normal -0.381579 0.0759012 0.921215
    outer loop
      vertex 0.901199 -0.373289 0.846074
      vertex 1.30347 -0.219172 1
      vertex 0.975451 0 0.846074
    endloop
  endfacet
  facet normal -0.381579 0.0759011 0.921215
    outer loop
      vertex 1.30347 -0.219172 1
      vertex 0.901199 -0.373289 0.846074
      vertex 1.24452 -0.515498 1
    endloop
  endfacet
  facet normal 0.908663 0.180744 0.376381
    outer loop
      vertex -4.53064 -1.87665 4.77455
      vertex -4.40599 -1.25 4.17269
      vertex -4.65529 -1.25 4.77455
    endloop
  endfacet
  facet normal 0.216148 0.323487 0.921214
    outer loop
      vertex -0.895306 -1.25 1.09104
      vertex -1.06304 -2.5664 1.59265
      vertex -0.517767 -1.25 1.00246
    endloop
  endfacet
  facet normal 0.216147 0.323488 0.921215
    outer loop
      vertex -1.06304 -2.5664 1.59265
      vertex -0.895306 -1.25 1.09104
      vertex -1.96424 -1.96424 1.59265
    endloop
  endfacet
  facet normal 0.216147 0.323487 0.921215
    outer loop
      vertex -0.515498 -1.24452 1
      vertex -0.373289 -0.901199 0.846074
      vertex -0.701303 -1.12037 1
    endloop
  endfacet
  facet normal -0.908663 -0.180744 0.376381
    outer loop
      vertex 4.65529 1.25 4.77455
      vertex 4.53064 1.87665 4.77455
      vertex 4.40599 1.25 4.17269
    endloop
  endfacet
  facet normal -0.180744 0.908663 0.376381
    outer loop
      vertex 1.87665 -4.53064 4.77455
      vertex 0 -4.15735 2.97215
      vertex 0 -4.90393 4.77455
    endloop
  endfacet
  facet normal 0.396639 0.593613 0.700215
    outer loop
      vertex -1.59095 -3.84089 2.97215
      vertex -1.06304 -2.5664 1.59265
      vertex -1.96424 -1.96424 1.59265
    endloop
  endfacet
  facet normal 0.908663 -0.180744 0.376381
    outer loop
      vertex -4.40599 1.25 4.17269
      vertex -4.53064 1.87665 4.77455
      vertex -4.65529 1.25 4.77455
    endloop
  endfacet
  facet normal 0.396639 -0.593613 0.700215
    outer loop
      vertex -1.06304 2.5664 1.59265
      vertex -1.59095 3.84089 2.97215
      vertex -1.96424 1.96424 1.59265
    endloop
  endfacet
  facet normal -0.770328 0.514716 0.376381
    outer loop
      vertex 4.53064 -1.87665 4.77455
      vertex 3.84089 -1.59095 2.97215
      vertex 2.93969 -2.93969 2.97215
    endloop
  endfacet
  facet normal -0.908663 0.180745 0.376381
    outer loop
      vertex 3.84089 -1.59095 2.97215
      vertex 4.40599 -1.25 4.17269
      vertex 3.90871 -1.25 2.97215
    endloop
  endfacet
  facet normal -0.908663 0.180745 0.376381
    outer loop
      vertex 4.40599 -1.25 4.17269
      vertex 3.84089 -1.59095 2.97215
      vertex 4.53064 -1.87665 4.77455
    endloop
  endfacet
  facet normal 0.700214 0.139281 0.700214
    outer loop
      vertex -3.84089 -1.59095 2.97215
      vertex -3.61307 -1.25 2.67652
      vertex -3.90871 -1.25 2.97215
    endloop
  endfacet
  facet normal 0.700214 -0.139281 0.700214
    outer loop
      vertex -3.61307 1.25 2.67652
      vertex -3.84089 1.59095 2.97215
      vertex -3.90871 1.25 2.97215
    endloop
  endfacet
  facet normal 0.180745 -0.908663 0.376381
    outer loop
      vertex -1.59095 3.84089 2.97215
      vertex 0 4.15735 2.97215
      vertex -1.87665 4.53064 4.77455
    endloop
  endfacet
  facet normal 0.55557 0.83147 -0
    outer loop
      vertex -1.87665 -4.53064 4.77455
      vertex -3.4676 -3.4676 6.97545
      vertex -1.87665 -4.53064 6.97545
    endloop
  endfacet
  facet normal 0.55557 0.83147 0
    outer loop
      vertex -3.4676 -3.4676 6.97545
      vertex -1.87665 -4.53064 4.77455
      vertex -3.4676 -3.4676 4.77455
    endloop
  endfacet
  facet normal 0.139281 0.700214 0.700214
    outer loop
      vertex 0 -4.15735 2.97215
      vertex 0 -2.77785 1.59265
      vertex -1.59095 -3.84089 2.97215
    endloop
  endfacet
  facet normal -0.593613 0.39664 0.700215
    outer loop
      vertex 2.93969 -2.93969 2.97215
      vertex 3.84089 -1.59095 2.97215
      vertex 1.96424 -1.96424 1.59265
    endloop
  endfacet
  facet normal -0.980785 0.19509 0
    outer loop
      vertex 4.53064 -1.87665 4.77455
      vertex 4.65529 -1.25 6.97545
      vertex 4.65529 -1.25 4.77455
    endloop
  endfacet
  facet normal -0.980785 0.19509 0
    outer loop
      vertex 4.65529 -1.25 6.97545
      vertex 4.53064 -1.87665 4.77455
      vertex 4.53064 -1.87665 6.97545
    endloop
  endfacet
  facet normal -0.514717 0.770328 0.37638
    outer loop
      vertex 3.4676 -3.4676 4.77455
      vertex 2.93969 -2.93969 2.97215
      vertex 1.87665 -4.53064 4.77455
    endloop
  endfacet
  facet normal 0.83147 -0.55557 0
    outer loop
      vertex -4.53064 1.87665 6.97545
      vertex -3.4676 3.4676 4.77455
      vertex -3.4676 3.4676 6.97545
    endloop
  endfacet
  facet normal 0.83147 -0.55557 0
    outer loop
      vertex -3.4676 3.4676 4.77455
      vertex -4.53064 1.87665 6.97545
      vertex -4.53064 1.87665 4.77455
    endloop
  endfacet
  facet normal 0.55557 -0.83147 0
    outer loop
      vertex -3.4676 3.4676 4.77455
      vertex -1.87665 4.53064 6.97545
      vertex -3.4676 3.4676 6.97545
    endloop
  endfacet
  facet normal 0.55557 -0.83147 0
    outer loop
      vertex -1.87665 4.53064 6.97545
      vertex -3.4676 3.4676 4.77455
      vertex -1.87665 4.53064 4.77455
    endloop
  endfacet
  facet normal 0.980785 -0.19509 0
    outer loop
      vertex -4.65529 1.25 6.97545
      vertex -4.53064 1.87665 4.77455
      vertex -4.53064 1.87665 6.97545
    endloop
  endfacet
  facet normal 0.980785 -0.19509 0
    outer loop
      vertex -4.53064 1.87665 4.77455
      vertex -4.65529 1.25 6.97545
      vertex -4.65529 1.25 4.77455
    endloop
  endfacet
  facet normal 0.180744 0.908663 0.376381
    outer loop
      vertex 0 -4.90393 4.77455
      vertex 0 -4.15735 2.97215
      vertex -1.87665 -4.53064 4.77455
    endloop
  endfacet
  facet normal -0.139282 -0.700214 0.700215
    outer loop
      vertex 1.06304 2.5664 1.59265
      vertex 1.59095 3.84089 2.97215
      vertex 0 2.77785 1.59265
    endloop
  endfacet
  facet normal -0.908663 0.180744 0.376381
    outer loop
      vertex 4.53064 -1.87665 4.77455
      vertex 4.65529 -1.25 4.77455
      vertex 4.40599 -1.25 4.17269
    endloop
  endfacet
  facet normal -0.39664 -0.593613 0.700215
    outer loop
      vertex 1.96424 1.96424 1.59265
      vertex 2.93969 2.93969 2.97215
      vertex 1.59095 3.84089 2.97215
    endloop
  endfacet
  facet normal -0.180744 -0.908663 0.376381
    outer loop
      vertex 1.87665 4.53064 4.77455
      vertex 0 4.90393 4.77455
      vertex 0 4.15735 2.97215
    endloop
  endfacet
  facet normal 0.514716 -0.770328 0.376381
    outer loop
      vertex -1.59095 3.84089 2.97215
      vertex -1.87665 4.53064 4.77455
      vertex -2.93969 2.93969 2.97215
    endloop
  endfacet
  facet normal 0.770328 -0.514716 0.376381
    outer loop
      vertex -3.84089 1.59095 2.97215
      vertex -2.93969 2.93969 2.97215
      vertex -4.53064 1.87665 4.77455
    endloop
  endfacet
  facet normal -0.19509 -0.980785 0
    outer loop
      vertex 0 4.90393 4.77455
      vertex 1.87665 4.53064 6.97545
      vertex 0 4.90393 6.97545
    endloop
  endfacet
  facet normal -0.19509 -0.980785 -0
    outer loop
      vertex 1.87665 4.53064 6.97545
      vertex 0 4.90393 4.77455
      vertex 1.87665 4.53064 4.77455
    endloop
  endfacet
  facet normal 0.180744 -0.908663 0.376381
    outer loop
      vertex 0 4.15735 2.97215
      vertex 0 4.90393 4.77455
      vertex -1.87665 4.53064 4.77455
    endloop
  endfacet
  facet normal -0.323487 0.216148 0.921215
    outer loop
      vertex 0.689748 -0.689748 0.846074
      vertex 1.12037 -0.701303 1
      vertex 0.901199 -0.373289 0.846074
    endloop
  endfacet
  facet normal -0.323487 0.216148 0.921215
    outer loop
      vertex 1.12037 -0.701303 1
      vertex 0.689748 -0.689748 0.846074
      vertex 0.952516 -0.952516 1
    endloop
  endfacet
  facet normal -0.323487 0.216148 0.921215
    outer loop
      vertex 1.96424 -1.96424 1.59265
      vertex 1.487 -1.25 1.25748
      vertex 1.25 -1.25 1.17426
    endloop
  endfacet
  facet normal -0.700214 0.139281 0.700214
    outer loop
      vertex 3.84089 -1.59095 2.97215
      vertex 3.90871 -1.25 2.97215
      vertex 3.61307 -1.25 2.67652
    endloop
  endfacet
  facet normal -0.396639 0.593613 0.700215
    outer loop
      vertex 1.59095 -3.84089 2.97215
      vertex 1.96424 -1.96424 1.59265
      vertex 1.06304 -2.5664 1.59265
    endloop
  endfacet
  facet normal -0.980785 -0.19509 0
    outer loop
      vertex 4.65529 1.25 4.77455
      vertex 4.53064 1.87665 6.97545
      vertex 4.53064 1.87665 4.77455
    endloop
  endfacet
  facet normal -0.980785 -0.19509 0
    outer loop
      vertex 4.53064 1.87665 6.97545
      vertex 4.65529 1.25 4.77455
      vertex 4.65529 1.25 6.97545
    endloop
  endfacet
  facet normal -0.700214 -0.139281 0.700214
    outer loop
      vertex 3.90871 1.25 2.97215
      vertex 3.84089 1.59095 2.97215
      vertex 3.61307 1.25 2.67652
    endloop
  endfacet
  facet normal 0.19509 0.980785 -0
    outer loop
      vertex 0 -4.90393 4.77455
      vertex -1.87665 -4.53064 6.97545
      vertex 0 -4.90393 6.97545
    endloop
  endfacet
  facet normal 0.19509 0.980785 0
    outer loop
      vertex -1.87665 -4.53064 6.97545
      vertex 0 -4.90393 4.77455
      vertex -1.87665 -4.53064 4.77455
    endloop
  endfacet
  facet normal -0.514716 0.770328 0.376381
    outer loop
      vertex 1.87665 -4.53064 4.77455
      vertex 2.93969 -2.93969 2.97215
      vertex 1.59095 -3.84089 2.97215
    endloop
  endfacet
  facet normal -0.180745 0.908663 0.376381
    outer loop
      vertex 1.87665 -4.53064 4.77455
      vertex 1.59095 -3.84089 2.97215
      vertex 0 -4.15735 2.97215
    endloop
  endfacet
  facet normal -0.770328 0.514717 0.37638
    outer loop
      vertex 3.4676 -3.4676 4.77455
      vertex 4.53064 -1.87665 4.77455
      vertex 2.93969 -2.93969 2.97215
    endloop
  endfacet
  facet normal -0.83147 0.55557 0
    outer loop
      vertex 3.4676 -3.4676 4.77455
      vertex 4.53064 -1.87665 6.97545
      vertex 4.53064 -1.87665 4.77455
    endloop
  endfacet
  facet normal -0.83147 0.55557 0
    outer loop
      vertex 4.53064 -1.87665 6.97545
      vertex 3.4676 -3.4676 4.77455
      vertex 3.4676 -3.4676 6.97545
    endloop
  endfacet
  facet normal -0.0759006 0.38158 0.921215
    outer loop
      vertex 0.515498 -1.24452 1
      vertex 0.373289 -0.901199 0.846074
      vertex 0.48796 -1.25 1
    endloop
  endfacet
  facet normal -0.0758995 0.38158 0.921214
    outer loop
      vertex 0.48796 -1.25 1
      vertex 1.06304 -2.5664 1.59265
      vertex 0.517767 -1.25 1.00246
    endloop
  endfacet
  facet normal -0.0759012 0.381579 0.921215
    outer loop
      vertex 0.48796 -1.25 1
      vertex 0 -0.975451 0.846074
      vertex 1.06304 -2.5664 1.59265
    endloop
  endfacet
  facet normal -0.0759012 0.381579 0.921215
    outer loop
      vertex 0 -0.975451 0.846074
      vertex 0.48796 -1.25 1
      vertex 0.373289 -0.901199 0.846074
    endloop
  endfacet
  facet normal 0.323488 -0.216147 0.921214
    outer loop
      vertex -1.487 1.25 1.25748
      vertex -1.96424 1.96424 1.59265
      vertex -2.44147 1.25 1.59265
    endloop
  endfacet
  facet normal 0.323487 -0.216147 0.921215
    outer loop
      vertex -0.901199 0.373289 0.846074
      vertex -1.12037 0.701303 1
      vertex -1.24452 0.515498 1
    endloop
  endfacet
  facet normal 0.39664 -0.593613 0.700215
    outer loop
      vertex -1.96424 1.96424 1.59265
      vertex -1.59095 3.84089 2.97215
      vertex -2.93969 2.93969 2.97215
    endloop
  endfacet
  facet normal 0.700214 -0.139281 0.700214
    outer loop
      vertex -3.61307 1.25 2.67652
      vertex -3.01777 1.25 2.08121
      vertex -3.84089 1.59095 2.97215
    endloop
  endfacet
  facet normal 0.980785 0.19509 0
    outer loop
      vertex -4.53064 -1.87665 6.97545
      vertex -4.65529 -1.25 4.77455
      vertex -4.65529 -1.25 6.97545
    endloop
  endfacet
  facet normal 0.980785 0.19509 0
    outer loop
      vertex -4.65529 -1.25 4.77455
      vertex -4.53064 -1.87665 6.97545
      vertex -4.53064 -1.87665 4.77455
    endloop
  endfacet
  facet normal -0.216148 -0.323487 0.921215
    outer loop
      vertex 0.701303 1.12037 1
      vertex 0.689748 0.689748 0.846074
      vertex 0.952516 0.952516 1
    endloop
  endfacet
  facet normal -0.216148 -0.323487 0.921215
    outer loop
      vertex 0.689748 0.689748 0.846074
      vertex 0.701303 1.12037 1
      vertex 0.373289 0.901199 0.846074
    endloop
  endfacet
  facet normal -0.216148 -0.323487 0.921215
    outer loop
      vertex 1.25 1.25 1.17426
      vertex 1.96424 1.96424 1.59265
      vertex 0.895306 1.25 1.09104
    endloop
  endfacet
  facet normal 0.075901 -0.381579 0.921214
    outer loop
      vertex 0 0.975451 0.846074
      vertex 0 2.77785 1.59265
      vertex -1.06304 2.5664 1.59265
    endloop
  endfacet
  facet normal -0.55557 -0.83147 0
    outer loop
      vertex 1.87665 4.53064 4.77455
      vertex 3.4676 3.4676 6.97545
      vertex 1.87665 4.53064 6.97545
    endloop
  endfacet
  facet normal -0.55557 -0.83147 -0
    outer loop
      vertex 3.4676 3.4676 6.97545
      vertex 1.87665 4.53064 4.77455
      vertex 3.4676 3.4676 4.77455
    endloop
  endfacet
  facet normal -0.514717 -0.770328 0.37638
    outer loop
      vertex 2.93969 2.93969 2.97215
      vertex 3.4676 3.4676 4.77455
      vertex 1.87665 4.53064 4.77455
    endloop
  endfacet
  facet normal 0.381579 0.0759012 0.921215
    outer loop
      vertex -1.30347 -0.219172 1
      vertex -0.901199 -0.373289 0.846074
      vertex -0.975451 0 0.846074
    endloop
  endfacet
  facet normal 0.381579 0.0759011 0.921215
    outer loop
      vertex -0.901199 -0.373289 0.846074
      vertex -1.30347 -0.219172 1
      vertex -1.24452 -0.515498 1
    endloop
  endfacet
  facet normal 0.83147 0.55557 0
    outer loop
      vertex -3.4676 -3.4676 6.97545
      vertex -4.53064 -1.87665 4.77455
      vertex -4.53064 -1.87665 6.97545
    endloop
  endfacet
  facet normal 0.83147 0.55557 0
    outer loop
      vertex -4.53064 -1.87665 4.77455
      vertex -3.4676 -3.4676 6.97545
      vertex -3.4676 -3.4676 4.77455
    endloop
  endfacet
  facet normal 0.39664 0.593613 0.700215
    outer loop
      vertex -1.59095 -3.84089 2.97215
      vertex -1.96424 -1.96424 1.59265
      vertex -2.93969 -2.93969 2.97215
    endloop
  endfacet
  facet normal -0.075901 0.381579 0.921214
    outer loop
      vertex 1.06304 -2.5664 1.59265
      vertex 0 -0.975451 0.846074
      vertex 0 -2.77785 1.59265
    endloop
  endfacet
  facet normal -0.139282 0.700214 0.700215
    outer loop
      vertex 1.59095 -3.84089 2.97215
      vertex 1.06304 -2.5664 1.59265
      vertex 0 -2.77785 1.59265
    endloop
  endfacet
  facet normal -0.139281 0.700214 0.700214
    outer loop
      vertex 1.59095 -3.84089 2.97215
      vertex 0 -2.77785 1.59265
      vertex 0 -4.15735 2.97215
    endloop
  endfacet
  facet normal -0.19509 0.980785 0
    outer loop
      vertex 1.87665 -4.53064 4.77455
      vertex 0 -4.90393 6.97545
      vertex 1.87665 -4.53064 6.97545
    endloop
  endfacet
  facet normal -0.19509 0.980785 0
    outer loop
      vertex 0 -4.90393 6.97545
      vertex 1.87665 -4.53064 4.77455
      vertex 0 -4.90393 4.77455
    endloop
  endfacet
  facet normal -0.39664 0.593613 0.700215
    outer loop
      vertex 2.93969 -2.93969 2.97215
      vertex 1.96424 -1.96424 1.59265
      vertex 1.59095 -3.84089 2.97215
    endloop
  endfacet
  facet normal -0.323487 0.216147 0.921215
    outer loop
      vertex 1.12037 -0.701303 1
      vertex 1.24452 -0.515498 1
      vertex 0.901199 -0.373289 0.846074
    endloop
  endfacet
  facet normal -0.323488 0.216147 0.921214
    outer loop
      vertex 1.96424 -1.96424 1.59265
      vertex 2.44147 -1.25 1.59265
      vertex 1.487 -1.25 1.25748
    endloop
  endfacet
  facet normal -0.593613 0.396639 0.700215
    outer loop
      vertex 1.96424 -1.96424 1.59265
      vertex 3.01777 -1.25 2.08121
      vertex 2.44147 -1.25 1.59265
    endloop
  endfacet
  facet normal -0.593613 0.396639 0.700215
    outer loop
      vertex 3.01777 -1.25 2.08121
      vertex 1.96424 -1.96424 1.59265
      vertex 3.84089 -1.59095 2.97215
    endloop
  endfacet
  facet normal -0.216148 0.323487 0.921215
    outer loop
      vertex 1.96424 -1.96424 1.59265
      vertex 1.25 -1.25 1.17426
      vertex 0.895306 -1.25 1.09104
    endloop
  endfacet
  facet normal -0.216148 0.323487 0.921215
    outer loop
      vertex 0.689748 -0.689748 0.846074
      vertex 0.701303 -1.12037 1
      vertex 0.952516 -0.952516 1
    endloop
  endfacet
  facet normal -0.216148 0.323487 0.921215
    outer loop
      vertex 0.701303 -1.12037 1
      vertex 0.689748 -0.689748 0.846074
      vertex 0.373289 -0.901199 0.846074
    endloop
  endfacet
  facet normal -0.216147 0.323488 0.921215
    outer loop
      vertex 0.895306 -1.25 1.09104
      vertex 1.06304 -2.5664 1.59265
      vertex 1.96424 -1.96424 1.59265
    endloop
  endfacet
  facet normal -0.216148 0.323487 0.921214
    outer loop
      vertex 1.06304 -2.5664 1.59265
      vertex 0.895306 -1.25 1.09104
      vertex 0.517767 -1.25 1.00246
    endloop
  endfacet
  facet normal -0.216147 0.323487 0.921215
    outer loop
      vertex 0.515498 -1.24452 1
      vertex 0.701303 -1.12037 1
      vertex 0.373289 -0.901199 0.846074
    endloop
  endfacet
  facet normal 0.216148 0.323487 0.921215
    outer loop
      vertex -0.895306 -1.25 1.09104
      vertex -1.25 -1.25 1.17426
      vertex -1.96424 -1.96424 1.59265
    endloop
  endfacet
  facet normal 0.216148 0.323487 0.921215
    outer loop
      vertex -0.689748 -0.689748 0.846074
      vertex -0.701303 -1.12037 1
      vertex -0.373289 -0.901199 0.846074
    endloop
  endfacet
  facet normal 0.216148 0.323487 0.921215
    outer loop
      vertex -0.701303 -1.12037 1
      vertex -0.689748 -0.689748 0.846074
      vertex -0.952516 -0.952516 1
    endloop
  endfacet
  facet normal 0 0 1
    outer loop
      vertex 0.901199 0.373289 0.846074
      vertex 0.901199 -0.373289 0.846074
      vertex 0.975451 0 0.846074
    endloop
  endfacet
  facet normal 0 0 1
    outer loop
      vertex 0.689748 0.689748 0.846074
      vertex 0.901199 -0.373289 0.846074
      vertex 0.901199 0.373289 0.846074
    endloop
  endfacet
  facet normal 0 0 1
    outer loop
      vertex 0.689748 0.689748 0.846074
      vertex 0.689748 -0.689748 0.846074
      vertex 0.901199 -0.373289 0.846074
    endloop
  endfacet
  facet normal 0 0 1
    outer loop
      vertex 0.373289 0.901199 0.846074
      vertex 0.689748 -0.689748 0.846074
      vertex 0.689748 0.689748 0.846074
    endloop
  endfacet
  facet normal 0 0 1
    outer loop
      vertex 0.373289 0.901199 0.846074
      vertex 0.373289 -0.901199 0.846074
      vertex 0.689748 -0.689748 0.846074
    endloop
  endfacet
  facet normal 0 0 1
    outer loop
      vertex 0 0.975451 0.846074
      vertex 0.373289 -0.901199 0.846074
      vertex 0.373289 0.901199 0.846074
    endloop
  endfacet
  facet normal 0 0 1
    outer loop
      vertex 0 0.975451 0.846074
      vertex 0 -0.975451 0.846074
      vertex 0.373289 -0.901199 0.846074
    endloop
  endfacet
  facet normal -0 0 1
    outer loop
      vertex -0.373289 0.901199 0.846074
      vertex 0 -0.975451 0.846074
      vertex 0 0.975451 0.846074
    endloop
  endfacet
  facet normal 0 0 1
    outer loop
      vertex -0.373289 0.901199 0.846074
      vertex -0.373289 -0.901199 0.846074
      vertex 0 -0.975451 0.846074
    endloop
  endfacet
  facet normal -0 0 1
    outer loop
      vertex -0.689748 0.689748 0.846074
      vertex -0.373289 -0.901199 0.846074
      vertex -0.373289 0.901199 0.846074
    endloop
  endfacet
  facet normal 0 0 1
    outer loop
      vertex -0.689748 0.689748 0.846074
      vertex -0.689748 -0.689748 0.846074
      vertex -0.373289 -0.901199 0.846074
    endloop
  endfacet
  facet normal -0 0 1
    outer loop
      vertex -0.901199 0.373289 0.846074
      vertex -0.689748 -0.689748 0.846074
      vertex -0.689748 0.689748 0.846074
    endloop
  endfacet
  facet normal 0 0 1
    outer loop
      vertex -0.901199 0.373289 0.846074
      vertex -0.901199 -0.373289 0.846074
      vertex -0.689748 -0.689748 0.846074
    endloop
  endfacet
  facet normal 0 -0 1
    outer loop
      vertex -0.901199 -0.373289 0.846074
      vertex -0.901199 0.373289 0.846074
      vertex -0.975451 0 0.846074
    endloop
  endfacet
  facet normal 0.323487 0.216148 0.921215
    outer loop
      vertex -1.25 -1.25 1.17426
      vertex -1.487 -1.25 1.25748
      vertex -1.96424 -1.96424 1.59265
    endloop
  endfacet
  facet normal 0.323487 0.216148 0.921215
    outer loop
      vertex -1.12037 -0.701303 1
      vertex -0.689748 -0.689748 0.846074
      vertex -0.901199 -0.373289 0.846074
    endloop
  endfacet
  facet normal 0.323487 0.216148 0.921215
    outer loop
      vertex -0.689748 -0.689748 0.846074
      vertex -1.12037 -0.701303 1
      vertex -0.952516 -0.952516 1
    endloop
  endfacet
  facet normal 0.593613 0.39664 0.700215
    outer loop
      vertex -2.93969 -2.93969 2.97215
      vertex -1.96424 -1.96424 1.59265
      vertex -3.84089 -1.59095 2.97215
    endloop
  endfacet
  facet normal 0.216148 -0.323487 0.921214
    outer loop
      vertex -1.06304 2.5664 1.59265
      vertex -0.895306 1.25 1.09104
      vertex -0.517767 1.25 1.00246
    endloop
  endfacet
  facet normal 0.216147 -0.323488 0.921215
    outer loop
      vertex -0.895306 1.25 1.09104
      vertex -1.06304 2.5664 1.59265
      vertex -1.96424 1.96424 1.59265
    endloop
  endfacet
  facet normal 0.216147 -0.323487 0.921215
    outer loop
      vertex -0.373289 0.901199 0.846074
      vertex -0.515498 1.24452 1
      vertex -0.701303 1.12037 1
    endloop
  endfacet
  facet normal -0.139281 -0.700214 0.700214
    outer loop
      vertex 1.59095 3.84089 2.97215
      vertex 0 4.15735 2.97215
      vertex 0 2.77785 1.59265
    endloop
  endfacet
  facet normal 0.593613 -0.39664 0.700215
    outer loop
      vertex -1.96424 1.96424 1.59265
      vertex -2.93969 2.93969 2.97215
      vertex -3.84089 1.59095 2.97215
    endloop
  endfacet
  facet normal 0.908663 -0.180745 0.376381
    outer loop
      vertex -4.40599 1.25 4.17269
      vertex -3.84089 1.59095 2.97215
      vertex -4.53064 1.87665 4.77455
    endloop
  endfacet
  facet normal 0.908663 -0.180745 0.376381
    outer loop
      vertex -3.84089 1.59095 2.97215
      vertex -4.40599 1.25 4.17269
      vertex -3.90871 1.25 2.97215
    endloop
  endfacet
  facet normal 0.770328 -0.514717 0.37638
    outer loop
      vertex -2.93969 2.93969 2.97215
      vertex -3.4676 3.4676 4.77455
      vertex -4.53064 1.87665 4.77455
    endloop
  endfacet
  facet normal 0.514717 -0.770328 0.37638
    outer loop
      vertex -2.93969 2.93969 2.97215
      vertex -1.87665 4.53064 4.77455
      vertex -3.4676 3.4676 4.77455
    endloop
  endfacet
  facet normal 0.19509 -0.980785 0
    outer loop
      vertex -1.87665 4.53064 4.77455
      vertex 0 4.90393 6.97545
      vertex -1.87665 4.53064 6.97545
    endloop
  endfacet
  facet normal 0.19509 -0.980785 0
    outer loop
      vertex 0 4.90393 6.97545
      vertex -1.87665 4.53064 4.77455
      vertex 0 4.90393 4.77455
    endloop
  endfacet
  facet normal -0.593613 -0.39664 0.700215
    outer loop
      vertex 3.84089 1.59095 2.97215
      vertex 2.93969 2.93969 2.97215
      vertex 1.96424 1.96424 1.59265
    endloop
  endfacet
  facet normal -0.593613 -0.396639 0.700215
    outer loop
      vertex 1.96424 1.96424 1.59265
      vertex 3.01777 1.25 2.08121
      vertex 3.84089 1.59095 2.97215
    endloop
  endfacet
  facet normal -0.593613 -0.396639 0.700215
    outer loop
      vertex 3.01777 1.25 2.08121
      vertex 1.96424 1.96424 1.59265
      vertex 2.44147 1.25 1.59265
    endloop
  endfacet
  facet normal -0.180745 -0.908663 0.376381
    outer loop
      vertex 1.59095 3.84089 2.97215
      vertex 1.87665 4.53064 4.77455
      vertex 0 4.15735 2.97215
    endloop
  endfacet
  facet normal -0.514716 -0.770328 0.376381
    outer loop
      vertex 2.93969 2.93969 2.97215
      vertex 1.87665 4.53064 4.77455
      vertex 1.59095 3.84089 2.97215
    endloop
  endfacet
  facet normal -0.770328 -0.514717 0.37638
    outer loop
      vertex 4.53064 1.87665 4.77455
      vertex 3.4676 3.4676 4.77455
      vertex 2.93969 2.93969 2.97215
    endloop
  endfacet
  facet normal -0.83147 -0.55557 0
    outer loop
      vertex 4.53064 1.87665 4.77455
      vertex 3.4676 3.4676 6.97545
      vertex 3.4676 3.4676 4.77455
    endloop
  endfacet
  facet normal -0.83147 -0.55557 0
    outer loop
      vertex 3.4676 3.4676 6.97545
      vertex 4.53064 1.87665 4.77455
      vertex 4.53064 1.87665 6.97545
    endloop
  endfacet
  facet normal 0.514716 0.770328 0.376381
    outer loop
      vertex -1.87665 -4.53064 4.77455
      vertex -1.59095 -3.84089 2.97215
      vertex -2.93969 -2.93969 2.97215
    endloop
  endfacet
  facet normal 0.908663 0.180745 0.376381
    outer loop
      vertex -4.40599 -1.25 4.17269
      vertex -3.84089 -1.59095 2.97215
      vertex -3.90871 -1.25 2.97215
    endloop
  endfacet
  facet normal 0.908663 0.180745 0.376381
    outer loop
      vertex -3.84089 -1.59095 2.97215
      vertex -4.40599 -1.25 4.17269
      vertex -4.53064 -1.87665 4.77455
    endloop
  endfacet
  facet normal 0.514717 0.770328 0.37638
    outer loop
      vertex -1.87665 -4.53064 4.77455
      vertex -2.93969 -2.93969 2.97215
      vertex -3.4676 -3.4676 4.77455
    endloop
  endfacet
  facet normal 0.180745 0.908663 0.376381
    outer loop
      vertex 0 -4.15735 2.97215
      vertex -1.59095 -3.84089 2.97215
      vertex -1.87665 -4.53064 4.77455
    endloop
  endfacet
  facet normal 0.075901 0.381579 0.921214
    outer loop
      vertex 0 -2.77785 1.59265
      vertex 0 -0.975451 0.846074
      vertex -1.06304 -2.5664 1.59265
    endloop
  endfacet
  facet normal 0.139282 0.700214 0.700215
    outer loop
      vertex 0 -2.77785 1.59265
      vertex -1.06304 -2.5664 1.59265
      vertex -1.59095 -3.84089 2.97215
    endloop
  endfacet
  facet normal -0.55557 0.83147 0
    outer loop
      vertex 3.4676 -3.4676 4.77455
      vertex 1.87665 -4.53064 6.97545
      vertex 3.4676 -3.4676 6.97545
    endloop
  endfacet
  facet normal -0.55557 0.83147 0
    outer loop
      vertex 1.87665 -4.53064 6.97545
      vertex 3.4676 -3.4676 4.77455
      vertex 1.87665 -4.53064 4.77455
    endloop
  endfacet
  facet normal 0.700214 0.139281 0.700214
    outer loop
      vertex -3.01777 -1.25 2.08121
      vertex -3.61307 -1.25 2.67652
      vertex -3.84089 -1.59095 2.97215
    endloop
  endfacet
  facet normal 0.381579 0.075901 0.921214
    outer loop
      vertex -1.30347 -0.219172 1
      vertex -0.975451 0 0.846074
      vertex -1.34706 0 1
    endloop
  endfacet
  facet normal 0.593613 -0.396639 0.700215
    outer loop
      vertex -1.96424 1.96424 1.59265
      vertex -3.01777 1.25 2.08121
      vertex -2.44147 1.25 1.59265
    endloop
  endfacet
  facet normal 0.593613 -0.396639 0.700215
    outer loop
      vertex -3.01777 1.25 2.08121
      vertex -1.96424 1.96424 1.59265
      vertex -3.84089 1.59095 2.97215
    endloop
  endfacet
  facet normal 0.323487 -0.216148 0.921215
    outer loop
      vertex -1.487 1.25 1.25748
      vertex -1.25 1.25 1.17426
      vertex -1.96424 1.96424 1.59265
    endloop
  endfacet
  facet normal 0.323487 -0.216148 0.921215
    outer loop
      vertex -1.12037 0.701303 1
      vertex -0.689748 0.689748 0.846074
      vertex -0.952516 0.952516 1
    endloop
  endfacet
  facet normal 0.323487 -0.216148 0.921215
    outer loop
      vertex -0.689748 0.689748 0.846074
      vertex -1.12037 0.701303 1
      vertex -0.901199 0.373289 0.846074
    endloop
  endfacet
  facet normal 0.381579 -0.0759011 0.921215
    outer loop
      vertex -1.30347 0.219172 1
      vertex -0.901199 0.373289 0.846074
      vertex -1.24452 0.515498 1
    endloop
  endfacet
  facet normal 0.381579 -0.0759012 0.921215
    outer loop
      vertex -0.901199 0.373289 0.846074
      vertex -1.30347 0.219172 1
      vertex -0.975451 0 0.846074
    endloop
  endfacet
  facet normal 0.139282 -0.700214 0.700215
    outer loop
      vertex -1.06304 2.5664 1.59265
      vertex 0 2.77785 1.59265
      vertex -1.59095 3.84089 2.97215
    endloop
  endfacet
  facet normal -0.075901 -0.381579 0.921214
    outer loop
      vertex 1.06304 2.5664 1.59265
      vertex 0 2.77785 1.59265
      vertex 0 0.975451 0.846074
    endloop
  endfacet
  facet normal -0.0758995 -0.38158 0.921214
    outer loop
      vertex 1.06304 2.5664 1.59265
      vertex 0.48796 1.25 1
      vertex 0.517767 1.25 1.00246
    endloop
  endfacet
  facet normal -0.0759012 -0.381579 0.921215
    outer loop
      vertex 0.48796 1.25 1
      vertex 0 0.975451 0.846074
      vertex 0.373289 0.901199 0.846074
    endloop
  endfacet
  facet normal -0.0759012 -0.381579 0.921215
    outer loop
      vertex 0 0.975451 0.846074
      vertex 0.48796 1.25 1
      vertex 1.06304 2.5664 1.59265
    endloop
  endfacet
  facet normal -0.0759006 -0.38158 0.921215
    outer loop
      vertex 0.515498 1.24452 1
      vertex 0.48796 1.25 1
      vertex 0.373289 0.901199 0.846074
    endloop
  endfacet
  facet normal -0.381579 -0.075901 0.921214
    outer loop
      vertex 1.34706 0 1
      vertex 1.30347 0.219172 1
      vertex 0.975451 0 0.846074
    endloop
  endfacet
  facet normal -0.700214 -0.139281 0.700214
    outer loop
      vertex 3.61307 1.25 2.67652
      vertex 3.84089 1.59095 2.97215
      vertex 3.01777 1.25 2.08121
    endloop
  endfacet
  facet normal -0.770328 -0.514716 0.376381
    outer loop
      vertex 3.84089 1.59095 2.97215
      vertex 4.53064 1.87665 4.77455
      vertex 2.93969 2.93969 2.97215
    endloop
  endfacet
  facet normal -0.908663 -0.180745 0.376381
    outer loop
      vertex 4.40599 1.25 4.17269
      vertex 3.84089 1.59095 2.97215
      vertex 3.90871 1.25 2.97215
    endloop
  endfacet
  facet normal -0.908663 -0.180745 0.376381
    outer loop
      vertex 3.84089 1.59095 2.97215
      vertex 4.40599 1.25 4.17269
      vertex 4.53064 1.87665 4.77455
    endloop
  endfacet
  facet normal 0.770328 0.514717 0.37638
    outer loop
      vertex -3.4676 -3.4676 4.77455
      vertex -2.93969 -2.93969 2.97215
      vertex -4.53064 -1.87665 4.77455
    endloop
  endfacet
  facet normal 0.770328 0.514716 0.376381
    outer loop
      vertex -2.93969 -2.93969 2.97215
      vertex -3.84089 -1.59095 2.97215
      vertex -4.53064 -1.87665 4.77455
    endloop
  endfacet
  facet normal 0.0759006 0.38158 0.921215
    outer loop
      vertex -0.373289 -0.901199 0.846074
      vertex -0.515498 -1.24452 1
      vertex -0.48796 -1.25 1
    endloop
  endfacet
  facet normal 0.0759012 0.381579 0.921215
    outer loop
      vertex -0.48796 -1.25 1
      vertex 0 -0.975451 0.846074
      vertex -0.373289 -0.901199 0.846074
    endloop
  endfacet
  facet normal 0.0759012 0.381579 0.921215
    outer loop
      vertex -0.48796 -1.25 1
      vertex -1.06304 -2.5664 1.59265
      vertex 0 -0.975451 0.846074
    endloop
  endfacet
  facet normal 0.0758995 0.38158 0.921214
    outer loop
      vertex -1.06304 -2.5664 1.59265
      vertex -0.48796 -1.25 1
      vertex -0.517767 -1.25 1.00246
    endloop
  endfacet
  facet normal 0.323488 0.216147 0.921214
    outer loop
      vertex -1.96424 -1.96424 1.59265
      vertex -1.487 -1.25 1.25748
      vertex -2.44147 -1.25 1.59265
    endloop
  endfacet
  facet normal 0.323487 0.216147 0.921215
    outer loop
      vertex -1.12037 -0.701303 1
      vertex -0.901199 -0.373289 0.846074
      vertex -1.24452 -0.515498 1
    endloop
  endfacet
  facet normal 0.593613 0.396639 0.700215
    outer loop
      vertex -3.01777 -1.25 2.08121
      vertex -1.96424 -1.96424 1.59265
      vertex -2.44147 -1.25 1.59265
    endloop
  endfacet
  facet normal 0.593613 0.396639 0.700215
    outer loop
      vertex -1.96424 -1.96424 1.59265
      vertex -3.01777 -1.25 2.08121
      vertex -3.84089 -1.59095 2.97215
    endloop
  endfacet
  facet normal 0.216148 -0.323487 0.921215
    outer loop
      vertex -1.25 1.25 1.17426
      vertex -0.895306 1.25 1.09104
      vertex -1.96424 1.96424 1.59265
    endloop
  endfacet
  facet normal 0.216148 -0.323487 0.921215
    outer loop
      vertex -0.701303 1.12037 1
      vertex -0.689748 0.689748 0.846074
      vertex -0.373289 0.901199 0.846074
    endloop
  endfacet
  facet normal 0.216148 -0.323487 0.921215
    outer loop
      vertex -0.689748 0.689748 0.846074
      vertex -0.701303 1.12037 1
      vertex -0.952516 0.952516 1
    endloop
  endfacet
  facet normal 0.0759012 -0.381579 0.921215
    outer loop
      vertex 0 0.975451 0.846074
      vertex -0.48796 1.25 1
      vertex -0.373289 0.901199 0.846074
    endloop
  endfacet
  facet normal 0.0758995 -0.38158 0.921214
    outer loop
      vertex -0.48796 1.25 1
      vertex -1.06304 2.5664 1.59265
      vertex -0.517767 1.25 1.00246
    endloop
  endfacet
  facet normal 0.0759012 -0.381579 0.921215
    outer loop
      vertex -1.06304 2.5664 1.59265
      vertex -0.48796 1.25 1
      vertex 0 0.975451 0.846074
    endloop
  endfacet
  facet normal 0.0759006 -0.38158 0.921215
    outer loop
      vertex -0.373289 0.901199 0.846074
      vertex -0.48796 1.25 1
      vertex -0.515498 1.24452 1
    endloop
  endfacet
  facet normal -0.396639 -0.593613 0.700215
    outer loop
      vertex 1.96424 1.96424 1.59265
      vertex 1.59095 3.84089 2.97215
      vertex 1.06304 2.5664 1.59265
    endloop
  endfacet
  facet normal -0.216147 -0.323488 0.921215
    outer loop
      vertex 1.06304 2.5664 1.59265
      vertex 0.895306 1.25 1.09104
      vertex 1.96424 1.96424 1.59265
    endloop
  endfacet
  facet normal -0.216148 -0.323487 0.921214
    outer loop
      vertex 0.895306 1.25 1.09104
      vertex 1.06304 2.5664 1.59265
      vertex 0.517767 1.25 1.00246
    endloop
  endfacet
  facet normal -0.216147 -0.323487 0.921215
    outer loop
      vertex 0.701303 1.12037 1
      vertex 0.515498 1.24452 1
      vertex 0.373289 0.901199 0.846074
    endloop
  endfacet
  facet normal -0.323488 -0.216147 0.921214
    outer loop
      vertex 2.44147 1.25 1.59265
      vertex 1.96424 1.96424 1.59265
      vertex 1.487 1.25 1.25748
    endloop
  endfacet
  facet normal -0.323487 -0.216147 0.921215
    outer loop
      vertex 1.24452 0.515498 1
      vertex 1.12037 0.701303 1
      vertex 0.901199 0.373289 0.846074
    endloop
  endfacet
  facet normal -0.381579 -0.0759011 0.921215
    outer loop
      vertex 0.901199 0.373289 0.846074
      vertex 1.30347 0.219172 1
      vertex 1.24452 0.515498 1
    endloop
  endfacet
  facet normal -0.381579 -0.0759012 0.921215
    outer loop
      vertex 1.30347 0.219172 1
      vertex 0.901199 0.373289 0.846074
      vertex 0.975451 0 0.846074
    endloop
  endfacet
  facet normal -0.700214 0.139281 0.700214
    outer loop
      vertex 3.84089 -1.59095 2.97215
      vertex 3.61307 -1.25 2.67652
      vertex 3.01777 -1.25 2.08121
    endloop
  endfacet
  facet normal -0.381579 0.075901 0.921214
    outer loop
      vertex 1.30347 -0.219172 1
      vertex 1.34706 0 1
      vertex 0.975451 0 0.846074
    endloop
  endfacet
  facet normal -0.323487 -0.216148 0.921215
    outer loop
      vertex 1.487 1.25 1.25748
      vertex 1.96424 1.96424 1.59265
      vertex 1.25 1.25 1.17426
    endloop
  endfacet
  facet normal -0.323487 -0.216148 0.921215
    outer loop
      vertex 0.689748 0.689748 0.846074
      vertex 1.12037 0.701303 1
      vertex 0.952516 0.952516 1
    endloop
  endfacet
  facet normal -0.323487 -0.216148 0.921215
    outer loop
      vertex 1.12037 0.701303 1
      vertex 0.689748 0.689748 0.846074
      vertex 0.901199 0.373289 0.846074
    endloop
  endfacet
  facet normal 0.770328 0.514716 -0.376381
    outer loop
      vertex -3.94722 -1.63499 8.5
      vertex -3.18494 -2.77581 8.5
      vertex -4.53064 -1.87665 6.97545
    endloop
  endfacet
  facet normal -0.770328 0.514716 -0.376381
    outer loop
      vertex 3.94722 -1.63499 8.5
      vertex 4.53064 -1.87665 6.97545
      vertex 3.18494 -2.77581 8.5
    endloop
  endfacet
  facet normal 0.180745 -0.908663 -0.376381
    outer loop
      vertex -0.289297 4.21489 8.5
      vertex -1.63499 3.94722 8.5
      vertex -1.87665 4.53064 6.97545
    endloop
  endfacet
  facet normal 0.908663 0.180745 -0.376381
    outer loop
      vertex -3.94722 -1.63499 8.5
      vertex -4.40599 -1.25 7.57731
      vertex -4.0238 -1.25 8.5
    endloop
  endfacet
  facet normal 0.908663 0.180745 -0.376381
    outer loop
      vertex -4.40599 -1.25 7.57731
      vertex -3.94722 -1.63499 8.5
      vertex -4.53064 -1.87665 6.97545
    endloop
  endfacet
  facet normal -0.908663 0.180744 -0.376381
    outer loop
      vertex 4.65529 -1.25 6.97545
      vertex 4.53064 -1.87665 6.97545
      vertex 4.40599 -1.25 7.57731
    endloop
  endfacet
  facet normal -0.180745 -0.908663 -0.376381
    outer loop
      vertex 1.87665 4.53064 6.97545
      vertex 1.63499 3.94722 8.5
      vertex 0.289297 4.21489 8.5
    endloop
  endfacet
  facet normal -0.770328 -0.514716 -0.376381
    outer loop
      vertex 4.53064 1.87665 6.97545
      vertex 3.94722 1.63499 8.5
      vertex 3.18494 2.77581 8.5
    endloop
  endfacet
  facet normal 0.514717 0.770328 -0.37638
    outer loop
      vertex -3.4676 -3.4676 6.97545
      vertex -2.77581 -3.18494 8.5
      vertex -1.87665 -4.53064 6.97545
    endloop
  endfacet
  facet normal 0.514717 0.770328 -0.37638
    outer loop
      vertex -2.77581 -3.18494 8.5
      vertex -3.4676 -3.4676 6.97545
      vertex -3.02107 -3.02107 8.5
    endloop
  endfacet
  facet normal -0.908663 -0.180744 -0.376381
    outer loop
      vertex 4.53064 1.87665 6.97545
      vertex 4.65529 1.25 6.97545
      vertex 4.40599 1.25 7.57731
    endloop
  endfacet
  facet normal -0.908663 -0.180745 -0.376381
    outer loop
      vertex 4.40599 1.25 7.57731
      vertex 3.94722 1.63499 8.5
      vertex 4.53064 1.87665 6.97545
    endloop
  endfacet
  facet normal -0.908663 -0.180745 -0.376381
    outer loop
      vertex 3.94722 1.63499 8.5
      vertex 4.40599 1.25 7.57731
      vertex 4.0238 1.25 8.5
    endloop
  endfacet
  facet normal 0.908663 -0.180745 -0.376381
    outer loop
      vertex -4.40599 1.25 7.57731
      vertex -3.94722 1.63499 8.5
      vertex -4.0238 1.25 8.5
    endloop
  endfacet
  facet normal 0.908663 -0.180745 -0.376381
    outer loop
      vertex -3.94722 1.63499 8.5
      vertex -4.40599 1.25 7.57731
      vertex -4.53064 1.87665 6.97545
    endloop
  endfacet
  facet normal 0.770328 0.514717 -0.37638
    outer loop
      vertex -3.4676 -3.4676 6.97545
      vertex -3.18494 -2.77581 8.5
      vertex -3.02107 -3.02107 8.5
    endloop
  endfacet
  facet normal 0.770328 0.514717 -0.37638
    outer loop
      vertex -3.18494 -2.77581 8.5
      vertex -3.4676 -3.4676 6.97545
      vertex -4.53064 -1.87665 6.97545
    endloop
  endfacet
  facet normal -0.514717 0.770328 -0.37638
    outer loop
      vertex 3.4676 -3.4676 6.97545
      vertex 2.77581 -3.18494 8.5
      vertex 3.02107 -3.02107 8.5
    endloop
  endfacet
  facet normal -0.514717 0.770328 -0.37638
    outer loop
      vertex 2.77581 -3.18494 8.5
      vertex 3.4676 -3.4676 6.97545
      vertex 1.87665 -4.53064 6.97545
    endloop
  endfacet
  facet normal -0.908663 0.180745 -0.376381
    outer loop
      vertex 4.40599 -1.25 7.57731
      vertex 3.94722 -1.63499 8.5
      vertex 4.0238 -1.25 8.5
    endloop
  endfacet
  facet normal -0.908663 0.180745 -0.376381
    outer loop
      vertex 3.94722 -1.63499 8.5
      vertex 4.40599 -1.25 7.57731
      vertex 4.53064 -1.87665 6.97545
    endloop
  endfacet
  facet normal 0.908663 0.180744 -0.376381
    outer loop
      vertex -4.40599 -1.25 7.57731
      vertex -4.53064 -1.87665 6.97545
      vertex -4.65529 -1.25 6.97545
    endloop
  endfacet
  facet normal 0.908663 -0.180744 -0.376381
    outer loop
      vertex -4.53064 1.87665 6.97545
      vertex -4.40599 1.25 7.57731
      vertex -4.65529 1.25 6.97545
    endloop
  endfacet
  facet normal 0.770328 -0.514716 -0.376381
    outer loop
      vertex -3.18494 2.77581 8.5
      vertex -3.94722 1.63499 8.5
      vertex -4.53064 1.87665 6.97545
    endloop
  endfacet
  facet normal -0.770328 -0.514717 -0.37638
    outer loop
      vertex 3.4676 3.4676 6.97545
      vertex 3.18494 2.77581 8.5
      vertex 3.02107 3.02107 8.5
    endloop
  endfacet
  facet normal -0.770328 -0.514717 -0.37638
    outer loop
      vertex 3.18494 2.77581 8.5
      vertex 3.4676 3.4676 6.97545
      vertex 4.53064 1.87665 6.97545
    endloop
  endfacet
  facet normal -0.514717 -0.770328 -0.37638
    outer loop
      vertex 3.4676 3.4676 6.97545
      vertex 2.77581 3.18494 8.5
      vertex 1.87665 4.53064 6.97545
    endloop
  endfacet
  facet normal -0.514717 -0.770328 -0.37638
    outer loop
      vertex 2.77581 3.18494 8.5
      vertex 3.4676 3.4676 6.97545
      vertex 3.02107 3.02107 8.5
    endloop
  endfacet
  facet normal -0.180745 -0.908663 -0.37638
    outer loop
      vertex 0 4.90393 6.97545
      vertex 0.289297 4.21489 8.5
      vertex 0 4.27244 8.5
    endloop
  endfacet
  facet normal -0.180744 -0.908663 -0.376381
    outer loop
      vertex 0.289297 4.21489 8.5
      vertex 0 4.90393 6.97545
      vertex 1.87665 4.53064 6.97545
    endloop
  endfacet
  facet normal 0.180744 -0.908663 -0.376381
    outer loop
      vertex 0 4.90393 6.97545
      vertex -0.289297 4.21489 8.5
      vertex -1.87665 4.53064 6.97545
    endloop
  endfacet
  facet normal 0.180745 -0.908663 -0.37638
    outer loop
      vertex -0.289297 4.21489 8.5
      vertex 0 4.90393 6.97545
      vertex 0 4.27244 8.5
    endloop
  endfacet
  facet normal 0.514716 0.770328 -0.376381
    outer loop
      vertex -1.63499 -3.94722 8.5
      vertex -1.87665 -4.53064 6.97545
      vertex -2.77581 -3.18494 8.5
    endloop
  endfacet
  facet normal 0.514716 -0.770328 -0.376381
    outer loop
      vertex -1.87665 4.53064 6.97545
      vertex -1.63499 3.94722 8.5
      vertex -2.77581 3.18494 8.5
    endloop
  endfacet
  facet normal -0.770328 0.514717 -0.37638
    outer loop
      vertex 3.4676 -3.4676 6.97545
      vertex 3.18494 -2.77581 8.5
      vertex 4.53064 -1.87665 6.97545
    endloop
  endfacet
  facet normal -0.770328 0.514717 -0.37638
    outer loop
      vertex 3.18494 -2.77581 8.5
      vertex 3.4676 -3.4676 6.97545
      vertex 3.02107 -3.02107 8.5
    endloop
  endfacet
  facet normal -0.180745 0.908663 -0.376381
    outer loop
      vertex 1.63499 -3.94722 8.5
      vertex 1.87665 -4.53064 6.97545
      vertex 0.289297 -4.21489 8.5
    endloop
  endfacet
  facet normal 0.514717 -0.770328 -0.37638
    outer loop
      vertex -3.4676 3.4676 6.97545
      vertex -2.77581 3.18494 8.5
      vertex -3.02107 3.02107 8.5
    endloop
  endfacet
  facet normal 0.514717 -0.770328 -0.37638
    outer loop
      vertex -2.77581 3.18494 8.5
      vertex -3.4676 3.4676 6.97545
      vertex -1.87665 4.53064 6.97545
    endloop
  endfacet
  facet normal 0.770328 -0.514717 -0.37638
    outer loop
      vertex -3.18494 2.77581 8.5
      vertex -3.4676 3.4676 6.97545
      vertex -3.02107 3.02107 8.5
    endloop
  endfacet
  facet normal 0.770328 -0.514717 -0.37638
    outer loop
      vertex -3.4676 3.4676 6.97545
      vertex -3.18494 2.77581 8.5
      vertex -4.53064 1.87665 6.97545
    endloop
  endfacet
  facet normal -0.514716 -0.770328 -0.376381
    outer loop
      vertex 1.87665 4.53064 6.97545
      vertex 2.77581 3.18494 8.5
      vertex 1.63499 3.94722 8.5
    endloop
  endfacet
  facet normal -0.180744 0.908663 -0.376381
    outer loop
      vertex 0 -4.90393 6.97545
      vertex 0.289297 -4.21489 8.5
      vertex 1.87665 -4.53064 6.97545
    endloop
  endfacet
  facet normal -0.180745 0.908663 -0.37638
    outer loop
      vertex 0.289297 -4.21489 8.5
      vertex 0 -4.90393 6.97545
      vertex 0 -4.27244 8.5
    endloop
  endfacet
  facet normal 0.180745 0.908663 -0.37638
    outer loop
      vertex 0 -4.90393 6.97545
      vertex -0.289297 -4.21489 8.5
      vertex 0 -4.27244 8.5
    endloop
  endfacet
  facet normal 0.180744 0.908663 -0.376381
    outer loop
      vertex -0.289297 -4.21489 8.5
      vertex 0 -4.90393 6.97545
      vertex -1.87665 -4.53064 6.97545
    endloop
  endfacet
  facet normal -0.514716 0.770328 -0.376381
    outer loop
      vertex 2.77581 -3.18494 8.5
      vertex 1.87665 -4.53064 6.97545
      vertex 1.63499 -3.94722 8.5
    endloop
  endfacet
  facet normal 0.180745 0.908663 -0.376381
    outer loop
      vertex -1.63499 -3.94722 8.5
      vertex -0.289297 -4.21489 8.5
      vertex -1.87665 -4.53064 6.97545
    endloop
  endfacet
endsolid OpenSCAD_Model
