solid OpenSCAD_Model
  facet normal -1 0 0
    outer loop
      vertex 0 6 0
      vertex 0 0 0
      vertex 0 6 9
    endloop
  endfacet
  facet normal -1 0 0
    outer loop
      vertex 0 6 9
      vertex 0 7 12
      vertex 0 7 9
    endloop
  endfacet
  facet normal -1 0 0
    outer loop
      vertex 0 0 12
      vertex 0 6 9
      vertex 0 0 0
    endloop
  endfacet
  facet normal -1 0 0
    outer loop
      vertex 0 6 9
      vertex 0 0 12
      vertex 0 7 12
    endloop
  endfacet
  facet normal -1 0 0
    outer loop
      vertex 0 18 9
      vertex 0 24 0
      vertex 0 18 0
    endloop
  endfacet
  facet normal -1 0 0
    outer loop
      vertex 0 24 0
      vertex 0 18 9
      vertex 0 24 12
    endloop
  endfacet
  facet normal -1 0 0
    outer loop
      vertex 0 17 12
      vertex 0 18 9
      vertex 0 17 9
    endloop
  endfacet
  facet normal -1 0 0
    outer loop
      vertex 0 18 9
      vertex 0 17 12
      vertex 0 24 12
    endloop
  endfacet
  facet normal -1 0 0
    outer loop
      vertex 0 8.5 10
      vertex 0 15.5 12
      vertex 0 15.5 10
    endloop
  endfacet
  facet normal -1 -0 0
    outer loop
      vertex 0 15.5 12
      vertex 0 8.5 10
      vertex 0 8.5 12
    endloop
  endfacet
  facet normal -0 0 1
    outer loop
      vertex 0 15.5 12
      vertex 1 14 12
      vertex 1 15.5 12
    endloop
  endfacet
  facet normal 0 0 1
    outer loop
      vertex 1 14 12
      vertex 0 15.5 12
      vertex 1 10 12
    endloop
  endfacet
  facet normal 0 0 1
    outer loop
      vertex 0 8.5 12
      vertex 1 10 12
      vertex 0 15.5 12
    endloop
  endfacet
  facet normal 0 0 1
    outer loop
      vertex 1 10 12
      vertex 0 8.5 12
      vertex 1 8.5 12
    endloop
  endfacet
  facet normal -0 0 1
    outer loop
      vertex 1 14 12
      vertex 3 10 12
      vertex 3 14 12
    endloop
  endfacet
  facet normal 0 0 1
    outer loop
      vertex 3 10 12
      vertex 1 14 12
      vertex 1 10 12
    endloop
  endfacet
  facet normal 0 0 1
    outer loop
      vertex 12 5.8094 12
      vertex 18 7 12
      vertex 12 17.6906 12
    endloop
  endfacet
  facet normal 0 0 1
    outer loop
      vertex 18 7 12
      vertex 12 5.8094 12
      vertex 14 4.6547 12
    endloop
  endfacet
  facet normal 0 0 1
    outer loop
      vertex 3 14 12
      vertex 12 17.6906 12
      vertex 10 18.8453 12
    endloop
  endfacet
  facet normal 0 0 1
    outer loop
      vertex 3 10 12
      vertex 12 17.6906 12
      vertex 3 14 12
    endloop
  endfacet
  facet normal -0 0 1
    outer loop
      vertex 14 21.1547 12
      vertex 18 17 12
      vertex 18 24 12
    endloop
  endfacet
  facet normal -0 0 1
    outer loop
      vertex 12 17.6906 12
      vertex 18 17 12
      vertex 14 18.8453 12
    endloop
  endfacet
  facet normal 0 0 1
    outer loop
      vertex 18 17 12
      vertex 14 21.1547 12
      vertex 14 18.8453 12
    endloop
  endfacet
  facet normal 0 0 1
    outer loop
      vertex 18 24 12
      vertex 12 22.3094 12
      vertex 14 21.1547 12
    endloop
  endfacet
  facet normal 0 0 1
    outer loop
      vertex 3 17 12
      vertex 10 18.8453 12
      vertex 10 21.1547 12
    endloop
  endfacet
  facet normal 0 0 1
    outer loop
      vertex 12 17.6906 12
      vertex 3 10 12
      vertex 12 5.8094 12
    endloop
  endfacet
  facet normal 0 0 1
    outer loop
      vertex 10 18.8453 12
      vertex 3 17 12
      vertex 3 14 12
    endloop
  endfacet
  facet normal -0 0 1
    outer loop
      vertex 0 24 12
      vertex 12 22.3094 12
      vertex 18 24 12
    endloop
  endfacet
  facet normal 0 0 1
    outer loop
      vertex 0 24 12
      vertex 10 21.1547 12
      vertex 12 22.3094 12
    endloop
  endfacet
  facet normal 0 0 1
    outer loop
      vertex 0 24 12
      vertex 3 17 12
      vertex 10 21.1547 12
    endloop
  endfacet
  facet normal 0 0 1
    outer loop
      vertex 3 17 12
      vertex 0 24 12
      vertex 0 17 12
    endloop
  endfacet
  facet normal -0 0 1
    outer loop
      vertex 18 17 12
      vertex 27 7 12
      vertex 27 17 12
    endloop
  endfacet
  facet normal 0 0 1
    outer loop
      vertex 27 7 12
      vertex 18 17 12
      vertex 18 7 12
    endloop
  endfacet
  facet normal 0 0 1
    outer loop
      vertex 18 17 12
      vertex 12 17.6906 12
      vertex 18 7 12
    endloop
  endfacet
  facet normal 0 0 1
    outer loop
      vertex 18 7 12
      vertex 14 4.6547 12
      vertex 18 0 12
    endloop
  endfacet
  facet normal -0 0 1
    outer loop
      vertex 14 2.3453 12
      vertex 18 0 12
      vertex 14 4.6547 12
    endloop
  endfacet
  facet normal -0 0 1
    outer loop
      vertex 12 1.1906 12
      vertex 18 0 12
      vertex 14 2.3453 12
    endloop
  endfacet
  facet normal 0 0 1
    outer loop
      vertex 12 5.8094 12
      vertex 3 10 12
      vertex 10 4.6547 12
    endloop
  endfacet
  facet normal -0 0 1
    outer loop
      vertex 3 7 12
      vertex 10 4.6547 12
      vertex 3 10 12
    endloop
  endfacet
  facet normal 0 0 1
    outer loop
      vertex 10 4.6547 12
      vertex 3 7 12
      vertex 10 2.3453 12
    endloop
  endfacet
  facet normal 0 0 1
    outer loop
      vertex 0 0 12
      vertex 3 7 12
      vertex 0 7 12
    endloop
  endfacet
  facet normal 0 0 1
    outer loop
      vertex 3 7 12
      vertex 0 0 12
      vertex 10 2.3453 12
    endloop
  endfacet
  facet normal 0 0 1
    outer loop
      vertex 12 1.1906 12
      vertex 0 0 12
      vertex 18 0 12
    endloop
  endfacet
  facet normal 0 0 1
    outer loop
      vertex 10 2.3453 12
      vertex 0 0 12
      vertex 12 1.1906 12
    endloop
  endfacet
  facet normal 1 0 0
    outer loop
      vertex 18 6 9
      vertex 18 7 10
      vertex 18 7 12
    endloop
  endfacet
  facet normal 1 0 0
    outer loop
      vertex 18 7 10
      vertex 18 6 9
      vertex 18 7 9
    endloop
  endfacet
  facet normal 1 -0 0
    outer loop
      vertex 18 0 12
      vertex 18 6 9
      vertex 18 7 12
    endloop
  endfacet
  facet normal 1 0 0
    outer loop
      vertex 18 0 0
      vertex 18 6 9
      vertex 18 0 12
    endloop
  endfacet
  facet normal 1 0 0
    outer loop
      vertex 18 6 9
      vertex 18 0 0
      vertex 18 6 0
    endloop
  endfacet
  facet normal 1 0 0
    outer loop
      vertex 18 24 12
      vertex 18 18 9
      vertex 18 24 0
    endloop
  endfacet
  facet normal 1 -0 0
    outer loop
      vertex 18 17 12
      vertex 18 18 9
      vertex 18 24 12
    endloop
  endfacet
  facet normal 1 -0 0
    outer loop
      vertex 18 17 10
      vertex 18 18 9
      vertex 18 17 12
    endloop
  endfacet
  facet normal 1 0 0
    outer loop
      vertex 18 18 9
      vertex 18 17 10
      vertex 18 17 9
    endloop
  endfacet
  facet normal 1 0 0
    outer loop
      vertex 18 24 0
      vertex 18 18 9
      vertex 18 18 0
    endloop
  endfacet
  facet normal 0 1 -0
    outer loop
      vertex 18 24 0
      vertex 0 24 12
      vertex 18 24 12
    endloop
  endfacet
  facet normal 0 1 0
    outer loop
      vertex 0 24 12
      vertex 18 24 0
      vertex 0 24 0
    endloop
  endfacet
  facet normal 0 0 -1
    outer loop
      vertex 18 18 0
      vertex 13.5 20 0
      vertex 18 24 0
    endloop
  endfacet
  facet normal 0 0 -1
    outer loop
      vertex 18 18 0
      vertex 12.4635 18.5734 0
      vertex 13.5 20 0
    endloop
  endfacet
  facet normal -0 0 -1
    outer loop
      vertex 10.7865 19.1183 0
      vertex 0 18 0
      vertex 10.7865 20.8817 0
    endloop
  endfacet
  facet normal -0 0 -1
    outer loop
      vertex 12.4635 18.5734 0
      vertex 0 18 0
      vertex 10.7865 19.1183 0
    endloop
  endfacet
  facet normal 0 0 -1
    outer loop
      vertex 0 18 0
      vertex 12.4635 18.5734 0
      vertex 18 18 0
    endloop
  endfacet
  facet normal 0 0 -1
    outer loop
      vertex 12.4635 21.4266 0
      vertex 18 24 0
      vertex 13.5 20 0
    endloop
  endfacet
  facet normal 0 0 -1
    outer loop
      vertex 0 24 0
      vertex 12.4635 21.4266 0
      vertex 10.7865 20.8817 0
    endloop
  endfacet
  facet normal 0 0 -1
    outer loop
      vertex 0 24 0
      vertex 10.7865 20.8817 0
      vertex 0 18 0
    endloop
  endfacet
  facet normal 0 0 -1
    outer loop
      vertex 12.4635 21.4266 0
      vertex 0 24 0
      vertex 18 24 0
    endloop
  endfacet
  facet normal 0 0 -1
    outer loop
      vertex 18 0 0
      vertex 13.5 3.5 0
      vertex 18 6 0
    endloop
  endfacet
  facet normal 0 0 -1
    outer loop
      vertex 18 0 0
      vertex 12.4635 2.07342 0
      vertex 13.5 3.5 0
    endloop
  endfacet
  facet normal 0 0 -1
    outer loop
      vertex 0 0 0
      vertex 12.4635 2.07342 0
      vertex 18 0 0
    endloop
  endfacet
  facet normal 0 0 -1
    outer loop
      vertex 0 6 0
      vertex 10.7865 2.61832 0
      vertex 0 0 0
    endloop
  endfacet
  facet normal -0 0 -1
    outer loop
      vertex 12.4635 2.07342 0
      vertex 0 0 0
      vertex 10.7865 2.61832 0
    endloop
  endfacet
  facet normal 0 0 -1
    outer loop
      vertex 12.4635 4.92658 0
      vertex 18 6 0
      vertex 13.5 3.5 0
    endloop
  endfacet
  facet normal 0 0 -1
    outer loop
      vertex 12.4635 4.92658 0
      vertex 0 6 0
      vertex 18 6 0
    endloop
  endfacet
  facet normal 0 0 -1
    outer loop
      vertex 10.7865 4.38168 0
      vertex 0 6 0
      vertex 12.4635 4.92658 0
    endloop
  endfacet
  facet normal 0 0 -1
    outer loop
      vertex 10.7865 2.61832 0
      vertex 0 6 0
      vertex 10.7865 4.38168 0
    endloop
  endfacet
  facet normal 0 -1 0
    outer loop
      vertex 0 0 0
      vertex 18 0 12
      vertex 0 0 12
    endloop
  endfacet
  facet normal 0 -1 -0
    outer loop
      vertex 18 0 12
      vertex 0 0 0
      vertex 18 0 0
    endloop
  endfacet
  facet normal 1 -0 0
    outer loop
      vertex 27 7 12
      vertex 27 17 10
      vertex 27 17 12
    endloop
  endfacet
  facet normal 1 0 0
    outer loop
      vertex 27 17 10
      vertex 27 7 12
      vertex 27 7 10
    endloop
  endfacet
  facet normal 0 1 0
    outer loop
      vertex 19 17 10
      vertex 27 17 12
      vertex 27 17 10
    endloop
  endfacet
  facet normal 0 1 0
    outer loop
      vertex 27 17 12
      vertex 19 17 10
      vertex 18 17 12
    endloop
  endfacet
  facet normal 0 1 0
    outer loop
      vertex 18 17 12
      vertex 19 17 10
      vertex 18 17 10
    endloop
  endfacet
  facet normal 0 0 -1
    outer loop
      vertex 19 7 10
      vertex 27 17 10
      vertex 27 7 10
    endloop
  endfacet
  facet normal -0 0 -1
    outer loop
      vertex 27 17 10
      vertex 19 7 10
      vertex 19 17 10
    endloop
  endfacet
  facet normal 0 0 -1
    outer loop
      vertex 0 8.5 10
      vertex 1 10 10
      vertex 1 8.5 10
    endloop
  endfacet
  facet normal -0 0 -1
    outer loop
      vertex 1 10 10
      vertex 0 8.5 10
      vertex 1 14 10
    endloop
  endfacet
  facet normal 0 0 -1
    outer loop
      vertex 0 15.5 10
      vertex 1 14 10
      vertex 0 8.5 10
    endloop
  endfacet
  facet normal 0 0 -1
    outer loop
      vertex 1 14 10
      vertex 0 15.5 10
      vertex 1 15.5 10
    endloop
  endfacet
  facet normal 0 0 -1
    outer loop
      vertex 1 10 10
      vertex 3 14 10
      vertex 3 10 10
    endloop
  endfacet
  facet normal -0 0 -1
    outer loop
      vertex 3 14 10
      vertex 1 10 10
      vertex 1 14 10
    endloop
  endfacet
  facet normal 0 0 -1
    outer loop
      vertex 18 7 10
      vertex 19 17 10
      vertex 19 7 10
    endloop
  endfacet
  facet normal 0 0 -1
    outer loop
      vertex 18 7 10
      vertex 18 17 10
      vertex 19 17 10
    endloop
  endfacet
  facet normal 0 0 -1
    outer loop
      vertex 3 10 10
      vertex 18 7 10
      vertex 3 7 10
    endloop
  endfacet
  facet normal 0 0 -1
    outer loop
      vertex 18 7 10
      vertex 3 10 10
      vertex 18 17 10
    endloop
  endfacet
  facet normal 0 0 -1
    outer loop
      vertex 3 14 10
      vertex 18 17 10
      vertex 3 10 10
    endloop
  endfacet
  facet normal -0 0 -1
    outer loop
      vertex 18 17 10
      vertex 3 14 10
      vertex 3 17 10
    endloop
  endfacet
  facet normal 0 -1 0
    outer loop
      vertex 19 7 10
      vertex 18 7 12
      vertex 18 7 10
    endloop
  endfacet
  facet normal 0 -1 0
    outer loop
      vertex 18 7 12
      vertex 19 7 10
      vertex 27 7 12
    endloop
  endfacet
  facet normal 0 -1 -0
    outer loop
      vertex 27 7 12
      vertex 19 7 10
      vertex 27 7 10
    endloop
  endfacet
  facet normal 0 1 -0
    outer loop
      vertex 1 15.5 10
      vertex 0 15.5 12
      vertex 1 15.5 12
    endloop
  endfacet
  facet normal 0 1 0
    outer loop
      vertex 0 15.5 12
      vertex 1 15.5 10
      vertex 0 15.5 10
    endloop
  endfacet
  facet normal 0 -1 0
    outer loop
      vertex 0 17 12
      vertex 3 17 10
      vertex 3 17 12
    endloop
  endfacet
  facet normal 0 -1 0
    outer loop
      vertex 0 17 9
      vertex 3 17 10
      vertex 0 17 12
    endloop
  endfacet
  facet normal 0 -1 0
    outer loop
      vertex 18 17 9
      vertex 3 17 10
      vertex 0 17 9
    endloop
  endfacet
  facet normal 0 -1 0
    outer loop
      vertex 3 17 10
      vertex 18 17 9
      vertex 18 17 10
    endloop
  endfacet
  facet normal 1 -0 0
    outer loop
      vertex 1 14 12
      vertex 1 15.5 10
      vertex 1 15.5 12
    endloop
  endfacet
  facet normal 1 0 0
    outer loop
      vertex 1 15.5 10
      vertex 1 14 12
      vertex 1 14 10
    endloop
  endfacet
  facet normal -1 0 0
    outer loop
      vertex 3 14 10
      vertex 3 17 12
      vertex 3 17 10
    endloop
  endfacet
  facet normal -1 -0 0
    outer loop
      vertex 3 17 12
      vertex 3 14 10
      vertex 3 14 12
    endloop
  endfacet
  facet normal 0 1 -0
    outer loop
      vertex 3 14 10
      vertex 1 14 12
      vertex 3 14 12
    endloop
  endfacet
  facet normal 0 1 0
    outer loop
      vertex 1 14 12
      vertex 3 14 10
      vertex 1 14 10
    endloop
  endfacet
  facet normal 0 -1 0
    outer loop
      vertex 0 8.5 10
      vertex 1 8.5 12
      vertex 0 8.5 12
    endloop
  endfacet
  facet normal 0 -1 -0
    outer loop
      vertex 1 8.5 12
      vertex 0 8.5 10
      vertex 1 8.5 10
    endloop
  endfacet
  facet normal 0 1 0
    outer loop
      vertex 18 7 10
      vertex 18 7 9
      vertex 3 7 10
    endloop
  endfacet
  facet normal 0 1 -0
    outer loop
      vertex 3 7 10
      vertex 0 7 12
      vertex 3 7 12
    endloop
  endfacet
  facet normal 0 1 0
    outer loop
      vertex 3 7 10
      vertex 0 7 9
      vertex 0 7 12
    endloop
  endfacet
  facet normal 0 1 0
    outer loop
      vertex 0 7 9
      vertex 3 7 10
      vertex 18 7 9
    endloop
  endfacet
  facet normal 1 -0 0
    outer loop
      vertex 1 8.5 12
      vertex 1 10 10
      vertex 1 10 12
    endloop
  endfacet
  facet normal 1 0 0
    outer loop
      vertex 1 10 10
      vertex 1 8.5 12
      vertex 1 8.5 10
    endloop
  endfacet
  facet normal -1 0 0
    outer loop
      vertex 3 7 10
      vertex 3 10 12
      vertex 3 10 10
    endloop
  endfacet
  facet normal -1 -0 0
    outer loop
      vertex 3 10 12
      vertex 3 7 10
      vertex 3 7 12
    endloop
  endfacet
  facet normal 0 -1 0
    outer loop
      vertex 1 10 10
      vertex 3 10 12
      vertex 1 10 12
    endloop
  endfacet
  facet normal 0 -1 -0
    outer loop
      vertex 3 10 12
      vertex 1 10 10
      vertex 3 10 10
    endloop
  endfacet
  facet normal 0 0 -1
    outer loop
      vertex 0 6 9
      vertex 18 7 9
      vertex 18 6 9
    endloop
  endfacet
  facet normal -0 0 -1
    outer loop
      vertex 18 7 9
      vertex 0 6 9
      vertex 0 7 9
    endloop
  endfacet
  facet normal 0 0 -1
    outer loop
      vertex 0 17 9
      vertex 18 18 9
      vertex 18 17 9
    endloop
  endfacet
  facet normal -0 0 -1
    outer loop
      vertex 18 18 9
      vertex 0 17 9
      vertex 0 18 9
    endloop
  endfacet
  facet normal 0 -1 0
    outer loop
      vertex 0 18 0
      vertex 18 18 9
      vertex 0 18 9
    endloop
  endfacet
  facet normal 0 -1 -0
    outer loop
      vertex 18 18 9
      vertex 0 18 0
      vertex 18 18 0
    endloop
  endfacet
  facet normal 0 1 -0
    outer loop
      vertex 18 6 0
      vertex 0 6 9
      vertex 18 6 9
    endloop
  endfacet
  facet normal 0 1 0
    outer loop
      vertex 0 6 9
      vertex 18 6 0
      vertex 0 6 0
    endloop
  endfacet
  facet normal 1 -0 0
    outer loop
      vertex 10 2.3453 12
      vertex 10 4.6547 10.9
      vertex 10 4.6547 12
    endloop
  endfacet
  facet normal 1 0 0
    outer loop
      vertex 10 4.6547 10.9
      vertex 10 2.3453 12
      vertex 10 2.3453 10.9
    endloop
  endfacet
  facet normal -1 0 0
    outer loop
      vertex 14 2.3453 10.9
      vertex 14 4.6547 12
      vertex 14 4.6547 10.9
    endloop
  endfacet
  facet normal -1 -0 0
    outer loop
      vertex 14 4.6547 12
      vertex 14 2.3453 10.9
      vertex 14 2.3453 12
    endloop
  endfacet
  facet normal 0 0 1
    outer loop
      vertex 14 4.6547 10.9
      vertex 13.5 3.5 10.9
      vertex 14 2.3453 10.9
    endloop
  endfacet
  facet normal 0 0 1
    outer loop
      vertex 14 4.6547 10.9
      vertex 12.4635 4.92658 10.9
      vertex 13.5 3.5 10.9
    endloop
  endfacet
  facet normal 0 0 1
    outer loop
      vertex 12 5.8094 10.9
      vertex 12.4635 4.92658 10.9
      vertex 14 4.6547 10.9
    endloop
  endfacet
  facet normal 0 0 1
    outer loop
      vertex 12 5.8094 10.9
      vertex 10.7865 4.38168 10.9
      vertex 12.4635 4.92658 10.9
    endloop
  endfacet
  facet normal 0 0 1
    outer loop
      vertex 10.7865 4.38168 10.9
      vertex 10 4.6547 10.9
      vertex 10.7865 2.61832 10.9
    endloop
  endfacet
  facet normal -0 0 1
    outer loop
      vertex 10 4.6547 10.9
      vertex 10.7865 4.38168 10.9
      vertex 12 5.8094 10.9
    endloop
  endfacet
  facet normal 0 0 1
    outer loop
      vertex 12.4635 2.07342 10.9
      vertex 14 2.3453 10.9
      vertex 13.5 3.5 10.9
    endloop
  endfacet
  facet normal -0 0 1
    outer loop
      vertex 12.4635 2.07342 10.9
      vertex 12 1.1906 10.9
      vertex 14 2.3453 10.9
    endloop
  endfacet
  facet normal 0 0 1
    outer loop
      vertex 10.7865 2.61832 10.9
      vertex 12 1.1906 10.9
      vertex 12.4635 2.07342 10.9
    endloop
  endfacet
  facet normal 0 0 1
    outer loop
      vertex 10.7865 2.61832 10.9
      vertex 10 2.3453 10.9
      vertex 12 1.1906 10.9
    endloop
  endfacet
  facet normal 0 0 1
    outer loop
      vertex 10 2.3453 10.9
      vertex 10.7865 2.61832 10.9
      vertex 10 4.6547 10.9
    endloop
  endfacet
  facet normal -0.5 -0.866025 0
    outer loop
      vertex 12 5.8094 10.9
      vertex 14 4.6547 12
      vertex 12 5.8094 12
    endloop
  endfacet
  facet normal -0.5 -0.866025 -0
    outer loop
      vertex 14 4.6547 12
      vertex 12 5.8094 10.9
      vertex 14 4.6547 10.9
    endloop
  endfacet
  facet normal 0.5 0.866025 -0
    outer loop
      vertex 12 1.1906 10.9
      vertex 10 2.3453 12
      vertex 12 1.1906 12
    endloop
  endfacet
  facet normal 0.5 0.866025 0
    outer loop
      vertex 10 2.3453 12
      vertex 12 1.1906 10.9
      vertex 10 2.3453 10.9
    endloop
  endfacet
  facet normal 0.5 -0.866025 0
    outer loop
      vertex 10 4.6547 10.9
      vertex 12 5.8094 12
      vertex 10 4.6547 12
    endloop
  endfacet
  facet normal 0.5 -0.866025 0
    outer loop
      vertex 12 5.8094 12
      vertex 10 4.6547 10.9
      vertex 12 5.8094 10.9
    endloop
  endfacet
  facet normal -0.5 0.866025 0
    outer loop
      vertex 14 2.3453 10.9
      vertex 12 1.1906 12
      vertex 14 2.3453 12
    endloop
  endfacet
  facet normal -0.5 0.866025 0
    outer loop
      vertex 12 1.1906 12
      vertex 14 2.3453 10.9
      vertex 12 1.1906 10.9
    endloop
  endfacet
  facet normal -0.809017 -0.587786 0
    outer loop
      vertex 13.5 3.5 0
      vertex 12.4635 4.92658 10.9
      vertex 12.4635 4.92658 0
    endloop
  endfacet
  facet normal -0.809017 -0.587786 0
    outer loop
      vertex 12.4635 4.92658 10.9
      vertex 13.5 3.5 0
      vertex 13.5 3.5 10.9
    endloop
  endfacet
  facet normal 1 -0 0
    outer loop
      vertex 10.7865 2.61832 10.9
      vertex 10.7865 4.38168 0
      vertex 10.7865 4.38168 10.9
    endloop
  endfacet
  facet normal 1 0 0
    outer loop
      vertex 10.7865 4.38168 0
      vertex 10.7865 2.61832 10.9
      vertex 10.7865 2.61832 0
    endloop
  endfacet
  facet normal 0.309017 -0.951056 0
    outer loop
      vertex 10.7865 4.38168 0
      vertex 12.4635 4.92658 10.9
      vertex 10.7865 4.38168 10.9
    endloop
  endfacet
  facet normal 0.309017 -0.951056 0
    outer loop
      vertex 12.4635 4.92658 10.9
      vertex 10.7865 4.38168 0
      vertex 12.4635 4.92658 0
    endloop
  endfacet
  facet normal 0.309017 0.951056 -0
    outer loop
      vertex 12.4635 2.07342 0
      vertex 10.7865 2.61832 10.9
      vertex 12.4635 2.07342 10.9
    endloop
  endfacet
  facet normal 0.309017 0.951056 0
    outer loop
      vertex 10.7865 2.61832 10.9
      vertex 12.4635 2.07342 0
      vertex 10.7865 2.61832 0
    endloop
  endfacet
  facet normal -0.809017 0.587786 0
    outer loop
      vertex 12.4635 2.07342 0
      vertex 13.5 3.5 10.9
      vertex 13.5 3.5 0
    endloop
  endfacet
  facet normal -0.809017 0.587786 0
    outer loop
      vertex 13.5 3.5 10.9
      vertex 12.4635 2.07342 0
      vertex 12.4635 2.07342 10.9
    endloop
  endfacet
  facet normal 1 -0 0
    outer loop
      vertex 10 18.8453 12
      vertex 10 21.1547 10.9
      vertex 10 21.1547 12
    endloop
  endfacet
  facet normal 1 0 0
    outer loop
      vertex 10 21.1547 10.9
      vertex 10 18.8453 12
      vertex 10 18.8453 10.9
    endloop
  endfacet
  facet normal -1 0 0
    outer loop
      vertex 14 18.8453 10.9
      vertex 14 21.1547 12
      vertex 14 21.1547 10.9
    endloop
  endfacet
  facet normal -1 -0 0
    outer loop
      vertex 14 21.1547 12
      vertex 14 18.8453 10.9
      vertex 14 18.8453 12
    endloop
  endfacet
  facet normal 0 0 1
    outer loop
      vertex 14 21.1547 10.9
      vertex 13.5 20 10.9
      vertex 14 18.8453 10.9
    endloop
  endfacet
  facet normal 0 0 1
    outer loop
      vertex 14 21.1547 10.9
      vertex 12.4635 21.4266 10.9
      vertex 13.5 20 10.9
    endloop
  endfacet
  facet normal 0 0 1
    outer loop
      vertex 12 22.3094 10.9
      vertex 12.4635 21.4266 10.9
      vertex 14 21.1547 10.9
    endloop
  endfacet
  facet normal 0 0 1
    outer loop
      vertex 12 22.3094 10.9
      vertex 10.7865 20.8817 10.9
      vertex 12.4635 21.4266 10.9
    endloop
  endfacet
  facet normal 0 0 1
    outer loop
      vertex 10.7865 20.8817 10.9
      vertex 10 21.1547 10.9
      vertex 10.7865 19.1183 10.9
    endloop
  endfacet
  facet normal -0 0 1
    outer loop
      vertex 10 21.1547 10.9
      vertex 10.7865 20.8817 10.9
      vertex 12 22.3094 10.9
    endloop
  endfacet
  facet normal 0 0 1
    outer loop
      vertex 12.4635 18.5734 10.9
      vertex 14 18.8453 10.9
      vertex 13.5 20 10.9
    endloop
  endfacet
  facet normal -0 0 1
    outer loop
      vertex 12.4635 18.5734 10.9
      vertex 12 17.6906 10.9
      vertex 14 18.8453 10.9
    endloop
  endfacet
  facet normal 0 0 1
    outer loop
      vertex 10.7865 19.1183 10.9
      vertex 12 17.6906 10.9
      vertex 12.4635 18.5734 10.9
    endloop
  endfacet
  facet normal 0 0 1
    outer loop
      vertex 10.7865 19.1183 10.9
      vertex 10 18.8453 10.9
      vertex 12 17.6906 10.9
    endloop
  endfacet
  facet normal 0 0 1
    outer loop
      vertex 10 18.8453 10.9
      vertex 10.7865 19.1183 10.9
      vertex 10 21.1547 10.9
    endloop
  endfacet
  facet normal -0.5 -0.866026 0
    outer loop
      vertex 12 22.3094 10.9
      vertex 14 21.1547 12
      vertex 12 22.3094 12
    endloop
  endfacet
  facet normal -0.5 -0.866026 -0
    outer loop
      vertex 14 21.1547 12
      vertex 12 22.3094 10.9
      vertex 14 21.1547 10.9
    endloop
  endfacet
  facet normal 0.5 0.866026 -0
    outer loop
      vertex 12 17.6906 10.9
      vertex 10 18.8453 12
      vertex 12 17.6906 12
    endloop
  endfacet
  facet normal 0.5 0.866026 0
    outer loop
      vertex 10 18.8453 12
      vertex 12 17.6906 10.9
      vertex 10 18.8453 10.9
    endloop
  endfacet
  facet normal 0.5 -0.866026 0
    outer loop
      vertex 10 21.1547 10.9
      vertex 12 22.3094 12
      vertex 10 21.1547 12
    endloop
  endfacet
  facet normal 0.5 -0.866026 0
    outer loop
      vertex 12 22.3094 12
      vertex 10 21.1547 10.9
      vertex 12 22.3094 10.9
    endloop
  endfacet
  facet normal -0.5 0.866026 0
    outer loop
      vertex 14 18.8453 10.9
      vertex 12 17.6906 12
      vertex 14 18.8453 12
    endloop
  endfacet
  facet normal -0.5 0.866026 0
    outer loop
      vertex 12 17.6906 12
      vertex 14 18.8453 10.9
      vertex 12 17.6906 10.9
    endloop
  endfacet
  facet normal -0.809017 -0.587786 0
    outer loop
      vertex 13.5 20 0
      vertex 12.4635 21.4266 10.9
      vertex 12.4635 21.4266 0
    endloop
  endfacet
  facet normal -0.809017 -0.587786 0
    outer loop
      vertex 12.4635 21.4266 10.9
      vertex 13.5 20 0
      vertex 13.5 20 10.9
    endloop
  endfacet
  facet normal 1 -0 0
    outer loop
      vertex 10.7865 19.1183 10.9
      vertex 10.7865 20.8817 0
      vertex 10.7865 20.8817 10.9
    endloop
  endfacet
  facet normal 1 0 0
    outer loop
      vertex 10.7865 20.8817 0
      vertex 10.7865 19.1183 10.9
      vertex 10.7865 19.1183 0
    endloop
  endfacet
  facet normal 0.309017 -0.951056 0
    outer loop
      vertex 10.7865 20.8817 0
      vertex 12.4635 21.4266 10.9
      vertex 10.7865 20.8817 10.9
    endloop
  endfacet
  facet normal 0.309017 -0.951056 0
    outer loop
      vertex 12.4635 21.4266 10.9
      vertex 10.7865 20.8817 0
      vertex 12.4635 21.4266 0
    endloop
  endfacet
  facet normal -0.809017 0.587786 0
    outer loop
      vertex 12.4635 18.5734 0
      vertex 13.5 20 10.9
      vertex 13.5 20 0
    endloop
  endfacet
  facet normal -0.809017 0.587786 0
    outer loop
      vertex 13.5 20 10.9
      vertex 12.4635 18.5734 0
      vertex 12.4635 18.5734 10.9
    endloop
  endfacet
  facet normal 0.309017 0.951056 -0
    outer loop
      vertex 12.4635 18.5734 0
      vertex 10.7865 19.1183 10.9
      vertex 12.4635 18.5734 10.9
    endloop
  endfacet
  facet normal 0.309017 0.951056 0
    outer loop
      vertex 10.7865 19.1183 10.9
      vertex 12.4635 18.5734 0
      vertex 10.7865 19.1183 0
    endloop
  endfacet
endsolid OpenSCAD_Model
