solid OpenSCAD_Model
  facet normal 0 -1 0
    outer loop
      vertex 0 16.5 10
      vertex 1.75 16.5 12
      vertex 0 16.5 12
    endloop
  endfacet
  facet normal 0 -1 -0
    outer loop
      vertex 1.75 16.5 12
      vertex 0 16.5 10
      vertex 1.75 16.5 10
    endloop
  endfacet
  facet normal 0 1 -0
    outer loop
      vertex 3.75 15 10
      vertex 0 15 12
      vertex 3.75 15 12
    endloop
  endfacet
  facet normal 0 1 0
    outer loop
      vertex 0 15 12
      vertex 3.75 15 10
      vertex 0 15 10
    endloop
  endfacet
  facet normal 1 -0 0
    outer loop
      vertex 1.75 16.5 12
      vertex 1.75 18 10
      vertex 1.75 18 12
    endloop
  endfacet
  facet normal 1 0 0
    outer loop
      vertex 1.75 18 10
      vertex 1.75 16.5 12
      vertex 1.75 16.5 10
    endloop
  endfacet
  facet normal -1 0 0
    outer loop
      vertex 3.75 15 10
      vertex 3.75 18 12
      vertex 3.75 18 10
    endloop
  endfacet
  facet normal -1 -0 0
    outer loop
      vertex 3.75 18 12
      vertex 3.75 15 10
      vertex 3.75 15 12
    endloop
  endfacet
  facet normal 0 -1 0
    outer loop
      vertex 0 18 0
      vertex 1.75 18 10
      vertex 0 18 10
    endloop
  endfacet
  facet normal 0 -1 -0
    outer loop
      vertex 1.75 18 10
      vertex 0 18 0
      vertex 3.75 18 10
    endloop
  endfacet
  facet normal 0 -1 0
    outer loop
      vertex 18 18 0
      vertex 3.75 18 10
      vertex 0 18 0
    endloop
  endfacet
  facet normal 0 -1 0
    outer loop
      vertex 3.75 18 10
      vertex 18 18 0
      vertex 18 18 10
    endloop
  endfacet
  facet normal 0 -1 0
    outer loop
      vertex 1.75 18 10
      vertex 3.75 18 12
      vertex 1.75 18 12
    endloop
  endfacet
  facet normal 0 -1 -0
    outer loop
      vertex 3.75 18 12
      vertex 1.75 18 10
      vertex 3.75 18 10
    endloop
  endfacet
  facet normal 0 1 -0
    outer loop
      vertex 1.75 7.5 10
      vertex 0 7.5 12
      vertex 1.75 7.5 12
    endloop
  endfacet
  facet normal 0 1 0
    outer loop
      vertex 0 7.5 12
      vertex 1.75 7.5 10
      vertex 0 7.5 10
    endloop
  endfacet
  facet normal 0 -1 0
    outer loop
      vertex 0 9 10
      vertex 3.75 9 12
      vertex 0 9 12
    endloop
  endfacet
  facet normal 0 -1 -0
    outer loop
      vertex 3.75 9 12
      vertex 0 9 10
      vertex 3.75 9 10
    endloop
  endfacet
  facet normal 1 -0 0
    outer loop
      vertex 1.75 6 12
      vertex 1.75 7.5 10
      vertex 1.75 7.5 12
    endloop
  endfacet
  facet normal 1 0 0
    outer loop
      vertex 1.75 7.5 10
      vertex 1.75 6 12
      vertex 1.75 6 10
    endloop
  endfacet
  facet normal -1 0 0
    outer loop
      vertex 3.75 6 10
      vertex 3.75 9 12
      vertex 3.75 9 10
    endloop
  endfacet
  facet normal -1 -0 0
    outer loop
      vertex 3.75 9 12
      vertex 3.75 6 10
      vertex 3.75 6 12
    endloop
  endfacet
  facet normal 0 1 -0
    outer loop
      vertex 18 6 0
      vertex 3.75 6 10
      vertex 18 6 10
    endloop
  endfacet
  facet normal 0 1 0
    outer loop
      vertex 0 6 0
      vertex 3.75 6 10
      vertex 18 6 0
    endloop
  endfacet
  facet normal 0 1 0
    outer loop
      vertex 3.75 6 10
      vertex 0 6 0
      vertex 1.75 6 10
    endloop
  endfacet
  facet normal 0 1 0
    outer loop
      vertex 1.75 6 10
      vertex 0 6 0
      vertex 0 6 10
    endloop
  endfacet
  facet normal 0 1 -0
    outer loop
      vertex 3.75 6 10
      vertex 1.75 6 12
      vertex 3.75 6 12
    endloop
  endfacet
  facet normal 0 1 0
    outer loop
      vertex 1.75 6 12
      vertex 3.75 6 10
      vertex 1.75 6 10
    endloop
  endfacet
  facet normal 0 0 -1
    outer loop
      vertex 0 16.5 10
      vertex 1.75 18 10
      vertex 1.75 16.5 10
    endloop
  endfacet
  facet normal -0 0 -1
    outer loop
      vertex 1.75 18 10
      vertex 0 16.5 10
      vertex 0 18 10
    endloop
  endfacet
  facet normal 0 0 -1
    outer loop
      vertex 0 9 10
      vertex 3.75 15 10
      vertex 3.75 9 10
    endloop
  endfacet
  facet normal -0 0 -1
    outer loop
      vertex 3.75 15 10
      vertex 0 9 10
      vertex 0 15 10
    endloop
  endfacet
  facet normal 0 0 -1
    outer loop
      vertex 3.75 9 10
      vertex 18 6 10
      vertex 3.75 6 10
    endloop
  endfacet
  facet normal 0 0 -1
    outer loop
      vertex 18 6 10
      vertex 3.75 9 10
      vertex 18 18 10
    endloop
  endfacet
  facet normal 0 0 -1
    outer loop
      vertex 3.75 15 10
      vertex 18 18 10
      vertex 3.75 9 10
    endloop
  endfacet
  facet normal -0 0 -1
    outer loop
      vertex 18 18 10
      vertex 3.75 15 10
      vertex 3.75 18 10
    endloop
  endfacet
  facet normal 0 0 -1
    outer loop
      vertex 0 6 10
      vertex 1.75 7.5 10
      vertex 1.75 6 10
    endloop
  endfacet
  facet normal -0 0 -1
    outer loop
      vertex 1.75 7.5 10
      vertex 0 6 10
      vertex 0 7.5 10
    endloop
  endfacet
  facet normal -0.809017 -0.587786 0
    outer loop
      vertex 13.5 3.5 0
      vertex 12.4635 4.92658 12
      vertex 12.4635 4.92658 0
    endloop
  endfacet
  facet normal -0.809017 -0.587786 0
    outer loop
      vertex 12.4635 4.92658 12
      vertex 13.5 3.5 0
      vertex 13.5 3.5 12
    endloop
  endfacet
  facet normal 1 -0 0
    outer loop
      vertex 10.7865 2.61832 12
      vertex 10.7865 4.38168 0
      vertex 10.7865 4.38168 12
    endloop
  endfacet
  facet normal 1 0 0
    outer loop
      vertex 10.7865 4.38168 0
      vertex 10.7865 2.61832 12
      vertex 10.7865 2.61832 0
    endloop
  endfacet
  facet normal 0.309017 -0.951057 0
    outer loop
      vertex 10.7865 4.38168 0
      vertex 12.4635 4.92658 12
      vertex 10.7865 4.38168 12
    endloop
  endfacet
  facet normal 0.309017 -0.951057 0
    outer loop
      vertex 12.4635 4.92658 12
      vertex 10.7865 4.38168 0
      vertex 12.4635 4.92658 0
    endloop
  endfacet
  facet normal 0.309017 0.951057 -0
    outer loop
      vertex 12.4635 2.07341 0
      vertex 10.7865 2.61832 12
      vertex 12.4635 2.07341 12
    endloop
  endfacet
  facet normal 0.309017 0.951057 0
    outer loop
      vertex 10.7865 2.61832 12
      vertex 12.4635 2.07341 0
      vertex 10.7865 2.61832 0
    endloop
  endfacet
  facet normal -0.809017 0.587785 0
    outer loop
      vertex 12.4635 2.07341 0
      vertex 13.5 3.5 12
      vertex 13.5 3.5 0
    endloop
  endfacet
  facet normal -0.809017 0.587785 0
    outer loop
      vertex 13.5 3.5 12
      vertex 12.4635 2.07341 0
      vertex 12.4635 2.07341 12
    endloop
  endfacet
  facet normal -0.809017 -0.587786 0
    outer loop
      vertex 13.5 20 0
      vertex 12.4635 21.4266 12
      vertex 12.4635 21.4266 0
    endloop
  endfacet
  facet normal -0.809017 -0.587786 0
    outer loop
      vertex 12.4635 21.4266 12
      vertex 13.5 20 0
      vertex 13.5 20 12
    endloop
  endfacet
  facet normal 1 -0 0
    outer loop
      vertex 10.7865 19.1183 12
      vertex 10.7865 20.8817 0
      vertex 10.7865 20.8817 12
    endloop
  endfacet
  facet normal 1 0 0
    outer loop
      vertex 10.7865 20.8817 0
      vertex 10.7865 19.1183 12
      vertex 10.7865 19.1183 0
    endloop
  endfacet
  facet normal 0.309017 -0.951057 0
    outer loop
      vertex 10.7865 20.8817 0
      vertex 12.4635 21.4266 12
      vertex 10.7865 20.8817 12
    endloop
  endfacet
  facet normal 0.309017 -0.951057 0
    outer loop
      vertex 12.4635 21.4266 12
      vertex 10.7865 20.8817 0
      vertex 12.4635 21.4266 0
    endloop
  endfacet
  facet normal 0.309017 0.951057 -0
    outer loop
      vertex 12.4635 18.5734 0
      vertex 10.7865 19.1183 12
      vertex 12.4635 18.5734 12
    endloop
  endfacet
  facet normal 0.309017 0.951057 0
    outer loop
      vertex 10.7865 19.1183 12
      vertex 12.4635 18.5734 0
      vertex 10.7865 19.1183 0
    endloop
  endfacet
  facet normal -0.809017 0.587785 0
    outer loop
      vertex 12.4635 18.5734 0
      vertex 13.5 20 12
      vertex 13.5 20 0
    endloop
  endfacet
  facet normal -0.809017 0.587785 0
    outer loop
      vertex 13.5 20 12
      vertex 12.4635 18.5734 0
      vertex 12.4635 18.5734 12
    endloop
  endfacet
  facet normal -1 0 0
    outer loop
      vertex 0 6 0
      vertex 0 0 0
      vertex 0 6 10
    endloop
  endfacet
  facet normal -1 0 0
    outer loop
      vertex 0 6 10
      vertex 0 7.5 12
      vertex 0 7.5 10
    endloop
  endfacet
  facet normal -1 0 0
    outer loop
      vertex 0 6 10
      vertex 0 0 12
      vertex 0 7.5 12
    endloop
  endfacet
  facet normal -1 0 0
    outer loop
      vertex 0 0 12
      vertex 0 6 10
      vertex 0 0 0
    endloop
  endfacet
  facet normal -1 0 0
    outer loop
      vertex 0 18 10
      vertex 0 24 0
      vertex 0 18 0
    endloop
  endfacet
  facet normal -1 0 0
    outer loop
      vertex 0 24 0
      vertex 0 18 10
      vertex 0 24 12
    endloop
  endfacet
  facet normal -1 0 0
    outer loop
      vertex 0 16.5 12
      vertex 0 18 10
      vertex 0 16.5 10
    endloop
  endfacet
  facet normal -1 0 0
    outer loop
      vertex 0 18 10
      vertex 0 16.5 12
      vertex 0 24 12
    endloop
  endfacet
  facet normal -1 0 0
    outer loop
      vertex 0 9 10
      vertex 0 15 12
      vertex 0 15 10
    endloop
  endfacet
  facet normal -1 -0 0
    outer loop
      vertex 0 15 12
      vertex 0 9 10
      vertex 0 9 12
    endloop
  endfacet
  facet normal 0 0 1
    outer loop
      vertex 1.75 7.5 12
      vertex 0 7.5 12
      vertex 1.75 6 12
    endloop
  endfacet
  facet normal -0 0 1
    outer loop
      vertex 0 15 12
      vertex 3.75 9 12
      vertex 3.75 15 12
    endloop
  endfacet
  facet normal 0 0 1
    outer loop
      vertex 3.75 9 12
      vertex 0 15 12
      vertex 0 9 12
    endloop
  endfacet
  facet normal -0 0 1
    outer loop
      vertex 12.4635 18.5734 12
      vertex 13.5 3.5 12
      vertex 13.5 20 12
    endloop
  endfacet
  facet normal 0 0 1
    outer loop
      vertex 12.4635 18.5734 12
      vertex 12.4635 4.92658 12
      vertex 13.5 3.5 12
    endloop
  endfacet
  facet normal 0 0 1
    outer loop
      vertex 3.75 15 12
      vertex 12.4635 18.5734 12
      vertex 10.7865 19.1183 12
    endloop
  endfacet
  facet normal 0 0 1
    outer loop
      vertex 12.4635 18.5734 12
      vertex 3.75 9 12
      vertex 12.4635 4.92658 12
    endloop
  endfacet
  facet normal 0 0 1
    outer loop
      vertex 18 24 12
      vertex 13.5 20 12
      vertex 18 0 12
    endloop
  endfacet
  facet normal 0 0 1
    outer loop
      vertex 18 24 12
      vertex 12.4635 21.4266 12
      vertex 13.5 20 12
    endloop
  endfacet
  facet normal -0 0 1
    outer loop
      vertex 0 24 12
      vertex 12.4635 21.4266 12
      vertex 18 24 12
    endloop
  endfacet
  facet normal 0 0 1
    outer loop
      vertex 3.75 18 12
      vertex 10.7865 19.1183 12
      vertex 10.7865 20.8817 12
    endloop
  endfacet
  facet normal 0 0 1
    outer loop
      vertex 12.4635 18.5734 12
      vertex 3.75 15 12
      vertex 3.75 9 12
    endloop
  endfacet
  facet normal 0 0 1
    outer loop
      vertex 10.7865 19.1183 12
      vertex 3.75 18 12
      vertex 3.75 15 12
    endloop
  endfacet
  facet normal 0 0 1
    outer loop
      vertex 12.4635 21.4266 12
      vertex 0 24 12
      vertex 10.7865 20.8817 12
    endloop
  endfacet
  facet normal 0 0 1
    outer loop
      vertex 10.7865 20.8817 12
      vertex 0 24 12
      vertex 3.75 18 12
    endloop
  endfacet
  facet normal 0 0 1
    outer loop
      vertex 3.75 18 12
      vertex 0 24 12
      vertex 1.75 18 12
    endloop
  endfacet
  facet normal 0 0 1
    outer loop
      vertex 0 16.5 12
      vertex 1.75 18 12
      vertex 0 24 12
    endloop
  endfacet
  facet normal 0 0 1
    outer loop
      vertex 1.75 18 12
      vertex 0 16.5 12
      vertex 1.75 16.5 12
    endloop
  endfacet
  facet normal -0 0 1
    outer loop
      vertex 13.5 3.5 12
      vertex 18 0 12
      vertex 13.5 20 12
    endloop
  endfacet
  facet normal -0 0 1
    outer loop
      vertex 12.4635 2.07341 12
      vertex 18 0 12
      vertex 13.5 3.5 12
    endloop
  endfacet
  facet normal 0 0 1
    outer loop
      vertex 0 0 12
      vertex 12.4635 2.07341 12
      vertex 10.7865 2.61832 12
    endloop
  endfacet
  facet normal 0 0 1
    outer loop
      vertex 12.4635 4.92658 12
      vertex 3.75 9 12
      vertex 10.7865 4.38168 12
    endloop
  endfacet
  facet normal -0 0 1
    outer loop
      vertex 3.75 6 12
      vertex 10.7865 4.38168 12
      vertex 3.75 9 12
    endloop
  endfacet
  facet normal 0 0 1
    outer loop
      vertex 10.7865 4.38168 12
      vertex 3.75 6 12
      vertex 10.7865 2.61832 12
    endloop
  endfacet
  facet normal 0 0 1
    outer loop
      vertex 0 0 12
      vertex 3.75 6 12
      vertex 1.75 6 12
    endloop
  endfacet
  facet normal 0 0 1
    outer loop
      vertex 12.4635 2.07341 12
      vertex 0 0 12
      vertex 18 0 12
    endloop
  endfacet
  facet normal 0 0 1
    outer loop
      vertex 3.75 6 12
      vertex 0 0 12
      vertex 10.7865 2.61832 12
    endloop
  endfacet
  facet normal 0 0 1
    outer loop
      vertex 0 0 12
      vertex 1.75 6 12
      vertex 0 7.5 12
    endloop
  endfacet
  facet normal 1 0 0
    outer loop
      vertex 18 24 12
      vertex 18 18 10
      vertex 18 24 0
    endloop
  endfacet
  facet normal 1 0 0
    outer loop
      vertex 18 24 12
      vertex 18 6 10
      vertex 18 18 10
    endloop
  endfacet
  facet normal 1 -0 0
    outer loop
      vertex 18 0 12
      vertex 18 6 10
      vertex 18 24 12
    endloop
  endfacet
  facet normal 1 0 0
    outer loop
      vertex 18 0 0
      vertex 18 6 10
      vertex 18 0 12
    endloop
  endfacet
  facet normal 1 0 0
    outer loop
      vertex 18 6 10
      vertex 18 0 0
      vertex 18 6 0
    endloop
  endfacet
  facet normal 1 0 0
    outer loop
      vertex 18 24 0
      vertex 18 18 10
      vertex 18 18 0
    endloop
  endfacet
  facet normal 0 0 -1
    outer loop
      vertex 18 18 0
      vertex 13.5 20 0
      vertex 18 24 0
    endloop
  endfacet
  facet normal 0 0 -1
    outer loop
      vertex 18 18 0
      vertex 12.4635 18.5734 0
      vertex 13.5 20 0
    endloop
  endfacet
  facet normal -0 0 -1
    outer loop
      vertex 10.7865 19.1183 0
      vertex 0 18 0
      vertex 10.7865 20.8817 0
    endloop
  endfacet
  facet normal -0 0 -1
    outer loop
      vertex 12.4635 18.5734 0
      vertex 0 18 0
      vertex 10.7865 19.1183 0
    endloop
  endfacet
  facet normal 0 0 -1
    outer loop
      vertex 0 18 0
      vertex 12.4635 18.5734 0
      vertex 18 18 0
    endloop
  endfacet
  facet normal 0 0 -1
    outer loop
      vertex 12.4635 21.4266 0
      vertex 18 24 0
      vertex 13.5 20 0
    endloop
  endfacet
  facet normal 0 0 -1
    outer loop
      vertex 0 24 0
      vertex 12.4635 21.4266 0
      vertex 10.7865 20.8817 0
    endloop
  endfacet
  facet normal 0 0 -1
    outer loop
      vertex 0 24 0
      vertex 10.7865 20.8817 0
      vertex 0 18 0
    endloop
  endfacet
  facet normal 0 0 -1
    outer loop
      vertex 12.4635 21.4266 0
      vertex 0 24 0
      vertex 18 24 0
    endloop
  endfacet
  facet normal 0 0 -1
    outer loop
      vertex 18 0 0
      vertex 13.5 3.5 0
      vertex 18 6 0
    endloop
  endfacet
  facet normal 0 0 -1
    outer loop
      vertex 18 0 0
      vertex 12.4635 2.07341 0
      vertex 13.5 3.5 0
    endloop
  endfacet
  facet normal 0 0 -1
    outer loop
      vertex 0 0 0
      vertex 12.4635 2.07341 0
      vertex 18 0 0
    endloop
  endfacet
  facet normal 0 0 -1
    outer loop
      vertex 0 6 0
      vertex 10.7865 2.61832 0
      vertex 0 0 0
    endloop
  endfacet
  facet normal -0 0 -1
    outer loop
      vertex 12.4635 2.07341 0
      vertex 0 0 0
      vertex 10.7865 2.61832 0
    endloop
  endfacet
  facet normal 0 0 -1
    outer loop
      vertex 12.4635 4.92658 0
      vertex 18 6 0
      vertex 13.5 3.5 0
    endloop
  endfacet
  facet normal 0 0 -1
    outer loop
      vertex 12.4635 4.92658 0
      vertex 0 6 0
      vertex 18 6 0
    endloop
  endfacet
  facet normal 0 0 -1
    outer loop
      vertex 10.7865 4.38168 0
      vertex 0 6 0
      vertex 12.4635 4.92658 0
    endloop
  endfacet
  facet normal 0 0 -1
    outer loop
      vertex 10.7865 2.61832 0
      vertex 0 6 0
      vertex 10.7865 4.38168 0
    endloop
  endfacet
  facet normal 0 -1 0
    outer loop
      vertex 0 0 0
      vertex 18 0 12
      vertex 0 0 12
    endloop
  endfacet
  facet normal 0 -1 -0
    outer loop
      vertex 18 0 12
      vertex 0 0 0
      vertex 18 0 0
    endloop
  endfacet
  facet normal 0 1 -0
    outer loop
      vertex 18 24 0
      vertex 0 24 12
      vertex 18 24 12
    endloop
  endfacet
  facet normal 0 1 0
    outer loop
      vertex 0 24 12
      vertex 18 24 0
      vertex 0 24 0
    endloop
  endfacet
endsolid OpenSCAD_Model
